<svg version="1.1" viewBox="0.0 0.0 529.1338582677165 377.9527559055118" fill="none" stroke="none" stroke-linecap="square" stroke-miterlimit="10" xmlns:xlink="http://www.w3.org/1999/xlink" xmlns="http://www.w3.org/2000/svg"><clipPath id="p.0"><path d="m0 0l529.13385 0l0 377.95276l-529.13385 0l0 -377.95276z" clip-rule="nonzero"/></clipPath><g clip-path="url(#p.0)"><path fill="#000000" fill-opacity="0.0" d="m0 0l529.13385 0l0 377.95276l-529.13385 0z" fill-rule="evenodd"/><path fill="#d9ead3" d="m138.22704 127.026245l376.81104 0l0 246.37796l-113.04465 0l0 -131.88452l-265.21783 0z" fill-rule="evenodd"/><path stroke="#595959" stroke-width="1.0" stroke-linejoin="round" stroke-linecap="butt" d="m138.22704 127.026245l376.81104 0l0 246.37796l-113.04465 0l0 -131.88452l-265.21783 0z" fill-rule="evenodd"/><path fill="#cc0000" d="m14.0958 4.545932l94.48819 0l0 94.48819l-94.48819 0z" fill-rule="evenodd"/><path stroke="#595959" stroke-width="1.0" stroke-linejoin="round" stroke-linecap="butt" d="m14.0958 4.545932l94.48819 0l0 94.48819l-94.48819 0z" fill-rule="evenodd"/><path fill="#e06666" d="m146.20866 4.545932l94.48819 0l0 94.48819l-94.48819 0z" fill-rule="evenodd"/><path stroke="#595959" stroke-width="1.0" stroke-linejoin="round" stroke-linecap="butt" d="m146.20866 4.545932l94.48819 0l0 94.48819l-94.48819 0z" fill-rule="evenodd"/><path fill="#ea9999" d="m14.0958 136.82939l94.48819 0l0 94.48819l-94.48819 0z" fill-rule="evenodd"/><path stroke="#595959" stroke-width="1.0" stroke-linejoin="round" stroke-linecap="butt" d="m14.0958 136.82939l94.48819 0l0 94.48819l-94.48819 0z" fill-rule="evenodd"/><path fill="#d9d9d9" d="m146.20866 136.82939l94.48819 0l0 94.48819l-94.48819 0z" fill-rule="evenodd"/><path stroke="#595959" stroke-width="1.0" stroke-linejoin="round" stroke-linecap="butt" d="m146.20866 136.82939l94.48819 0l0 94.48819l-94.48819 0z" fill-rule="evenodd"/><path fill="#e06666" d="m278.66272 4.545932l94.48819 0l0 94.48819l-94.48819 0z" fill-rule="evenodd"/><path stroke="#595959" stroke-width="1.0" stroke-linejoin="round" stroke-linecap="butt" d="m278.66272 4.545932l94.48819 0l0 94.48819l-94.48819 0z" fill-rule="evenodd"/><path fill="#ea9999" d="m410.7756 4.545932l94.48819 0l0 94.48819l-94.48819 0z" fill-rule="evenodd"/><path stroke="#595959" stroke-width="1.0" stroke-linejoin="round" stroke-linecap="butt" d="m410.7756 4.545932l94.48819 0l0 94.48819l-94.48819 0z" fill-rule="evenodd"/><path fill="#f4cccc" d="m278.66272 136.82939l94.48819 0l0 94.48819l-94.48819 0z" fill-rule="evenodd"/><path stroke="#595959" stroke-width="1.0" stroke-linejoin="round" stroke-linecap="butt" d="m278.66272 136.82939l94.48819 0l0 94.48819l-94.48819 0z" fill-rule="evenodd"/><path fill="#f4cccc" d="m410.7756 136.82939l94.48819 0l0 94.48819l-94.48819 0z" fill-rule="evenodd"/><path stroke="#595959" stroke-width="1.0" stroke-linejoin="round" stroke-linecap="butt" d="m410.7756 136.82939l94.48819 0l0 94.48819l-94.48819 0z" fill-rule="evenodd"/><path fill="#f4cccc" d="m14.0958 269.11285l94.48819 0l0 94.48819l-94.48819 0z" fill-rule="evenodd"/><path stroke="#595959" stroke-width="1.0" stroke-linejoin="round" stroke-linecap="butt" d="m14.0958 269.11285l94.48819 0l0 94.48819l-94.48819 0z" fill-rule="evenodd"/><path fill="#ea9999" d="m146.20866 269.11285l94.48819 0l0 94.48819l-94.48819 0z" fill-rule="evenodd"/><path stroke="#595959" stroke-width="1.0" stroke-linejoin="round" stroke-linecap="butt" d="m146.20866 269.11285l94.48819 0l0 94.48819l-94.48819 0z" fill-rule="evenodd"/><path fill="#990000" d="m278.66272 269.11285l94.48819 0l0 94.48819l-94.48819 0z" fill-rule="evenodd"/><path stroke="#595959" stroke-width="1.0" stroke-linejoin="round" stroke-linecap="butt" d="m278.66272 269.11285l94.48819 0l0 94.48819l-94.48819 0z" fill-rule="evenodd"/><path fill="#d9d9d9" d="m410.7756 269.11285l94.48819 0l0 94.48819l-94.48819 0z" fill-rule="evenodd"/><path stroke="#595959" stroke-width="1.0" stroke-linejoin="round" stroke-linecap="butt" d="m410.7756 269.11285l94.48819 0l0 94.48819l-94.48819 0z" fill-rule="evenodd"/><path fill="#000000" fill-opacity="0.0" d="m410.7756 184.07349l-37.637817 0" fill-rule="evenodd"/><path stroke="#595959" stroke-width="3.0" stroke-linejoin="round" stroke-linecap="butt" d="m410.7756 184.07349l-37.637817 0" fill-rule="evenodd"/><path fill="#000000" fill-opacity="0.0" d="m373.1509 51.790028l37.637817 0" fill-rule="evenodd"/><path stroke="#595959" stroke-width="3.0" stroke-linejoin="round" stroke-linecap="butt" d="m373.1509 51.790028l37.637817 0" fill-rule="evenodd"/><path fill="#000000" fill-opacity="0.0" d="m278.66272 51.790028l-37.952744 0" fill-rule="evenodd"/><path stroke="#595959" stroke-width="3.0" stroke-linejoin="round" stroke-linecap="butt" d="m278.66272 51.790028l-37.952744 0" fill-rule="evenodd"/><path fill="#000000" fill-opacity="0.0" d="m61.339893 231.31758l0 37.795273" fill-rule="evenodd"/><path stroke="#595959" stroke-width="3.0" stroke-linejoin="round" stroke-linecap="butt" d="m61.339893 231.31758l0 37.795273" fill-rule="evenodd"/><path fill="#000000" fill-opacity="0.0" d="m108.58399 316.35696l37.637794 0" fill-rule="evenodd"/><path stroke="#595959" stroke-width="3.0" stroke-linejoin="round" stroke-linecap="butt" d="m108.58399 316.35696l37.637794 0" fill-rule="evenodd"/><path fill="#000000" fill-opacity="0.0" d="m240.69685 316.35696l37.952744 0" fill-rule="evenodd"/><path stroke="#595959" stroke-width="3.0" stroke-linejoin="round" stroke-linecap="butt" d="m240.69685 316.35696l37.952744 0" fill-rule="evenodd"/><path fill="#000000" fill-opacity="0.0" d="m458.01968 99.03412l0 37.795273" fill-rule="evenodd"/><path stroke="#595959" stroke-width="3.0" stroke-linejoin="round" stroke-linecap="butt" d="m458.01968 99.03412l0 37.795273" fill-rule="evenodd"/><path fill="#000000" fill-opacity="0.0" d="m146.20866 51.790028l-37.637794 0" fill-rule="evenodd"/><path stroke="#595959" stroke-width="3.0" stroke-linejoin="round" stroke-linecap="butt" d="m146.20866 51.790028l-37.637794 0" fill-rule="evenodd"/><path fill="#000000" fill-opacity="0.0" d="m61.339893 99.03412l0 37.795273" fill-rule="evenodd"/><path stroke="#595959" stroke-width="3.0" stroke-linejoin="round" stroke-linecap="butt" d="m61.339893 99.03412l0 37.795273" fill-rule="evenodd"/></g></svg>