<svg version="1.1" viewBox="0.0 0.0 529.1338582677165 377.9527559055118" fill="none" stroke="none" stroke-linecap="square" stroke-miterlimit="10" xmlns:xlink="http://www.w3.org/1999/xlink" xmlns="http://www.w3.org/2000/svg"><clipPath id="p.0"><path d="m0 0l529.13385 0l0 377.95276l-529.13385 0l0 -377.95276z" clip-rule="nonzero"/></clipPath><g clip-path="url(#p.0)"><path fill="#000000" fill-opacity="0.0" d="m0 0l529.13385 0l0 377.95276l-529.13385 0z" fill-rule="evenodd"/><path fill="#fff2cc" d="m136.7769 127.02756l0 246.37796l378.25983 0l0 -114.49344l-265.21783 0l0 -131.88452z" fill-rule="evenodd"/><path stroke="#595959" stroke-width="1.0" stroke-linejoin="round" stroke-linecap="butt" d="m136.7769 127.02756l0 246.37796l378.25983 0l0 -114.49344l-265.21783 0l0 -131.88452z" fill-rule="evenodd"/><path fill="#cc0000" d="m14.0958 4.545932l94.48819 0l0 94.48819l-94.48819 0z" fill-rule="evenodd"/><path stroke="#595959" stroke-width="1.0" stroke-linejoin="round" stroke-linecap="butt" d="m14.0958 4.545932l94.48819 0l0 94.48819l-94.48819 0z" fill-rule="evenodd"/><path fill="#e06666" d="m146.20866 4.545932l94.48819 0l0 94.48819l-94.48819 0z" fill-rule="evenodd"/><path stroke="#595959" stroke-width="1.0" stroke-linejoin="round" stroke-linecap="butt" d="m146.20866 4.545932l94.48819 0l0 94.48819l-94.48819 0z" fill-rule="evenodd"/><path fill="#ea9999" d="m14.0958 136.82939l94.48819 0l0 94.48819l-94.48819 0z" fill-rule="evenodd"/><path stroke="#595959" stroke-width="1.0" stroke-linejoin="round" stroke-linecap="butt" d="m14.0958 136.82939l94.48819 0l0 94.48819l-94.48819 0z" fill-rule="evenodd"/><path fill="#d9d9d9" d="m146.20866 136.82939l94.48819 0l0 94.48819l-94.48819 0z" fill-rule="evenodd"/><path stroke="#595959" stroke-width="1.0" stroke-linejoin="round" stroke-linecap="butt" d="m146.20866 136.82939l94.48819 0l0 94.48819l-94.48819 0z" fill-rule="evenodd"/><path fill="#e06666" d="m278.66272 4.545932l94.48819 0l0 94.48819l-94.48819 0z" fill-rule="evenodd"/><path stroke="#595959" stroke-width="1.0" stroke-linejoin="round" stroke-linecap="butt" d="m278.66272 4.545932l94.48819 0l0 94.48819l-94.48819 0z" fill-rule="evenodd"/><path fill="#ea9999" d="m410.7756 4.545932l94.48819 0l0 94.48819l-94.48819 0z" fill-rule="evenodd"/><path stroke="#595959" stroke-width="1.0" stroke-linejoin="round" stroke-linecap="butt" d="m410.7756 4.545932l94.48819 0l0 94.48819l-94.48819 0z" fill-rule="evenodd"/><path fill="#f4cccc" d="m278.66272 136.82939l94.48819 0l0 94.48819l-94.48819 0z" fill-rule="evenodd"/><path stroke="#595959" stroke-width="1.0" stroke-linejoin="round" stroke-linecap="butt" d="m278.66272 136.82939l94.48819 0l0 94.48819l-94.48819 0z" fill-rule="evenodd"/><path fill="#f4cccc" d="m410.7756 136.82939l94.48819 0l0 94.48819l-94.48819 0z" fill-rule="evenodd"/><path stroke="#595959" stroke-width="1.0" stroke-linejoin="round" stroke-linecap="butt" d="m410.7756 136.82939l94.48819 0l0 94.48819l-94.48819 0z" fill-rule="evenodd"/><path fill="#f4cccc" d="m14.0958 269.11285l94.48819 0l0 94.48819l-94.48819 0z" fill-rule="evenodd"/><path stroke="#595959" stroke-width="1.0" stroke-linejoin="round" stroke-linecap="butt" d="m14.0958 269.11285l94.48819 0l0 94.48819l-94.48819 0z" fill-rule="evenodd"/><path fill="#ea9999" d="m146.20866 269.11285l94.48819 0l0 94.48819l-94.48819 0z" fill-rule="evenodd"/><path stroke="#595959" stroke-width="1.0" stroke-linejoin="round" stroke-linecap="butt" d="m146.20866 269.11285l94.48819 0l0 94.48819l-94.48819 0z" fill-rule="evenodd"/><path fill="#990000" d="m278.66272 269.11285l94.48819 0l0 94.48819l-94.48819 0z" fill-rule="evenodd"/><path stroke="#595959" stroke-width="1.0" stroke-linejoin="round" stroke-linecap="butt" d="m278.66272 269.11285l94.48819 0l0 94.48819l-94.48819 0z" fill-rule="evenodd"/><path fill="#d9d9d9" d="m410.7756 269.11285l94.48819 0l0 94.48819l-94.48819 0z" fill-rule="evenodd"/><path stroke="#595959" stroke-width="1.0" stroke-linejoin="round" stroke-linecap="butt" d="m410.7756 269.11285l94.48819 0l0 94.48819l-94.48819 0z" fill-rule="evenodd"/></g></svg>