<svg version="1.1" viewBox="0.0 0.0 1209.4488188976377 1209.4488188976377" fill="none" stroke="none" stroke-linecap="square" stroke-miterlimit="10" xmlns:xlink="http://www.w3.org/1999/xlink" xmlns="http://www.w3.org/2000/svg"><clipPath id="p.0"><path d="m0 0l1209.4489 0l0 1209.4489l-1209.4489 0l0 -1209.4489z" clip-rule="nonzero"/></clipPath><g clip-path="url(#p.0)"><path fill="#000000" fill-opacity="0.0" d="m0 0l1209.4489 0l0 1209.4489l-1209.4489 0z" fill-rule="evenodd"/><path fill="#d0e0e3" d="m132.43307 699.30707l188.97638 0l0 188.97638l-188.97638 0z" fill-rule="evenodd"/><path stroke="#595959" stroke-width="2.0" stroke-linejoin="round" stroke-linecap="butt" d="m132.43307 699.30707l188.97638 0l0 188.97638l-188.97638 0z" fill-rule="evenodd"/><path fill="#ead1dc" d="m321.40945 699.30707l188.97638 0l0 188.97638l-188.97638 0z" fill-rule="evenodd"/><path stroke="#595959" stroke-width="2.0" stroke-linejoin="round" stroke-linecap="butt" d="m321.40945 699.30707l188.97638 0l0 188.97638l-188.97638 0z" fill-rule="evenodd"/><path fill="#ead1dc" d="m132.43307 888.28345l188.97638 0l0 188.97644l-188.97638 0z" fill-rule="evenodd"/><path stroke="#595959" stroke-width="2.0" stroke-linejoin="round" stroke-linecap="butt" d="m132.43307 888.28345l188.97638 0l0 188.97644l-188.97638 0z" fill-rule="evenodd"/><path fill="#d0e0e3" d="m321.40945 888.28345l188.97638 0l0 188.97644l-188.97638 0z" fill-rule="evenodd"/><path stroke="#595959" stroke-width="2.0" stroke-linejoin="round" stroke-linecap="butt" d="m321.40945 888.28345l188.97638 0l0 188.97644l-188.97638 0z" fill-rule="evenodd"/><path fill="#ead1dc" d="m510.38583 1077.2599l-94.48819 94.48816l-94.48819 -94.48816z" fill-rule="evenodd"/><path stroke="#595959" stroke-width="2.0" stroke-linejoin="round" stroke-linecap="butt" d="m510.38583 1077.2599l-94.48819 94.48816l-94.48819 -94.48816z" fill-rule="evenodd"/><path fill="#d0e0e3" d="m510.38583 699.30707l94.48819 94.48822l-94.48819 94.48816z" fill-rule="evenodd"/><path stroke="#595959" stroke-width="2.0" stroke-linejoin="round" stroke-linecap="butt" d="m510.38583 699.30707l94.48819 94.48822l-94.48819 94.48816z" fill-rule="evenodd"/><path fill="#d0e0e3" d="m132.43307 1077.2599l-94.48819 -94.48822l94.48819 -94.48822z" fill-rule="evenodd"/><path stroke="#595959" stroke-width="2.0" stroke-linejoin="round" stroke-linecap="butt" d="m132.43307 1077.2599l-94.48819 -94.48822l94.48819 -94.48822z" fill-rule="evenodd"/><path fill="#595959" d="m122.98425 888.22046l0 0c0 -5.183655 4.202179 -9.385803 9.3858185 -9.385803l0 0c2.4892883 0 4.876602 0.98883057 6.636795 2.7490234c1.7601776 1.7601929 2.7490387 4.147522 2.7490387 6.63678l0 0c0 5.183655 -4.202179 9.385864 -9.385834 9.385864l0 0c-5.1836395 0 -9.3858185 -4.2022095 -9.3858185 -9.385864z" fill-rule="evenodd"/><path stroke="#595959" stroke-width="2.0" stroke-linejoin="round" stroke-linecap="butt" d="m122.98425 888.22046l0 0c0 -5.183655 4.202179 -9.385803 9.3858185 -9.385803l0 0c2.4892883 0 4.876602 0.98883057 6.636795 2.7490234c1.7601776 1.7601929 2.7490387 4.147522 2.7490387 6.63678l0 0c0 5.183655 -4.202179 9.385864 -9.385834 9.385864l0 0c-5.1836395 0 -9.3858185 -4.2022095 -9.3858185 -9.385864z" fill-rule="evenodd"/><path fill="#595959" d="m122.98425 1077.1969l0 0c0 -5.183716 4.202179 -9.385864 9.3858185 -9.385864l0 0c2.4892883 0 4.876602 0.9888916 6.636795 2.7490234c1.7601776 1.7602539 2.7490387 4.147461 2.7490387 6.636841l0 0c0 5.1835938 -4.202179 9.385742 -9.385834 9.385742l0 0c-5.1836395 0 -9.3858185 -4.2021484 -9.3858185 -9.385742z" fill-rule="evenodd"/><path stroke="#595959" stroke-width="2.0" stroke-linejoin="round" stroke-linecap="butt" d="m122.98425 1077.1969l0 0c0 -5.183716 4.202179 -9.385864 9.3858185 -9.385864l0 0c2.4892883 0 4.876602 0.9888916 6.636795 2.7490234c1.7601776 1.7602539 2.7490387 4.147461 2.7490387 6.636841l0 0c0 5.1835938 -4.202179 9.385742 -9.385834 9.385742l0 0c-5.1836395 0 -9.3858185 -4.2021484 -9.3858185 -9.385742z" fill-rule="evenodd"/><path fill="#595959" d="m311.96063 888.22046l0 0c0 -5.183655 4.202179 -9.385803 9.385834 -9.385803l0 0c2.4892578 0 4.876587 0.98883057 6.63678 2.7490234c1.7601624 1.7601929 2.7490234 4.147522 2.7490234 6.63678l0 0c0 5.183655 -4.2021484 9.385864 -9.385803 9.385864l0 0c-5.183655 0 -9.385834 -4.2022095 -9.385834 -9.385864z" fill-rule="evenodd"/><path stroke="#595959" stroke-width="2.0" stroke-linejoin="round" stroke-linecap="butt" d="m311.96063 888.22046l0 0c0 -5.183655 4.202179 -9.385803 9.385834 -9.385803l0 0c2.4892578 0 4.876587 0.98883057 6.63678 2.7490234c1.7601624 1.7601929 2.7490234 4.147522 2.7490234 6.63678l0 0c0 5.183655 -4.2021484 9.385864 -9.385803 9.385864l0 0c-5.183655 0 -9.385834 -4.2022095 -9.385834 -9.385864z" fill-rule="evenodd"/><path fill="#595959" d="m311.96063 1077.1969l0 0c0 -5.183716 4.202179 -9.385864 9.385834 -9.385864l0 0c2.4892578 0 4.876587 0.9888916 6.63678 2.7490234c1.7601624 1.7602539 2.7490234 4.147461 2.7490234 6.636841l0 0c0 5.1835938 -4.2021484 9.385742 -9.385803 9.385742l0 0c-5.183655 0 -9.385834 -4.2021484 -9.385834 -9.385742z" fill-rule="evenodd"/><path stroke="#595959" stroke-width="2.0" stroke-linejoin="round" stroke-linecap="butt" d="m311.96063 1077.1969l0 0c0 -5.183716 4.202179 -9.385864 9.385834 -9.385864l0 0c2.4892578 0 4.876587 0.9888916 6.63678 2.7490234c1.7601624 1.7602539 2.7490234 4.147461 2.7490234 6.636841l0 0c0 5.1835938 -4.2021484 9.385742 -9.385803 9.385742l0 0c-5.183655 0 -9.385834 -4.2021484 -9.385834 -9.385742z" fill-rule="evenodd"/><path fill="#595959" d="m500.937 888.22046l0 0c0 -5.183655 4.202179 -9.385803 9.385834 -9.385803l0 0c2.4892883 0 4.8766174 0.98883057 6.6367493 2.7490234c1.7601929 1.7601929 2.7490845 4.147522 2.7490845 6.63678l0 0c0 5.183655 -4.2022095 9.385864 -9.385834 9.385864l0 0c-5.183655 0 -9.385834 -4.2022095 -9.385834 -9.385864z" fill-rule="evenodd"/><path stroke="#595959" stroke-width="2.0" stroke-linejoin="round" stroke-linecap="butt" d="m500.937 888.22046l0 0c0 -5.183655 4.202179 -9.385803 9.385834 -9.385803l0 0c2.4892883 0 4.8766174 0.98883057 6.6367493 2.7490234c1.7601929 1.7601929 2.7490845 4.147522 2.7490845 6.63678l0 0c0 5.183655 -4.2022095 9.385864 -9.385834 9.385864l0 0c-5.183655 0 -9.385834 -4.2022095 -9.385834 -9.385864z" fill-rule="evenodd"/><path fill="#595959" d="m500.937 1077.1969l0 0c0 -5.183716 4.202179 -9.385864 9.385834 -9.385864l0 0c2.4892883 0 4.8766174 0.9888916 6.6367493 2.7490234c1.7601929 1.7602539 2.7490845 4.147461 2.7490845 6.636841l0 0c0 5.1835938 -4.2022095 9.385742 -9.385834 9.385742l0 0c-5.183655 0 -9.385834 -4.2021484 -9.385834 -9.385742z" fill-rule="evenodd"/><path stroke="#595959" stroke-width="2.0" stroke-linejoin="round" stroke-linecap="butt" d="m500.937 1077.1969l0 0c0 -5.183716 4.202179 -9.385864 9.385834 -9.385864l0 0c2.4892883 0 4.8766174 0.9888916 6.6367493 2.7490234c1.7601929 1.7602539 2.7490845 4.147461 2.7490845 6.636841l0 0c0 5.1835938 -4.2022095 9.385742 -9.385834 9.385742l0 0c-5.183655 0 -9.385834 -4.2021484 -9.385834 -9.385742z" fill-rule="evenodd"/><path fill="#ffffff" d="m28.496063 982.77167l0 0c0 -5.183655 4.202179 -9.385864 9.385826 -9.385864l0 0c2.489277 0 4.8765984 0.9888916 6.6367836 2.7490845c1.7601814 1.7601929 2.7490425 4.147461 2.7490425 6.63678l0 0c0 5.183655 -4.202175 9.385803 -9.385826 9.385803l0 0c-5.183647 0 -9.385826 -4.2021484 -9.385826 -9.385803z" fill-rule="evenodd"/><path stroke="#595959" stroke-width="2.0" stroke-linejoin="round" stroke-linecap="butt" d="m28.496063 982.77167l0 0c0 -5.183655 4.202179 -9.385864 9.385826 -9.385864l0 0c2.489277 0 4.8765984 0.9888916 6.6367836 2.7490845c1.7601814 1.7601929 2.7490425 4.147461 2.7490425 6.63678l0 0c0 5.183655 -4.202175 9.385803 -9.385826 9.385803l0 0c-5.183647 0 -9.385826 -4.2021484 -9.385826 -9.385803z" fill-rule="evenodd"/><path fill="#ffffff" d="m595.4252 793.7953l0 0c0 -5.183655 4.2022095 -9.385864 9.385864 -9.385864l0 0c2.4892578 0 4.876587 0.9888916 6.63678 2.7490845c1.7601929 1.7601929 2.7490234 4.147461 2.7490234 6.63678l0 0c0 5.183655 -4.2021484 9.385803 -9.385803 9.385803l0 0c-5.183655 0 -9.385864 -4.2021484 -9.385864 -9.385803z" fill-rule="evenodd"/><path stroke="#595959" stroke-width="2.0" stroke-linejoin="round" stroke-linecap="butt" d="m595.4252 793.7953l0 0c0 -5.183655 4.2022095 -9.385864 9.385864 -9.385864l0 0c2.4892578 0 4.876587 0.9888916 6.63678 2.7490845c1.7601929 1.7601929 2.7490234 4.147461 2.7490234 6.63678l0 0c0 5.183655 -4.2021484 9.385803 -9.385803 9.385803l0 0c-5.183655 0 -9.385864 -4.2021484 -9.385864 -9.385803z" fill-rule="evenodd"/><path fill="#ffffff" d="m406.5118 1171.685l0 0c0 -5.183716 4.202179 -9.385864 9.385834 -9.385864l0 0c2.4892578 0 4.876587 0.9888916 6.63678 2.7490234c1.7601929 1.7602539 2.749054 4.147583 2.749054 6.636841l0 0c0 5.1835938 -4.202179 9.385864 -9.385834 9.385864l0 0c-5.183655 0 -9.385834 -4.2022705 -9.385834 -9.385864z" fill-rule="evenodd"/><path stroke="#595959" stroke-width="2.0" stroke-linejoin="round" stroke-linecap="butt" d="m406.5118 1171.685l0 0c0 -5.183716 4.202179 -9.385864 9.385834 -9.385864l0 0c2.4892578 0 4.876587 0.9888916 6.63678 2.7490234c1.7601929 1.7602539 2.749054 4.147583 2.749054 6.636841l0 0c0 5.1835938 -4.202179 9.385864 -9.385834 9.385864l0 0c-5.183655 0 -9.385834 -4.2022705 -9.385834 -9.385864z" fill-rule="evenodd"/><path fill="#ffffff" d="m217.59842 793.7953l0 0c0 -5.183655 4.202179 -9.385864 9.385834 -9.385864l0 0c2.489273 0 4.876602 0.9888916 6.63678 2.7490845c1.7601776 1.7601929 2.7490387 4.147461 2.7490387 6.63678l0 0c0 5.183655 -4.2021637 9.385803 -9.3858185 9.385803l0 0c-5.183655 0 -9.385834 -4.2021484 -9.385834 -9.385803z" fill-rule="evenodd"/><path stroke="#595959" stroke-width="2.0" stroke-linejoin="round" stroke-linecap="butt" d="m217.59842 793.7953l0 0c0 -5.183655 4.202179 -9.385864 9.385834 -9.385864l0 0c2.489273 0 4.876602 0.9888916 6.63678 2.7490845c1.7601776 1.7601929 2.7490387 4.147461 2.7490387 6.63678l0 0c0 5.183655 -4.2021637 9.385803 -9.3858185 9.385803l0 0c-5.183655 0 -9.385834 -4.2021484 -9.385834 -9.385803z" fill-rule="evenodd"/><path fill="#ffffff" d="m217.53543 982.83466l0 0c0 -5.183655 4.202179 -9.385864 9.385834 -9.385864l0 0c2.489273 0 4.876587 0.9888916 6.63678 2.7490845c1.7601776 1.7601929 2.7490387 4.147522 2.7490387 6.63678l0 0c0 5.183655 -4.202179 9.385803 -9.3858185 9.385803l0 0c-5.183655 0 -9.385834 -4.2021484 -9.385834 -9.385803z" fill-rule="evenodd"/><path stroke="#595959" stroke-width="2.0" stroke-linejoin="round" stroke-linecap="butt" d="m217.53543 982.83466l0 0c0 -5.183655 4.202179 -9.385864 9.385834 -9.385864l0 0c2.489273 0 4.876587 0.9888916 6.63678 2.7490845c1.7601776 1.7601929 2.7490387 4.147522 2.7490387 6.63678l0 0c0 5.183655 -4.202179 9.385803 -9.3858185 9.385803l0 0c-5.183655 0 -9.385834 -4.2021484 -9.385834 -9.385803z" fill-rule="evenodd"/><path fill="#ffffff" d="m406.5118 793.8583l0 0c0 -5.183655 4.202179 -9.385864 9.385834 -9.385864l0 0c2.4892578 0 4.876587 0.9888916 6.63678 2.7490845c1.7601929 1.7601929 2.749054 4.147522 2.749054 6.63678l0 0c0 5.183655 -4.202179 9.385803 -9.385834 9.385803l0 0c-5.183655 0 -9.385834 -4.2021484 -9.385834 -9.385803z" fill-rule="evenodd"/><path stroke="#595959" stroke-width="2.0" stroke-linejoin="round" stroke-linecap="butt" d="m406.5118 793.8583l0 0c0 -5.183655 4.202179 -9.385864 9.385834 -9.385864l0 0c2.4892578 0 4.876587 0.9888916 6.63678 2.7490845c1.7601929 1.7601929 2.749054 4.147522 2.749054 6.63678l0 0c0 5.183655 -4.202179 9.385803 -9.385834 9.385803l0 0c-5.183655 0 -9.385834 -4.2021484 -9.385834 -9.385803z" fill-rule="evenodd"/><path fill="#ffffff" d="m406.5748 982.77167l0 0c0 -5.183655 4.202179 -9.385864 9.385834 -9.385864l0 0c2.4892883 0 4.876587 0.9888916 6.63678 2.7490845c1.7601929 1.7601929 2.749054 4.147461 2.749054 6.63678l0 0c0 5.183655 -4.202179 9.385803 -9.385834 9.385803l0 0c-5.183655 0 -9.385834 -4.2021484 -9.385834 -9.385803z" fill-rule="evenodd"/><path stroke="#595959" stroke-width="2.0" stroke-linejoin="round" stroke-linecap="butt" d="m406.5748 982.77167l0 0c0 -5.183655 4.202179 -9.385864 9.385834 -9.385864l0 0c2.4892883 0 4.876587 0.9888916 6.63678 2.7490845c1.7601929 1.7601929 2.749054 4.147461 2.749054 6.63678l0 0c0 5.183655 -4.202179 9.385803 -9.385834 9.385803l0 0c-5.183655 0 -9.385834 -4.2021484 -9.385834 -9.385803z" fill-rule="evenodd"/><path fill="#d0e0e3" d="m510.25986 132.31496l-188.97638 0l0 188.9764l188.97638 0z" fill-rule="evenodd"/><path stroke="#595959" stroke-width="2.0" stroke-linejoin="round" stroke-linecap="butt" d="m510.25986 132.31496l-188.97638 0l0 188.9764l188.97638 0z" fill-rule="evenodd"/><path fill="#ead1dc" d="m321.28348 132.31496l-188.9764 0l0 188.9764l188.9764 0z" fill-rule="evenodd"/><path stroke="#595959" stroke-width="2.0" stroke-linejoin="round" stroke-linecap="butt" d="m321.28348 132.31496l-188.9764 0l0 188.9764l188.9764 0z" fill-rule="evenodd"/><path fill="#ead1dc" d="m510.25986 321.29135l-188.97638 0l0 188.97638l188.97638 0z" fill-rule="evenodd"/><path stroke="#595959" stroke-width="2.0" stroke-linejoin="round" stroke-linecap="butt" d="m510.25986 321.29135l-188.97638 0l0 188.97638l188.97638 0z" fill-rule="evenodd"/><path fill="#d0e0e3" d="m321.28348 321.29135l-188.9764 0l0 188.97638l188.9764 0z" fill-rule="evenodd"/><path stroke="#595959" stroke-width="2.0" stroke-linejoin="round" stroke-linecap="butt" d="m321.28348 321.29135l-188.9764 0l0 188.97638l188.9764 0z" fill-rule="evenodd"/><path fill="#ead1dc" d="m510.25986 132.31496l-94.48819 -94.48819l-94.48819 94.48819z" fill-rule="evenodd"/><path stroke="#595959" stroke-width="2.0" stroke-linejoin="round" stroke-linecap="butt" d="m510.25986 132.31496l-94.48819 -94.48819l-94.48819 94.48819z" fill-rule="evenodd"/><path fill="#d0e0e3" d="m132.30708 132.31496l-94.48819 94.48819l94.48819 94.488205z" fill-rule="evenodd"/><path stroke="#595959" stroke-width="2.0" stroke-linejoin="round" stroke-linecap="butt" d="m132.30708 132.31496l-94.48819 94.48819l94.48819 94.488205z" fill-rule="evenodd"/><path fill="#d0e0e3" d="m510.25986 510.26773l94.48819 -94.48819l-94.48819 -94.48819z" fill-rule="evenodd"/><path stroke="#595959" stroke-width="2.0" stroke-linejoin="round" stroke-linecap="butt" d="m510.25986 510.26773l94.48819 -94.48819l-94.48819 -94.48819z" fill-rule="evenodd"/><path fill="#595959" d="m519.7087 132.25197l0 0c0 -5.183647 -4.2022095 -9.385826 -9.385834 -9.385826l0 0c-2.4892883 0 -4.8766174 0.9888611 -6.63678 2.7490463c-1.7601929 1.7601852 -2.749054 4.1475067 -2.749054 6.63678l0 0c0 5.183655 4.202179 9.385834 9.385834 9.385834l0 0c5.1836243 0 9.385834 -4.202179 9.385834 -9.385834z" fill-rule="evenodd"/><path stroke="#595959" stroke-width="2.0" stroke-linejoin="round" stroke-linecap="butt" d="m519.7087 132.25197l0 0c0 -5.183647 -4.2022095 -9.385826 -9.385834 -9.385826l0 0c-2.4892883 0 -4.8766174 0.9888611 -6.63678 2.7490463c-1.7601929 1.7601852 -2.749054 4.1475067 -2.749054 6.63678l0 0c0 5.183655 4.202179 9.385834 9.385834 9.385834l0 0c5.1836243 0 9.385834 -4.202179 9.385834 -9.385834z" fill-rule="evenodd"/><path fill="#595959" d="m519.7087 321.22833l0 0c0 -5.1836243 -4.2022095 -9.385803 -9.385834 -9.385803l0 0c-2.4892883 0 -4.8766174 0.9888611 -6.63678 2.7490234c-1.7601929 1.7601929 -2.749054 4.147522 -2.749054 6.63678l0 0c0 5.183655 4.202179 9.385834 9.385834 9.385834l0 0c5.1836243 0 9.385834 -4.202179 9.385834 -9.385834z" fill-rule="evenodd"/><path stroke="#595959" stroke-width="2.0" stroke-linejoin="round" stroke-linecap="butt" d="m519.7087 321.22833l0 0c0 -5.1836243 -4.2022095 -9.385803 -9.385834 -9.385803l0 0c-2.4892883 0 -4.8766174 0.9888611 -6.63678 2.7490234c-1.7601929 1.7601929 -2.749054 4.147522 -2.749054 6.63678l0 0c0 5.183655 4.202179 9.385834 9.385834 9.385834l0 0c5.1836243 0 9.385834 -4.202179 9.385834 -9.385834z" fill-rule="evenodd"/><path fill="#595959" d="m330.73227 132.25197l0 0c0 -5.183647 -4.2021484 -9.385826 -9.385803 -9.385826l0 0c-2.4892883 0 -4.8766174 0.9888611 -6.63678 2.7490463c-1.7601929 1.7601852 -2.749054 4.1475067 -2.749054 6.63678l0 0c0 5.183655 4.202179 9.385834 9.385834 9.385834l0 0c5.183655 0 9.385803 -4.202179 9.385803 -9.385834z" fill-rule="evenodd"/><path stroke="#595959" stroke-width="2.0" stroke-linejoin="round" stroke-linecap="butt" d="m330.73227 132.25197l0 0c0 -5.183647 -4.2021484 -9.385826 -9.385803 -9.385826l0 0c-2.4892883 0 -4.8766174 0.9888611 -6.63678 2.7490463c-1.7601929 1.7601852 -2.749054 4.1475067 -2.749054 6.63678l0 0c0 5.183655 4.202179 9.385834 9.385834 9.385834l0 0c5.183655 0 9.385803 -4.202179 9.385803 -9.385834z" fill-rule="evenodd"/><path fill="#595959" d="m330.73227 321.22833l0 0c0 -5.1836243 -4.2021484 -9.385803 -9.385803 -9.385803l0 0c-2.4892883 0 -4.8766174 0.9888611 -6.63678 2.7490234c-1.7601929 1.7601929 -2.749054 4.147522 -2.749054 6.63678l0 0c0 5.183655 4.202179 9.385834 9.385834 9.385834l0 0c5.183655 0 9.385803 -4.202179 9.385803 -9.385834z" fill-rule="evenodd"/><path stroke="#595959" stroke-width="2.0" stroke-linejoin="round" stroke-linecap="butt" d="m330.73227 321.22833l0 0c0 -5.1836243 -4.2021484 -9.385803 -9.385803 -9.385803l0 0c-2.4892883 0 -4.8766174 0.9888611 -6.63678 2.7490234c-1.7601929 1.7601929 -2.749054 4.147522 -2.749054 6.63678l0 0c0 5.183655 4.202179 9.385834 9.385834 9.385834l0 0c5.183655 0 9.385803 -4.202179 9.385803 -9.385834z" fill-rule="evenodd"/><path fill="#595959" d="m141.7559 132.25197l0 0c0 -5.183647 -4.202179 -9.385826 -9.385834 -9.385826l0 0c-2.489273 0 -4.876587 0.9888611 -6.636772 2.7490463c-1.7601852 1.7601852 -2.7490463 4.1475067 -2.7490463 6.63678l0 0c0 5.183655 4.202179 9.385834 9.3858185 9.385834l0 0c5.183655 0 9.385834 -4.202179 9.385834 -9.385834z" fill-rule="evenodd"/><path stroke="#595959" stroke-width="2.0" stroke-linejoin="round" stroke-linecap="butt" d="m141.7559 132.25197l0 0c0 -5.183647 -4.202179 -9.385826 -9.385834 -9.385826l0 0c-2.489273 0 -4.876587 0.9888611 -6.636772 2.7490463c-1.7601852 1.7601852 -2.7490463 4.1475067 -2.7490463 6.63678l0 0c0 5.183655 4.202179 9.385834 9.3858185 9.385834l0 0c5.183655 0 9.385834 -4.202179 9.385834 -9.385834z" fill-rule="evenodd"/><path fill="#595959" d="m141.7559 321.22833l0 0c0 -5.1836243 -4.202179 -9.385803 -9.385834 -9.385803l0 0c-2.489273 0 -4.876587 0.9888611 -6.636772 2.7490234c-1.7601852 1.7601929 -2.7490463 4.147522 -2.7490463 6.63678l0 0c0 5.183655 4.202179 9.385834 9.3858185 9.385834l0 0c5.183655 0 9.385834 -4.202179 9.385834 -9.385834z" fill-rule="evenodd"/><path stroke="#595959" stroke-width="2.0" stroke-linejoin="round" stroke-linecap="butt" d="m141.7559 321.22833l0 0c0 -5.1836243 -4.202179 -9.385803 -9.385834 -9.385803l0 0c-2.489273 0 -4.876587 0.9888611 -6.636772 2.7490234c-1.7601852 1.7601929 -2.7490463 4.147522 -2.7490463 6.63678l0 0c0 5.183655 4.202179 9.385834 9.3858185 9.385834l0 0c5.183655 0 9.385834 -4.202179 9.385834 -9.385834z" fill-rule="evenodd"/><path fill="#ffffff" d="m425.15747 37.76378l0 0c0 -5.183647 -4.202179 -9.385826 -9.385803 -9.385826l0 0c-2.4892883 0 -4.8766174 0.9888611 -6.6368103 2.7490444c-1.7601624 1.7601833 -2.7490234 4.147505 -2.7490234 6.6367817l0 0c0 5.183651 4.202179 9.385826 9.385834 9.385826l0 0c5.1836243 0 9.385803 -4.202175 9.385803 -9.385826z" fill-rule="evenodd"/><path stroke="#595959" stroke-width="2.0" stroke-linejoin="round" stroke-linecap="butt" d="m425.15747 37.76378l0 0c0 -5.183647 -4.202179 -9.385826 -9.385803 -9.385826l0 0c-2.4892883 0 -4.8766174 0.9888611 -6.6368103 2.7490444c-1.7601624 1.7601833 -2.7490234 4.147505 -2.7490234 6.6367817l0 0c0 5.183651 4.202179 9.385826 9.385834 9.385826l0 0c5.1836243 0 9.385803 -4.202175 9.385803 -9.385826z" fill-rule="evenodd"/><path fill="#ffffff" d="m47.267715 226.80315l0 0c0 -5.1836395 -4.202175 -9.3858185 -9.385826 -9.3858185l0 0c-2.489277 0 -4.8765984 0.9888611 -6.6367817 2.7490387c-1.7601833 1.7601776 -2.7490444 4.1475067 -2.7490444 6.63678l0 0c0 5.183655 4.202179 9.385834 9.385826 9.385834l0 0c5.183651 0 9.385826 -4.202179 9.385826 -9.385834z" fill-rule="evenodd"/><path stroke="#595959" stroke-width="2.0" stroke-linejoin="round" stroke-linecap="butt" d="m47.267715 226.80315l0 0c0 -5.1836395 -4.202175 -9.3858185 -9.385826 -9.3858185l0 0c-2.489277 0 -4.8765984 0.9888611 -6.6367817 2.7490387c-1.7601833 1.7601776 -2.7490444 4.1475067 -2.7490444 6.63678l0 0c0 5.183655 4.202179 9.385834 9.385826 9.385834l0 0c5.183651 0 9.385826 -4.202179 9.385826 -9.385834z" fill-rule="evenodd"/><path fill="#ffffff" d="m425.09448 226.80315l0 0c0 -5.1836395 -4.202179 -9.3858185 -9.385834 -9.3858185l0 0c-2.4892578 0 -4.876587 0.9888611 -6.63678 2.7490387c-1.7601624 1.7601776 -2.7490234 4.1475067 -2.7490234 6.63678l0 0c0 5.183655 4.202179 9.385834 9.385803 9.385834l0 0c5.183655 0 9.385834 -4.202179 9.385834 -9.385834z" fill-rule="evenodd"/><path stroke="#595959" stroke-width="2.0" stroke-linejoin="round" stroke-linecap="butt" d="m425.09448 226.80315l0 0c0 -5.1836395 -4.202179 -9.3858185 -9.385834 -9.3858185l0 0c-2.4892578 0 -4.876587 0.9888611 -6.63678 2.7490387c-1.7601624 1.7601776 -2.7490234 4.1475067 -2.7490234 6.63678l0 0c0 5.183655 4.202179 9.385834 9.385803 9.385834l0 0c5.183655 0 9.385834 -4.202179 9.385834 -9.385834z" fill-rule="evenodd"/><path fill="#ffffff" d="m425.15747 415.84253l0 0c0 -5.183655 -4.202179 -9.385834 -9.385803 -9.385834l0 0c-2.4892883 0 -4.8766174 0.9888611 -6.6368103 2.749054c-1.7601624 1.7601624 -2.7490234 4.1474915 -2.7490234 6.63678l0 0c0 5.1836243 4.202179 9.385803 9.385834 9.385803l0 0c5.1836243 0 9.385803 -4.202179 9.385803 -9.385803z" fill-rule="evenodd"/><path stroke="#595959" stroke-width="2.0" stroke-linejoin="round" stroke-linecap="butt" d="m425.15747 415.84253l0 0c0 -5.183655 -4.202179 -9.385834 -9.385803 -9.385834l0 0c-2.4892883 0 -4.8766174 0.9888611 -6.6368103 2.749054c-1.7601624 1.7601624 -2.7490234 4.1474915 -2.7490234 6.63678l0 0c0 5.1836243 4.202179 9.385803 9.385834 9.385803l0 0c5.1836243 0 9.385803 -4.202179 9.385803 -9.385803z" fill-rule="evenodd"/><path fill="#ffffff" d="m236.1811 226.86613l0 0c0 -5.1836395 -4.202179 -9.3858185 -9.385834 -9.3858185l0 0c-2.489273 0 -4.876602 0.9888611 -6.63678 2.7490387c-1.7601776 1.7601929 -2.7490387 4.1475067 -2.7490387 6.63678l0 0c0 5.183655 4.202179 9.385834 9.3858185 9.385834l0 0c5.183655 0 9.385834 -4.202179 9.385834 -9.385834z" fill-rule="evenodd"/><path stroke="#595959" stroke-width="2.0" stroke-linejoin="round" stroke-linecap="butt" d="m236.1811 226.86613l0 0c0 -5.1836395 -4.202179 -9.3858185 -9.385834 -9.3858185l0 0c-2.489273 0 -4.876602 0.9888611 -6.63678 2.7490387c-1.7601776 1.7601929 -2.7490387 4.1475067 -2.7490387 6.63678l0 0c0 5.183655 4.202179 9.385834 9.3858185 9.385834l0 0c5.183655 0 9.385834 -4.202179 9.385834 -9.385834z" fill-rule="evenodd"/><path fill="#ffffff" d="m236.1181 415.77954l0 0c0 -5.183655 -4.2021637 -9.385834 -9.3858185 -9.385834l0 0c-2.489273 0 -4.876602 0.9888611 -6.63678 2.7490234c-1.7601929 1.7601929 -2.749054 4.147522 -2.749054 6.6368103l0 0c0 5.1836243 4.202179 9.385803 9.385834 9.385803l0 0c5.183655 0 9.3858185 -4.202179 9.3858185 -9.385803z" fill-rule="evenodd"/><path stroke="#595959" stroke-width="2.0" stroke-linejoin="round" stroke-linecap="butt" d="m236.1181 415.77954l0 0c0 -5.183655 -4.2021637 -9.385834 -9.3858185 -9.385834l0 0c-2.489273 0 -4.876602 0.9888611 -6.63678 2.7490234c-1.7601929 1.7601929 -2.749054 4.147522 -2.749054 6.6368103l0 0c0 5.1836243 4.202179 9.385803 9.385834 9.385803l0 0c5.183655 0 9.3858185 -4.202179 9.3858185 -9.385803z" fill-rule="evenodd"/><path fill="#d0e0e3" d="m699.2992 132.31496l188.97638 0l0 188.9764l-188.97638 0z" fill-rule="evenodd"/><path stroke="#595959" stroke-width="2.0" stroke-linejoin="round" stroke-linecap="butt" d="m699.2992 132.31496l188.97638 0l0 188.9764l-188.97638 0z" fill-rule="evenodd"/><path fill="#ead1dc" d="m888.2756 132.31496l188.97638 0l0 188.9764l-188.97638 0z" fill-rule="evenodd"/><path stroke="#595959" stroke-width="2.0" stroke-linejoin="round" stroke-linecap="butt" d="m888.2756 132.31496l188.97638 0l0 188.9764l-188.97638 0z" fill-rule="evenodd"/><path fill="#ead1dc" d="m699.2992 321.29135l188.97638 0l0 188.97638l-188.97638 0z" fill-rule="evenodd"/><path stroke="#595959" stroke-width="2.0" stroke-linejoin="round" stroke-linecap="butt" d="m699.2992 321.29135l188.97638 0l0 188.97638l-188.97638 0z" fill-rule="evenodd"/><path fill="#d0e0e3" d="m888.2756 321.29135l188.97638 0l0 188.97638l-188.97638 0z" fill-rule="evenodd"/><path stroke="#595959" stroke-width="2.0" stroke-linejoin="round" stroke-linecap="butt" d="m888.2756 321.29135l188.97638 0l0 188.97638l-188.97638 0z" fill-rule="evenodd"/><path fill="#ead1dc" d="m699.2992 132.31496l94.48822 -94.48819l94.48816 94.48819z" fill-rule="evenodd"/><path stroke="#595959" stroke-width="2.0" stroke-linejoin="round" stroke-linecap="butt" d="m699.2992 132.31496l94.48822 -94.48819l94.48816 94.48819z" fill-rule="evenodd"/><path fill="#ead1dc" d="m1077.252 510.26773l-94.48816 94.48819l-94.48822 -94.48819z" fill-rule="evenodd"/><path stroke="#595959" stroke-width="2.0" stroke-linejoin="round" stroke-linecap="butt" d="m1077.252 510.26773l-94.48816 94.48819l-94.48822 -94.48819z" fill-rule="evenodd"/><path fill="#d0e0e3" d="m1077.252 132.31496l94.48816 94.48819l-94.48816 94.488205z" fill-rule="evenodd"/><path stroke="#595959" stroke-width="2.0" stroke-linejoin="round" stroke-linecap="butt" d="m1077.252 132.31496l94.48816 94.48819l-94.48816 94.488205z" fill-rule="evenodd"/><path fill="#d0e0e3" d="m699.2992 510.26773l-94.48816 -94.48819l94.48816 -94.48819z" fill-rule="evenodd"/><path stroke="#595959" stroke-width="2.0" stroke-linejoin="round" stroke-linecap="butt" d="m699.2992 510.26773l-94.48816 -94.48819l94.48816 -94.48819z" fill-rule="evenodd"/><path fill="#595959" d="m689.8504 132.25197l0 0c0 -5.183647 4.2021484 -9.385826 9.385803 -9.385826l0 0c2.4893188 0 4.876587 0.9888611 6.63678 2.7490463c1.7601929 1.7601852 2.7490845 4.1475067 2.7490845 6.63678l0 0c0 5.183655 -4.2022095 9.385834 -9.385864 9.385834l0 0c-5.183655 0 -9.385803 -4.202179 -9.385803 -9.385834z" fill-rule="evenodd"/><path stroke="#595959" stroke-width="2.0" stroke-linejoin="round" stroke-linecap="butt" d="m689.8504 132.25197l0 0c0 -5.183647 4.2021484 -9.385826 9.385803 -9.385826l0 0c2.4893188 0 4.876587 0.9888611 6.63678 2.7490463c1.7601929 1.7601852 2.7490845 4.1475067 2.7490845 6.63678l0 0c0 5.183655 -4.2022095 9.385834 -9.385864 9.385834l0 0c-5.183655 0 -9.385803 -4.202179 -9.385803 -9.385834z" fill-rule="evenodd"/><path fill="#595959" d="m689.8504 321.22833l0 0c0 -5.1836243 4.2021484 -9.385803 9.385803 -9.385803l0 0c2.4893188 0 4.876587 0.9888611 6.63678 2.7490234c1.7601929 1.7601929 2.7490845 4.147522 2.7490845 6.63678l0 0c0 5.183655 -4.2022095 9.385834 -9.385864 9.385834l0 0c-5.183655 0 -9.385803 -4.202179 -9.385803 -9.385834z" fill-rule="evenodd"/><path stroke="#595959" stroke-width="2.0" stroke-linejoin="round" stroke-linecap="butt" d="m689.8504 321.22833l0 0c0 -5.1836243 4.2021484 -9.385803 9.385803 -9.385803l0 0c2.4893188 0 4.876587 0.9888611 6.63678 2.7490234c1.7601929 1.7601929 2.7490845 4.147522 2.7490845 6.63678l0 0c0 5.183655 -4.2022095 9.385834 -9.385864 9.385834l0 0c-5.183655 0 -9.385803 -4.202179 -9.385803 -9.385834z" fill-rule="evenodd"/><path fill="#595959" d="m689.8504 510.2047l0 0c0 -5.1836243 4.2021484 -9.385803 9.385803 -9.385803l0 0c2.4893188 0 4.876587 0.9888611 6.63678 2.7490234c1.7601929 1.7601929 2.7490845 4.147522 2.7490845 6.63678l0 0c0 5.183655 -4.2022095 9.385864 -9.385864 9.385864l0 0c-5.183655 0 -9.385803 -4.2022095 -9.385803 -9.385864z" fill-rule="evenodd"/><path stroke="#595959" stroke-width="2.0" stroke-linejoin="round" stroke-linecap="butt" d="m689.8504 510.2047l0 0c0 -5.1836243 4.2021484 -9.385803 9.385803 -9.385803l0 0c2.4893188 0 4.876587 0.9888611 6.63678 2.7490234c1.7601929 1.7601929 2.7490845 4.147522 2.7490845 6.63678l0 0c0 5.183655 -4.2022095 9.385864 -9.385864 9.385864l0 0c-5.183655 0 -9.385803 -4.2022095 -9.385803 -9.385864z" fill-rule="evenodd"/><path fill="#595959" d="m878.8268 132.25197l0 0c0 -5.183647 4.2021484 -9.385826 9.385803 -9.385826l0 0c2.4893188 0 4.876587 0.9888611 6.63678 2.7490463c1.7601929 1.7601852 2.7490845 4.1475067 2.7490845 6.63678l0 0c0 5.183655 -4.2022095 9.385834 -9.385864 9.385834l0 0c-5.183655 0 -9.385803 -4.202179 -9.385803 -9.385834z" fill-rule="evenodd"/><path stroke="#595959" stroke-width="2.0" stroke-linejoin="round" stroke-linecap="butt" d="m878.8268 132.25197l0 0c0 -5.183647 4.2021484 -9.385826 9.385803 -9.385826l0 0c2.4893188 0 4.876587 0.9888611 6.63678 2.7490463c1.7601929 1.7601852 2.7490845 4.1475067 2.7490845 6.63678l0 0c0 5.183655 -4.2022095 9.385834 -9.385864 9.385834l0 0c-5.183655 0 -9.385803 -4.202179 -9.385803 -9.385834z" fill-rule="evenodd"/><path fill="#595959" d="m878.8268 321.22833l0 0c0 -5.1836243 4.2021484 -9.385803 9.385803 -9.385803l0 0c2.4893188 0 4.876587 0.9888611 6.63678 2.7490234c1.7601929 1.7601929 2.7490845 4.147522 2.7490845 6.63678l0 0c0 5.183655 -4.2022095 9.385834 -9.385864 9.385834l0 0c-5.183655 0 -9.385803 -4.202179 -9.385803 -9.385834z" fill-rule="evenodd"/><path stroke="#595959" stroke-width="2.0" stroke-linejoin="round" stroke-linecap="butt" d="m878.8268 321.22833l0 0c0 -5.1836243 4.2021484 -9.385803 9.385803 -9.385803l0 0c2.4893188 0 4.876587 0.9888611 6.63678 2.7490234c1.7601929 1.7601929 2.7490845 4.147522 2.7490845 6.63678l0 0c0 5.183655 -4.2022095 9.385834 -9.385864 9.385834l0 0c-5.183655 0 -9.385803 -4.202179 -9.385803 -9.385834z" fill-rule="evenodd"/><path fill="#595959" d="m878.8268 510.2047l0 0c0 -5.1836243 4.2021484 -9.385803 9.385803 -9.385803l0 0c2.4893188 0 4.876587 0.9888611 6.63678 2.7490234c1.7601929 1.7601929 2.7490845 4.147522 2.7490845 6.63678l0 0c0 5.183655 -4.2022095 9.385864 -9.385864 9.385864l0 0c-5.183655 0 -9.385803 -4.2022095 -9.385803 -9.385864z" fill-rule="evenodd"/><path stroke="#595959" stroke-width="2.0" stroke-linejoin="round" stroke-linecap="butt" d="m878.8268 510.2047l0 0c0 -5.1836243 4.2021484 -9.385803 9.385803 -9.385803l0 0c2.4893188 0 4.876587 0.9888611 6.63678 2.7490234c1.7601929 1.7601929 2.7490845 4.147522 2.7490845 6.63678l0 0c0 5.183655 -4.2022095 9.385864 -9.385864 9.385864l0 0c-5.183655 0 -9.385803 -4.2022095 -9.385803 -9.385864z" fill-rule="evenodd"/><path fill="#595959" d="m1067.8031 132.25197l0 0c0 -5.183647 4.2022705 -9.385826 9.385864 -9.385826l0 0c2.4892578 0 4.876587 0.9888611 6.636841 2.7490463c1.7601318 1.7601852 2.7490234 4.1475067 2.7490234 6.63678l0 0c0 5.183655 -4.2021484 9.385834 -9.385864 9.385834l0 0c-5.1835938 0 -9.385864 -4.202179 -9.385864 -9.385834z" fill-rule="evenodd"/><path stroke="#595959" stroke-width="2.0" stroke-linejoin="round" stroke-linecap="butt" d="m1067.8031 132.25197l0 0c0 -5.183647 4.2022705 -9.385826 9.385864 -9.385826l0 0c2.4892578 0 4.876587 0.9888611 6.636841 2.7490463c1.7601318 1.7601852 2.7490234 4.1475067 2.7490234 6.63678l0 0c0 5.183655 -4.2021484 9.385834 -9.385864 9.385834l0 0c-5.1835938 0 -9.385864 -4.202179 -9.385864 -9.385834z" fill-rule="evenodd"/><path fill="#595959" d="m1067.8031 321.22833l0 0c0 -5.1836243 4.2022705 -9.385803 9.385864 -9.385803l0 0c2.4892578 0 4.876587 0.9888611 6.636841 2.7490234c1.7601318 1.7601929 2.7490234 4.147522 2.7490234 6.63678l0 0c0 5.183655 -4.2021484 9.385834 -9.385864 9.385834l0 0c-5.1835938 0 -9.385864 -4.202179 -9.385864 -9.385834z" fill-rule="evenodd"/><path stroke="#595959" stroke-width="2.0" stroke-linejoin="round" stroke-linecap="butt" d="m1067.8031 321.22833l0 0c0 -5.1836243 4.2022705 -9.385803 9.385864 -9.385803l0 0c2.4892578 0 4.876587 0.9888611 6.636841 2.7490234c1.7601318 1.7601929 2.7490234 4.147522 2.7490234 6.63678l0 0c0 5.183655 -4.2021484 9.385834 -9.385864 9.385834l0 0c-5.1835938 0 -9.385864 -4.202179 -9.385864 -9.385834z" fill-rule="evenodd"/><path fill="#595959" d="m1067.8031 510.2047l0 0c0 -5.1836243 4.2022705 -9.385803 9.385864 -9.385803l0 0c2.4892578 0 4.876587 0.9888611 6.636841 2.7490234c1.7601318 1.7601929 2.7490234 4.147522 2.7490234 6.63678l0 0c0 5.183655 -4.2021484 9.385864 -9.385864 9.385864l0 0c-5.1835938 0 -9.385864 -4.2022095 -9.385864 -9.385864z" fill-rule="evenodd"/><path stroke="#595959" stroke-width="2.0" stroke-linejoin="round" stroke-linecap="butt" d="m1067.8031 510.2047l0 0c0 -5.1836243 4.2022705 -9.385803 9.385864 -9.385803l0 0c2.4892578 0 4.876587 0.9888611 6.636841 2.7490234c1.7601318 1.7601929 2.7490234 4.147522 2.7490234 6.63678l0 0c0 5.183655 -4.2021484 9.385864 -9.385864 9.385864l0 0c-5.1835938 0 -9.385864 -4.2022095 -9.385864 -9.385864z" fill-rule="evenodd"/><path fill="#ffffff" d="m1162.2914 226.80315l0 0c0 -5.1836395 4.2021484 -9.3858185 9.385742 -9.3858185l0 0c2.4892578 0 4.876587 0.9888611 6.636841 2.7490387c1.7601318 1.7601776 2.7490234 4.1475067 2.7490234 6.63678l0 0c0 5.183655 -4.2021484 9.385834 -9.385864 9.385834l0 0c-5.1835938 0 -9.385742 -4.202179 -9.385742 -9.385834z" fill-rule="evenodd"/><path stroke="#595959" stroke-width="2.0" stroke-linejoin="round" stroke-linecap="butt" d="m1162.2914 226.80315l0 0c0 -5.1836395 4.2021484 -9.3858185 9.385742 -9.3858185l0 0c2.4892578 0 4.876587 0.9888611 6.636841 2.7490387c1.7601318 1.7601776 2.7490234 4.1475067 2.7490234 6.63678l0 0c0 5.183655 -4.2021484 9.385834 -9.385864 9.385834l0 0c-5.1835938 0 -9.385742 -4.202179 -9.385742 -9.385834z" fill-rule="evenodd"/><path fill="#ffffff" d="m973.3779 604.69293l0 0c0 -5.183655 4.2022095 -9.385864 9.385864 -9.385864l0 0c2.4892578 0 4.876587 0.9888916 6.63678 2.7490845c1.7601929 1.7601929 2.7490234 4.147461 2.7490234 6.63678l0 0c0 5.183655 -4.2021484 9.385803 -9.385803 9.385803l0 0c-5.183655 0 -9.385864 -4.2021484 -9.385864 -9.385803z" fill-rule="evenodd"/><path stroke="#595959" stroke-width="2.0" stroke-linejoin="round" stroke-linecap="butt" d="m973.3779 604.69293l0 0c0 -5.183655 4.2022095 -9.385864 9.385864 -9.385864l0 0c2.4892578 0 4.876587 0.9888916 6.63678 2.7490845c1.7601929 1.7601929 2.7490234 4.147461 2.7490234 6.63678l0 0c0 5.183655 -4.2021484 9.385803 -9.385803 9.385803l0 0c-5.183655 0 -9.385864 -4.2021484 -9.385864 -9.385803z" fill-rule="evenodd"/><path fill="#ffffff" d="m784.46454 226.80315l0 0c0 -5.1836395 4.2022095 -9.3858185 9.385864 -9.3858185l0 0c2.4892578 0 4.876587 0.9888611 6.63678 2.7490387c1.7601929 1.7601776 2.7490234 4.1475067 2.7490234 6.63678l0 0c0 5.183655 -4.2021484 9.385834 -9.385803 9.385834l0 0c-5.183655 0 -9.385864 -4.202179 -9.385864 -9.385834z" fill-rule="evenodd"/><path stroke="#595959" stroke-width="2.0" stroke-linejoin="round" stroke-linecap="butt" d="m784.46454 226.80315l0 0c0 -5.1836395 4.2022095 -9.3858185 9.385864 -9.3858185l0 0c2.4892578 0 4.876587 0.9888611 6.63678 2.7490387c1.7601929 1.7601776 2.7490234 4.1475067 2.7490234 6.63678l0 0c0 5.183655 -4.2021484 9.385834 -9.385803 9.385834l0 0c-5.183655 0 -9.385864 -4.202179 -9.385864 -9.385834z" fill-rule="evenodd"/><path fill="#ffffff" d="m784.40155 415.84253l0 0c0 -5.183655 4.2022095 -9.385834 9.385864 -9.385834l0 0c2.4892578 0 4.876587 0.9888611 6.63678 2.749054c1.7601929 1.7601624 2.7490234 4.1474915 2.7490234 6.63678l0 0c0 5.1836243 -4.2021484 9.385803 -9.385803 9.385803l0 0c-5.183655 0 -9.385864 -4.202179 -9.385864 -9.385803z" fill-rule="evenodd"/><path stroke="#595959" stroke-width="2.0" stroke-linejoin="round" stroke-linecap="butt" d="m784.40155 415.84253l0 0c0 -5.183655 4.2022095 -9.385834 9.385864 -9.385834l0 0c2.4892578 0 4.876587 0.9888611 6.63678 2.749054c1.7601929 1.7601624 2.7490234 4.1474915 2.7490234 6.63678l0 0c0 5.1836243 -4.2021484 9.385803 -9.385803 9.385803l0 0c-5.183655 0 -9.385864 -4.202179 -9.385864 -9.385803z" fill-rule="evenodd"/><path fill="#ffffff" d="m973.3779 226.86613l0 0c0 -5.1836395 4.2022095 -9.3858185 9.385864 -9.3858185l0 0c2.4892578 0 4.876587 0.9888611 6.63678 2.7490387c1.7601929 1.7601929 2.7490234 4.1475067 2.7490234 6.63678l0 0c0 5.183655 -4.2021484 9.385834 -9.385803 9.385834l0 0c-5.183655 0 -9.385864 -4.202179 -9.385864 -9.385834z" fill-rule="evenodd"/><path stroke="#595959" stroke-width="2.0" stroke-linejoin="round" stroke-linecap="butt" d="m973.3779 226.86613l0 0c0 -5.1836395 4.2022095 -9.3858185 9.385864 -9.3858185l0 0c2.4892578 0 4.876587 0.9888611 6.63678 2.7490387c1.7601929 1.7601929 2.7490234 4.1475067 2.7490234 6.63678l0 0c0 5.183655 -4.2021484 9.385834 -9.385803 9.385834l0 0c-5.183655 0 -9.385864 -4.202179 -9.385864 -9.385834z" fill-rule="evenodd"/><path fill="#ffffff" d="m973.4409 415.77954l0 0c0 -5.183655 4.2022095 -9.385834 9.385864 -9.385834l0 0c2.4892578 0 4.876587 0.9888611 6.63678 2.7490234c1.7601929 1.7601929 2.7490234 4.147522 2.7490234 6.6368103l0 0c0 5.1836243 -4.2021484 9.385803 -9.385803 9.385803l0 0c-5.183655 0 -9.385864 -4.202179 -9.385864 -9.385803z" fill-rule="evenodd"/><path stroke="#595959" stroke-width="2.0" stroke-linejoin="round" stroke-linecap="butt" d="m973.4409 415.77954l0 0c0 -5.183655 4.2022095 -9.385834 9.385864 -9.385834l0 0c2.4892578 0 4.876587 0.9888611 6.63678 2.7490234c1.7601929 1.7601929 2.7490234 4.147522 2.7490234 6.6368103l0 0c0 5.1836243 -4.2021484 9.385803 -9.385803 9.385803l0 0c-5.183655 0 -9.385864 -4.202179 -9.385864 -9.385803z" fill-rule="evenodd"/><path fill="#ffffff" d="m784.40155 37.76378l0 0c0 -5.183647 4.2022095 -9.385826 9.385864 -9.385826l0 0c2.4892578 0 4.876587 0.9888611 6.63678 2.7490444c1.7601929 1.7601833 2.7490234 4.147505 2.7490234 6.6367817l0 0c0 5.183651 -4.2021484 9.385826 -9.385803 9.385826l0 0c-5.183655 0 -9.385864 -4.202175 -9.385864 -9.385826z" fill-rule="evenodd"/><path stroke="#595959" stroke-width="2.0" stroke-linejoin="round" stroke-linecap="butt" d="m784.40155 37.76378l0 0c0 -5.183647 4.2022095 -9.385826 9.385864 -9.385826l0 0c2.4892578 0 4.876587 0.9888611 6.63678 2.7490444c1.7601929 1.7601833 2.7490234 4.147505 2.7490234 6.6367817l0 0c0 5.183651 -4.2021484 9.385826 -9.385803 9.385826l0 0c-5.183655 0 -9.385864 -4.202175 -9.385864 -9.385826z" fill-rule="evenodd"/><path fill="#ffffff" d="m614.19684 415.77954l0 0c0 -5.183655 -4.2021484 -9.385834 -9.385803 -9.385834l0 0c-2.4892578 0 -4.876587 0.9888611 -6.63678 2.7490234c-1.7601929 1.7601929 -2.7490845 4.147522 -2.7490845 6.6368103l0 0c0 5.1836243 4.2022095 9.385803 9.385864 9.385803l0 0c5.183655 0 9.385803 -4.202179 9.385803 -9.385803z" fill-rule="evenodd"/><path stroke="#595959" stroke-width="2.0" stroke-linejoin="round" stroke-linecap="butt" d="m614.19684 415.77954l0 0c0 -5.183655 -4.2021484 -9.385834 -9.385803 -9.385834l0 0c-2.4892578 0 -4.876587 0.9888611 -6.63678 2.7490234c-1.7601929 1.7601929 -2.7490845 4.147522 -2.7490845 6.6368103l0 0c0 5.1836243 4.2022095 9.385803 9.385864 9.385803l0 0c5.183655 0 9.385803 -4.202179 9.385803 -9.385803z" fill-rule="evenodd"/><path fill="#ead1dc" d="m321.28348 510.3622l-188.9764 0l0 188.97635l188.9764 0z" fill-rule="evenodd"/><path stroke="#595959" stroke-width="2.0" stroke-linejoin="round" stroke-linecap="butt" d="m321.28348 510.3622l-188.9764 0l0 188.97635l188.9764 0z" fill-rule="evenodd"/><path fill="#ffffff" d="m236.1811 604.9134l0 0c0 -5.183655 -4.202179 -9.385803 -9.385834 -9.385803l0 0c-2.489273 0 -4.876602 0.98883057 -6.63678 2.7490234c-1.7601776 1.7601929 -2.7490387 4.147522 -2.7490387 6.63678l0 0c0 5.183655 4.202179 9.385803 9.3858185 9.385803l0 0c5.183655 0 9.385834 -4.2021484 9.385834 -9.385803z" fill-rule="evenodd"/><path stroke="#595959" stroke-width="2.0" stroke-linejoin="round" stroke-linecap="butt" d="m236.1811 604.9134l0 0c0 -5.183655 -4.202179 -9.385803 -9.385834 -9.385803l0 0c-2.489273 0 -4.876602 0.98883057 -6.63678 2.7490234c-1.7601776 1.7601929 -2.7490387 4.147522 -2.7490387 6.63678l0 0c0 5.183655 4.202179 9.385803 9.3858185 9.385803l0 0c5.183655 0 9.385834 -4.2021484 9.385834 -9.385803z" fill-rule="evenodd"/><path fill="#d0e0e3" d="m510.22833 510.4252l-188.97635 0l0 188.97635l188.97635 0z" fill-rule="evenodd"/><path stroke="#595959" stroke-width="2.0" stroke-linejoin="round" stroke-linecap="butt" d="m510.22833 510.4252l-188.97635 0l0 188.97635l188.97635 0z" fill-rule="evenodd"/><path fill="#595959" d="m519.6772 510.3622l0 0c0 -5.183655 -4.2022095 -9.385834 -9.385834 -9.385834l0 0c-2.4892883 0 -4.8766174 0.9888611 -6.63678 2.749054c-1.7601929 1.7601624 -2.749054 4.1474915 -2.749054 6.63678l0 0c0 5.1836243 4.202179 9.385834 9.385834 9.385834l0 0c5.1836243 0 9.385834 -4.2022095 9.385834 -9.385834z" fill-rule="evenodd"/><path stroke="#595959" stroke-width="2.0" stroke-linejoin="round" stroke-linecap="butt" d="m519.6772 510.3622l0 0c0 -5.183655 -4.2022095 -9.385834 -9.385834 -9.385834l0 0c-2.4892883 0 -4.8766174 0.9888611 -6.63678 2.749054c-1.7601929 1.7601624 -2.749054 4.1474915 -2.749054 6.63678l0 0c0 5.1836243 4.202179 9.385834 9.385834 9.385834l0 0c5.1836243 0 9.385834 -4.2022095 9.385834 -9.385834z" fill-rule="evenodd"/><path fill="#595959" d="m519.6772 699.33856l0 0c0 -5.183655 -4.2022095 -9.385803 -9.385834 -9.385803l0 0c-2.4892883 0 -4.8766174 0.98883057 -6.63678 2.7490234c-1.7601929 1.7601929 -2.749054 4.147522 -2.749054 6.63678l0 0c0 5.183655 4.202179 9.385864 9.385834 9.385864l0 0c5.1836243 0 9.385834 -4.2022095 9.385834 -9.385864z" fill-rule="evenodd"/><path stroke="#595959" stroke-width="2.0" stroke-linejoin="round" stroke-linecap="butt" d="m519.6772 699.33856l0 0c0 -5.183655 -4.2022095 -9.385803 -9.385834 -9.385803l0 0c-2.4892883 0 -4.8766174 0.98883057 -6.63678 2.7490234c-1.7601929 1.7601929 -2.749054 4.147522 -2.749054 6.63678l0 0c0 5.183655 4.202179 9.385864 9.385834 9.385864l0 0c5.1836243 0 9.385834 -4.2022095 9.385834 -9.385864z" fill-rule="evenodd"/><path fill="#595959" d="m330.70078 510.3622l0 0c0 -5.183655 -4.202179 -9.385834 -9.385803 -9.385834l0 0c-2.4892883 0 -4.8766174 0.9888611 -6.63678 2.749054c-1.7601929 1.7601624 -2.749054 4.1474915 -2.749054 6.63678l0 0c0 5.1836243 4.202179 9.385834 9.385834 9.385834l0 0c5.1836243 0 9.385803 -4.2022095 9.385803 -9.385834z" fill-rule="evenodd"/><path stroke="#595959" stroke-width="2.0" stroke-linejoin="round" stroke-linecap="butt" d="m330.70078 510.3622l0 0c0 -5.183655 -4.202179 -9.385834 -9.385803 -9.385834l0 0c-2.4892883 0 -4.8766174 0.9888611 -6.63678 2.749054c-1.7601929 1.7601624 -2.749054 4.1474915 -2.749054 6.63678l0 0c0 5.1836243 4.202179 9.385834 9.385834 9.385834l0 0c5.1836243 0 9.385803 -4.2022095 9.385803 -9.385834z" fill-rule="evenodd"/><path fill="#595959" d="m330.70078 699.33856l0 0c0 -5.183655 -4.202179 -9.385803 -9.385803 -9.385803l0 0c-2.4892883 0 -4.8766174 0.98883057 -6.63678 2.7490234c-1.7601929 1.7601929 -2.749054 4.147522 -2.749054 6.63678l0 0c0 5.183655 4.202179 9.385864 9.385834 9.385864l0 0c5.1836243 0 9.385803 -4.2022095 9.385803 -9.385864z" fill-rule="evenodd"/><path stroke="#595959" stroke-width="2.0" stroke-linejoin="round" stroke-linecap="butt" d="m330.70078 699.33856l0 0c0 -5.183655 -4.202179 -9.385803 -9.385803 -9.385803l0 0c-2.4892883 0 -4.8766174 0.98883057 -6.63678 2.7490234c-1.7601929 1.7601929 -2.749054 4.147522 -2.749054 6.63678l0 0c0 5.183655 4.202179 9.385864 9.385834 9.385864l0 0c5.1836243 0 9.385803 -4.2022095 9.385803 -9.385864z" fill-rule="evenodd"/><path fill="#ffffff" d="m425.063 604.9134l0 0c0 -5.183655 -4.202179 -9.385803 -9.385834 -9.385803l0 0c-2.4892578 0 -4.876587 0.98883057 -6.63678 2.7490234c-1.7601624 1.7601929 -2.7490234 4.147522 -2.7490234 6.63678l0 0c0 5.183655 4.202179 9.385803 9.385803 9.385803l0 0c5.183655 0 9.385834 -4.2021484 9.385834 -9.385803z" fill-rule="evenodd"/><path stroke="#595959" stroke-width="2.0" stroke-linejoin="round" stroke-linecap="butt" d="m425.063 604.9134l0 0c0 -5.183655 -4.202179 -9.385803 -9.385834 -9.385803l0 0c-2.4892578 0 -4.876587 0.98883057 -6.63678 2.7490234c-1.7601624 1.7601929 -2.7490234 4.147522 -2.7490234 6.63678l0 0c0 5.183655 4.202179 9.385803 9.385803 9.385803l0 0c5.183655 0 9.385834 -4.2021484 9.385834 -9.385803z" fill-rule="evenodd"/><path fill="#d0e0e3" d="m132.32283 699.2756l-94.48819 -94.48816l94.48819 -94.48819z" fill-rule="evenodd"/><path stroke="#595959" stroke-width="2.0" stroke-linejoin="round" stroke-linecap="butt" d="m132.32283 699.2756l-94.48819 -94.48816l94.48819 -94.48819z" fill-rule="evenodd"/><path fill="#595959" d="m122.874016 510.2362l0 0c0 -5.1836243 4.202179 -9.385803 9.385826 -9.385803l0 0c2.489273 0 4.876602 0.9888611 6.63678 2.7490234c1.7601929 1.7601929 2.749054 4.147522 2.749054 6.63678l0 0c0 5.183655 -4.202179 9.385864 -9.385834 9.385864l0 0c-5.183647 0 -9.385826 -4.2022095 -9.385826 -9.385864z" fill-rule="evenodd"/><path stroke="#595959" stroke-width="2.0" stroke-linejoin="round" stroke-linecap="butt" d="m122.874016 510.2362l0 0c0 -5.1836243 4.202179 -9.385803 9.385826 -9.385803l0 0c2.489273 0 4.876602 0.9888611 6.63678 2.7490234c1.7601929 1.7601929 2.749054 4.147522 2.749054 6.63678l0 0c0 5.183655 -4.202179 9.385864 -9.385834 9.385864l0 0c-5.183647 0 -9.385826 -4.2022095 -9.385826 -9.385864z" fill-rule="evenodd"/><path fill="#595959" d="m122.874016 699.2126l0 0c0 -5.183655 4.202179 -9.385803 9.385826 -9.385803l0 0c2.489273 0 4.876602 0.98883057 6.63678 2.7490234c1.7601929 1.7601929 2.749054 4.147522 2.749054 6.63678l0 0c0 5.183655 -4.202179 9.385864 -9.385834 9.385864l0 0c-5.183647 0 -9.385826 -4.2022095 -9.385826 -9.385864z" fill-rule="evenodd"/><path stroke="#595959" stroke-width="2.0" stroke-linejoin="round" stroke-linecap="butt" d="m122.874016 699.2126l0 0c0 -5.183655 4.202179 -9.385803 9.385826 -9.385803l0 0c2.489273 0 4.876602 0.98883057 6.63678 2.7490234c1.7601929 1.7601929 2.749054 4.147522 2.749054 6.63678l0 0c0 5.183655 -4.202179 9.385864 -9.385834 9.385864l0 0c-5.183647 0 -9.385826 -4.2022095 -9.385826 -9.385864z" fill-rule="evenodd"/><path fill="#ffffff" d="m28.385826 604.7874l0 0c0 -5.183655 4.202179 -9.385864 9.385826 -9.385864l0 0c2.489277 0 4.8765984 0.9888916 6.6367836 2.7490845c1.7601852 1.7601929 2.7490463 4.147461 2.7490463 6.63678l0 0c0 5.183655 -4.202179 9.385803 -9.38583 9.385803l0 0c-5.183647 0 -9.385826 -4.2021484 -9.385826 -9.385803z" fill-rule="evenodd"/><path stroke="#595959" stroke-width="2.0" stroke-linejoin="round" stroke-linecap="butt" d="m28.385826 604.7874l0 0c0 -5.183655 4.202179 -9.385864 9.385826 -9.385864l0 0c2.489277 0 4.8765984 0.9888916 6.6367836 2.7490845c1.7601852 1.7601929 2.7490463 4.147461 2.7490463 6.63678l0 0c0 5.183655 -4.202179 9.385803 -9.38583 9.385803l0 0c-5.183647 0 -9.385826 -4.2021484 -9.385826 -9.385803z" fill-rule="evenodd"/></g></svg>