<svg version="1.1" viewBox="0.0 0.0 491.33858267716533 604.7244094488188" fill="none" stroke="none" stroke-linecap="square" stroke-miterlimit="10" xmlns:xlink="http://www.w3.org/1999/xlink" xmlns="http://www.w3.org/2000/svg"><clipPath id="p.0"><path d="m0 0l491.3386 0l0 604.7244l-491.3386 0l0 -604.7244z" clip-rule="nonzero"/></clipPath><g clip-path="url(#p.0)"><path fill="#000000" fill-opacity="0.0" d="m0 0l491.3386 0l0 604.7244l-491.3386 0z" fill-rule="evenodd"/><path fill="#fce5cd" d="m9.425197 113.38189l94.48819 0l0 94.48818l-94.48819 0z" fill-rule="evenodd"/><path stroke="#595959" stroke-width="1.0" stroke-linejoin="round" stroke-linecap="butt" d="m9.425197 113.38189l94.48819 0l0 94.48818l-94.48819 0z" fill-rule="evenodd"/><path fill="#fce5cd" d="m103.92913 113.38189l94.4882 0l0 94.48818l-94.4882 0z" fill-rule="evenodd"/><path stroke="#595959" stroke-width="1.0" stroke-linejoin="round" stroke-linecap="butt" d="m103.92913 113.38189l94.4882 0l0 94.48818l-94.4882 0z" fill-rule="evenodd"/><path fill="#d9d2e9" d="m103.92913 207.87796l94.4882 0l0 94.48819l-94.4882 0z" fill-rule="evenodd"/><path stroke="#595959" stroke-width="1.0" stroke-linejoin="round" stroke-linecap="butt" d="m103.92913 207.87796l94.4882 0l0 94.48819l-94.4882 0z" fill-rule="evenodd"/><path fill="#f4cccc" d="m9.440945 207.87796l94.48819 0l0 94.48819l-94.48819 0z" fill-rule="evenodd"/><path stroke="#ff0000" stroke-width="3.0" stroke-linejoin="round" stroke-linecap="butt" d="m9.440945 207.87796l94.48819 0l0 94.48819l-94.48819 0z" fill-rule="evenodd"/><path fill="#ead1dc" d="m292.92126 18.885826l94.48819 0l0 94.48819l-94.48819 0z" fill-rule="evenodd"/><path stroke="#595959" stroke-width="1.0" stroke-linejoin="round" stroke-linecap="butt" d="m292.92126 18.885826l94.48819 0l0 94.48819l-94.48819 0z" fill-rule="evenodd"/><path fill="#fce5cd" d="m103.92913 18.885826l94.4882 0l0 94.48819l-94.4882 0z" fill-rule="evenodd"/><path stroke="#595959" stroke-width="1.0" stroke-linejoin="round" stroke-linecap="butt" d="m103.92913 18.885826l94.4882 0l0 94.48819l-94.4882 0z" fill-rule="evenodd"/><path fill="#f4cccc" d="m198.43307 18.885826l94.48819 0l0 94.48819l-94.48819 0z" fill-rule="evenodd"/><path stroke="#ff0000" stroke-width="3.0" stroke-linejoin="round" stroke-linecap="butt" d="m198.43307 18.885826l94.48819 0l0 94.48819l-94.48819 0z" fill-rule="evenodd"/><path fill="#d9d2e9" d="m198.43307 302.3504l94.48819 0l0 94.48819l-94.48819 0z" fill-rule="evenodd"/><path stroke="#595959" stroke-width="1.0" stroke-linejoin="round" stroke-linecap="butt" d="m198.43307 302.3504l94.48819 0l0 94.48819l-94.48819 0z" fill-rule="evenodd"/><path fill="#d9ead3" d="m292.92126 207.8622l94.48819 0l0 94.488205l-94.48819 0z" fill-rule="evenodd"/><path stroke="#595959" stroke-width="1.0" stroke-linejoin="round" stroke-linecap="butt" d="m292.92126 207.8622l94.48819 0l0 94.488205l-94.48819 0z" fill-rule="evenodd"/><path fill="#d9d2e9" d="m198.43307 207.8622l94.48819 0l0 94.488205l-94.48819 0z" fill-rule="evenodd"/><path stroke="#ff0000" stroke-width="3.0" stroke-linejoin="round" stroke-linecap="butt" d="m198.43307 207.8622l94.48819 0l0 94.488205l-94.48819 0z" fill-rule="evenodd"/><path fill="#d9ead3" d="m292.92126 302.3504l94.48819 0l0 94.48819l-94.48819 0z" fill-rule="evenodd"/><path stroke="#595959" stroke-width="1.0" stroke-linejoin="round" stroke-linecap="butt" d="m292.92126 302.3504l94.48819 0l0 94.48819l-94.48819 0z" fill-rule="evenodd"/><path fill="#d0e0e3" d="m292.937 396.8386l94.48819 0l0 94.48819l-94.48819 0z" fill-rule="evenodd"/><path stroke="#595959" stroke-width="1.0" stroke-linejoin="round" stroke-linecap="butt" d="m292.937 396.8386l94.48819 0l0 94.48819l-94.48819 0z" fill-rule="evenodd"/><path fill="#d9ead3" d="m387.40945 302.3504l94.48819 0l0 94.48819l-94.48819 0z" fill-rule="evenodd"/><path stroke="#595959" stroke-width="1.0" stroke-linejoin="round" stroke-linecap="butt" d="m387.40945 302.3504l94.48819 0l0 94.48819l-94.48819 0z" fill-rule="evenodd"/><path fill="#e6b8af" d="m387.4252 396.8386l94.48819 0l0 94.48819l-94.48819 0z" fill-rule="evenodd"/><path stroke="#980000" stroke-width="3.0" stroke-linejoin="round" stroke-linecap="butt" d="m387.4252 396.8386l94.48819 0l0 94.48819l-94.48819 0z" fill-rule="evenodd"/><path fill="#c9daf8" d="m103.944885 396.85434l94.48819 0l0 94.48819l-94.48819 0z" fill-rule="evenodd"/><path stroke="#595959" stroke-width="1.0" stroke-linejoin="round" stroke-linecap="butt" d="m103.944885 396.85434l94.48819 0l0 94.48819l-94.48819 0z" fill-rule="evenodd"/><path fill="#c9daf8" d="m9.456693 491.3504l94.48819 0l0 94.48816l-94.48819 0z" fill-rule="evenodd"/><path stroke="#595959" stroke-width="1.0" stroke-linejoin="round" stroke-linecap="butt" d="m9.456693 491.3504l94.48819 0l0 94.48816l-94.48819 0z" fill-rule="evenodd"/><path fill="#c9daf8" d="m9.456693 396.85434l94.48819 0l0 94.48819l-94.48819 0z" fill-rule="evenodd"/><path stroke="#ff0000" stroke-width="3.0" stroke-linejoin="round" stroke-linecap="butt" d="m9.456693 396.85434l94.48819 0l0 94.48819l-94.48819 0z" fill-rule="evenodd"/><path fill="#d0e0e3" d="m292.937 491.32678l94.48819 0l0 94.48816l-94.48819 0z" fill-rule="evenodd"/><path stroke="#595959" stroke-width="1.0" stroke-linejoin="round" stroke-linecap="butt" d="m292.937 491.32678l94.48819 0l0 94.48816l-94.48819 0z" fill-rule="evenodd"/><path fill="#e6b8af" d="m387.4252 491.32678l94.48819 0l0 94.48816l-94.48819 0z" fill-rule="evenodd"/><path stroke="#980000" stroke-width="3.0" stroke-linejoin="round" stroke-linecap="butt" d="m387.4252 491.32678l94.48819 0l0 94.48816l-94.48819 0z" fill-rule="evenodd"/><path fill="#d9d2e9" d="m103.92913 302.37402l94.4882 0l0 94.48819l-94.4882 0z" fill-rule="evenodd"/><path stroke="#595959" stroke-width="1.0" stroke-linejoin="round" stroke-linecap="butt" d="m103.92913 302.37402l94.4882 0l0 94.48819l-94.4882 0z" fill-rule="evenodd"/><path fill="#f4cccc" d="m9.440945 302.37402l94.48819 0l0 94.48819l-94.48819 0z" fill-rule="evenodd"/><path stroke="#ff0000" stroke-width="3.0" stroke-linejoin="round" stroke-linecap="butt" d="m9.440945 302.37402l94.48819 0l0 94.48819l-94.48819 0z" fill-rule="evenodd"/><path fill="#000000" fill-opacity="0.0" d="m292.92126 113.374016l94.48819 0l0 94.48818l-94.48819 0z" fill-rule="evenodd"/><path stroke="#595959" stroke-width="1.0" stroke-linejoin="round" stroke-linecap="butt" d="m292.92126 113.374016l94.48819 0l0 94.48818l-94.48819 0z" fill-rule="evenodd"/><path fill="#f4cccc" d="m198.43307 113.374016l94.48819 0l0 94.48818l-94.48819 0z" fill-rule="evenodd"/><path stroke="#ff0000" stroke-width="3.0" stroke-linejoin="round" stroke-linecap="butt" d="m198.43307 113.374016l94.48819 0l0 94.48818l-94.48819 0z" fill-rule="evenodd"/><path fill="#fce5cd" d="m9.440945 18.885826l94.48819 0l0 94.48819l-94.48819 0z" fill-rule="evenodd"/><path stroke="#595959" stroke-width="1.0" stroke-linejoin="round" stroke-linecap="butt" d="m9.440945 18.885826l94.48819 0l0 94.48819l-94.48819 0z" fill-rule="evenodd"/><path fill="#000000" fill-opacity="0.0" d="m11.3307085 20.775747l90.67716 0l0 90.362206l-90.67716 0z" fill-rule="evenodd"/><path stroke="#000000" stroke-width="1.0" stroke-linejoin="round" stroke-linecap="butt" stroke-dasharray="4.0,3.0" d="m11.3307085 20.775747l90.67716 0l0 90.362206l-90.67716 0z" fill-rule="evenodd"/><path fill="#000000" fill-opacity="0.0" d="m11.3149605 20.775747l90.708664 0.40944862" fill-rule="evenodd"/><path stroke="#000000" stroke-width="1.0" stroke-linejoin="round" stroke-linecap="butt" d="m11.3149605 20.775747l90.708664 0.40944862" fill-rule="evenodd"/><path fill="#000000" fill-opacity="0.0" d="m11.3307085 111.13026l90.67716 0.37795258" fill-rule="evenodd"/><path stroke="#000000" stroke-width="1.0" stroke-linejoin="round" stroke-linecap="butt" d="m11.3307085 111.13026l90.67716 0.37795258" fill-rule="evenodd"/><path fill="#000000" fill-opacity="0.0" d="m105.8189 20.775747l90.67716 0l0 90.362206l-90.67716 0z" fill-rule="evenodd"/><path stroke="#000000" stroke-width="1.0" stroke-linejoin="round" stroke-linecap="butt" stroke-dasharray="4.0,3.0" d="m105.8189 20.775747l90.67716 0l0 90.362206l-90.67716 0z" fill-rule="evenodd"/><path fill="#000000" fill-opacity="0.0" d="m105.80315 20.775747l90.708664 0.40944862" fill-rule="evenodd"/><path stroke="#000000" stroke-width="1.0" stroke-linejoin="round" stroke-linecap="butt" d="m105.80315 20.775747l90.708664 0.40944862" fill-rule="evenodd"/><path fill="#000000" fill-opacity="0.0" d="m105.8189 111.13026l90.67716 0.37795258" fill-rule="evenodd"/><path stroke="#000000" stroke-width="1.0" stroke-linejoin="round" stroke-linecap="butt" d="m105.8189 111.13026l90.67716 0.37795258" fill-rule="evenodd"/><path fill="#f6b26b" d="m11.3149605 115.27181l90.67717 0l0 90.362206l-90.67717 0z" fill-rule="evenodd"/><path stroke="#000000" stroke-width="1.0" stroke-linejoin="round" stroke-linecap="butt" stroke-dasharray="4.0,3.0" d="m11.3149605 115.27181l90.67717 0l0 90.362206l-90.67717 0z" fill-rule="evenodd"/><path fill="#000000" fill-opacity="0.0" d="m11.299212 115.27181l90.708664 0.40944672" fill-rule="evenodd"/><path stroke="#000000" stroke-width="1.0" stroke-linejoin="round" stroke-linecap="butt" d="m11.299212 115.27181l90.708664 0.40944672" fill-rule="evenodd"/><path fill="#000000" fill-opacity="0.0" d="m11.3149605 205.62633l90.67717 0.37794495" fill-rule="evenodd"/><path stroke="#000000" stroke-width="1.0" stroke-linejoin="round" stroke-linecap="butt" d="m11.3149605 205.62633l90.67717 0.37794495" fill-rule="evenodd"/><path fill="#000000" fill-opacity="0.0" d="m105.8189 115.27181l90.67716 0l0 90.362206l-90.67716 0z" fill-rule="evenodd"/><path stroke="#000000" stroke-width="1.0" stroke-linejoin="round" stroke-linecap="butt" stroke-dasharray="4.0,3.0" d="m105.8189 115.27181l90.67716 0l0 90.362206l-90.67716 0z" fill-rule="evenodd"/><path fill="#000000" fill-opacity="0.0" d="m105.80315 115.27181l90.708664 0.40944672" fill-rule="evenodd"/><path stroke="#000000" stroke-width="1.0" stroke-linejoin="round" stroke-linecap="butt" d="m105.80315 115.27181l90.708664 0.40944672" fill-rule="evenodd"/><path fill="#000000" fill-opacity="0.0" d="m105.8189 205.62633l90.67716 0.37794495" fill-rule="evenodd"/><path stroke="#000000" stroke-width="1.0" stroke-linejoin="round" stroke-linecap="butt" d="m105.8189 205.62633l90.67716 0.37794495" fill-rule="evenodd"/><path fill="#000000" fill-opacity="0.0" d="m11.3307085 209.76787l90.67716 0l0 90.3622l-90.67716 0z" fill-rule="evenodd"/><path stroke="#000000" stroke-width="1.0" stroke-linejoin="round" stroke-linecap="butt" stroke-dasharray="4.0,3.0" d="m11.3307085 209.76787l90.67716 0l0 90.3622l-90.67716 0z" fill-rule="evenodd"/><path fill="#000000" fill-opacity="0.0" d="m11.3149605 209.76787l90.708664 0.40945435" fill-rule="evenodd"/><path stroke="#000000" stroke-width="1.0" stroke-linejoin="round" stroke-linecap="butt" d="m11.3149605 209.76787l90.708664 0.40945435" fill-rule="evenodd"/><path fill="#000000" fill-opacity="0.0" d="m11.3307085 300.12238l90.67716 0.3779602" fill-rule="evenodd"/><path stroke="#000000" stroke-width="1.0" stroke-linejoin="round" stroke-linecap="butt" d="m11.3307085 300.12238l90.67716 0.3779602" fill-rule="evenodd"/><path fill="#000000" fill-opacity="0.0" d="m105.8189 209.76787l90.67716 0l0 90.3622l-90.67716 0z" fill-rule="evenodd"/><path stroke="#000000" stroke-width="1.0" stroke-linejoin="round" stroke-linecap="butt" stroke-dasharray="4.0,3.0" d="m105.8189 209.76787l90.67716 0l0 90.3622l-90.67716 0z" fill-rule="evenodd"/><path fill="#000000" fill-opacity="0.0" d="m105.80315 209.76787l90.708664 0.40945435" fill-rule="evenodd"/><path stroke="#000000" stroke-width="1.0" stroke-linejoin="round" stroke-linecap="butt" d="m105.80315 209.76787l90.708664 0.40945435" fill-rule="evenodd"/><path fill="#000000" fill-opacity="0.0" d="m105.8189 300.12238l90.67716 0.3779602" fill-rule="evenodd"/><path stroke="#000000" stroke-width="1.0" stroke-linejoin="round" stroke-linecap="butt" d="m105.8189 300.12238l90.67716 0.3779602" fill-rule="evenodd"/><path fill="#e06666" d="m11.3307085 304.26395l90.67716 0l0 90.36218l-90.67716 0z" fill-rule="evenodd"/><path stroke="#000000" stroke-width="1.0" stroke-linejoin="round" stroke-linecap="butt" stroke-dasharray="4.0,3.0" d="m11.3307085 304.26395l90.67716 0l0 90.36218l-90.67716 0z" fill-rule="evenodd"/><path fill="#000000" fill-opacity="0.0" d="m11.3149605 304.26395l90.708664 0.40945435" fill-rule="evenodd"/><path stroke="#000000" stroke-width="1.0" stroke-linejoin="round" stroke-linecap="butt" d="m11.3149605 304.26395l90.708664 0.40945435" fill-rule="evenodd"/><path fill="#000000" fill-opacity="0.0" d="m11.3307085 394.61844l90.67716 0.3779602" fill-rule="evenodd"/><path stroke="#000000" stroke-width="1.0" stroke-linejoin="round" stroke-linecap="butt" d="m11.3307085 394.61844l90.67716 0.3779602" fill-rule="evenodd"/><path fill="#8e7cc3" d="m105.8189 304.26395l90.67716 0l0 90.36218l-90.67716 0z" fill-rule="evenodd"/><path stroke="#000000" stroke-width="1.0" stroke-linejoin="round" stroke-linecap="butt" stroke-dasharray="4.0,3.0" d="m105.8189 304.26395l90.67716 0l0 90.36218l-90.67716 0z" fill-rule="evenodd"/><path fill="#000000" fill-opacity="0.0" d="m105.80315 304.26395l90.708664 0.40945435" fill-rule="evenodd"/><path stroke="#000000" stroke-width="1.0" stroke-linejoin="round" stroke-linecap="butt" d="m105.80315 304.26395l90.708664 0.40945435" fill-rule="evenodd"/><path fill="#000000" fill-opacity="0.0" d="m105.8189 394.61844l90.67716 0.3779602" fill-rule="evenodd"/><path stroke="#000000" stroke-width="1.0" stroke-linejoin="round" stroke-linecap="butt" d="m105.8189 394.61844l90.67716 0.3779602" fill-rule="evenodd"/><path fill="#000000" fill-opacity="0.0" d="m200.32283 20.77559l90.708664 0l0 90.3937l-90.708664 0z" fill-rule="evenodd"/><path stroke="#000000" stroke-width="1.0" stroke-linejoin="round" stroke-linecap="butt" stroke-dasharray="4.0,3.0" d="m200.32283 20.77559l90.708664 0l0 90.3937l-90.708664 0z" fill-rule="evenodd"/><path fill="#000000" fill-opacity="0.0" d="m200.30708 20.77559l90.708664 0.31496048" fill-rule="evenodd"/><path stroke="#000000" stroke-width="1.0" stroke-linejoin="round" stroke-linecap="butt" d="m200.30708 20.77559l90.708664 0.31496048" fill-rule="evenodd"/><path fill="#000000" fill-opacity="0.0" d="m200.32283 111.122574l90.708664 0.31495667" fill-rule="evenodd"/><path stroke="#000000" stroke-width="1.0" stroke-linejoin="round" stroke-linecap="butt" d="m200.32283 111.122574l90.708664 0.31495667" fill-rule="evenodd"/><path fill="#e06666" d="m200.32283 115.26378l90.708664 0l0 90.39371l-90.708664 0z" fill-rule="evenodd"/><path stroke="#000000" stroke-width="1.0" stroke-linejoin="round" stroke-linecap="butt" stroke-dasharray="4.0,3.0" d="m200.32283 115.26378l90.708664 0l0 90.39371l-90.708664 0z" fill-rule="evenodd"/><path fill="#000000" fill-opacity="0.0" d="m200.30708 115.26378l90.708664 0.3149643" fill-rule="evenodd"/><path stroke="#000000" stroke-width="1.0" stroke-linejoin="round" stroke-linecap="butt" d="m200.30708 115.26378l90.708664 0.3149643" fill-rule="evenodd"/><path fill="#000000" fill-opacity="0.0" d="m200.32283 205.61076l90.708664 0.31495667" fill-rule="evenodd"/><path stroke="#000000" stroke-width="1.0" stroke-linejoin="round" stroke-linecap="butt" d="m200.32283 205.61076l90.708664 0.31495667" fill-rule="evenodd"/><path fill="#000000" fill-opacity="0.0" d="m200.32283 209.75197l90.708664 0l0 90.39369l-90.708664 0z" fill-rule="evenodd"/><path stroke="#000000" stroke-width="1.0" stroke-linejoin="round" stroke-linecap="butt" stroke-dasharray="4.0,3.0" d="m200.32283 209.75197l90.708664 0l0 90.39369l-90.708664 0z" fill-rule="evenodd"/><path fill="#000000" fill-opacity="0.0" d="m200.30708 209.75197l90.708664 0.31495667" fill-rule="evenodd"/><path stroke="#000000" stroke-width="1.0" stroke-linejoin="round" stroke-linecap="butt" d="m200.30708 209.75197l90.708664 0.31495667" fill-rule="evenodd"/><path fill="#000000" fill-opacity="0.0" d="m200.32283 300.09894l90.708664 0.31497192" fill-rule="evenodd"/><path stroke="#000000" stroke-width="1.0" stroke-linejoin="round" stroke-linecap="butt" d="m200.32283 300.09894l90.708664 0.31497192" fill-rule="evenodd"/><path fill="#000000" fill-opacity="0.0" d="m200.32283 304.24014l90.708664 0l0 90.39371l-90.708664 0z" fill-rule="evenodd"/><path stroke="#000000" stroke-width="1.0" stroke-linejoin="round" stroke-linecap="butt" stroke-dasharray="4.0,3.0" d="m200.32283 304.24014l90.708664 0l0 90.39371l-90.708664 0z" fill-rule="evenodd"/><path fill="#000000" fill-opacity="0.0" d="m200.30708 304.24014l90.708664 0.31497192" fill-rule="evenodd"/><path stroke="#000000" stroke-width="1.0" stroke-linejoin="round" stroke-linecap="butt" d="m200.30708 304.24014l90.708664 0.31497192" fill-rule="evenodd"/><path fill="#000000" fill-opacity="0.0" d="m200.32283 394.58713l90.708664 0.31497192" fill-rule="evenodd"/><path stroke="#000000" stroke-width="1.0" stroke-linejoin="round" stroke-linecap="butt" d="m200.32283 394.58713l90.708664 0.31497192" fill-rule="evenodd"/><path fill="#000000" fill-opacity="0.0" d="m294.81104 20.77559l90.70865 0l0 90.3937l-90.70865 0z" fill-rule="evenodd"/><path stroke="#000000" stroke-width="1.0" stroke-linejoin="round" stroke-linecap="butt" stroke-dasharray="4.0,3.0" d="m294.81104 20.77559l90.70865 0l0 90.3937l-90.70865 0z" fill-rule="evenodd"/><path fill="#000000" fill-opacity="0.0" d="m294.7953 20.77559l90.70865 0.31496048" fill-rule="evenodd"/><path stroke="#000000" stroke-width="1.0" stroke-linejoin="round" stroke-linecap="butt" d="m294.7953 20.77559l90.70865 0.31496048" fill-rule="evenodd"/><path fill="#000000" fill-opacity="0.0" d="m294.81104 111.122574l90.70865 0.31495667" fill-rule="evenodd"/><path stroke="#000000" stroke-width="1.0" stroke-linejoin="round" stroke-linecap="butt" d="m294.81104 111.122574l90.70865 0.31495667" fill-rule="evenodd"/><path fill="#c27ba0" d="m294.81104 115.26378l90.70865 0l0 90.39371l-90.70865 0z" fill-rule="evenodd"/><path stroke="#000000" stroke-width="1.0" stroke-linejoin="round" stroke-linecap="butt" stroke-dasharray="4.0,3.0" d="m294.81104 115.26378l90.70865 0l0 90.39371l-90.70865 0z" fill-rule="evenodd"/><path fill="#000000" fill-opacity="0.0" d="m294.7953 115.26378l90.70865 0.3149643" fill-rule="evenodd"/><path stroke="#000000" stroke-width="1.0" stroke-linejoin="round" stroke-linecap="butt" d="m294.7953 115.26378l90.70865 0.3149643" fill-rule="evenodd"/><path fill="#000000" fill-opacity="0.0" d="m294.81104 205.61076l90.70865 0.31495667" fill-rule="evenodd"/><path stroke="#000000" stroke-width="1.0" stroke-linejoin="round" stroke-linecap="butt" d="m294.81104 205.61076l90.70865 0.31495667" fill-rule="evenodd"/><path fill="#000000" fill-opacity="0.0" d="m294.81104 209.75197l90.70865 0l0 90.39369l-90.70865 0z" fill-rule="evenodd"/><path stroke="#000000" stroke-width="1.0" stroke-linejoin="round" stroke-linecap="butt" stroke-dasharray="4.0,3.0" d="m294.81104 209.75197l90.70865 0l0 90.39369l-90.70865 0z" fill-rule="evenodd"/><path fill="#000000" fill-opacity="0.0" d="m294.7953 209.75197l90.70865 0.31495667" fill-rule="evenodd"/><path stroke="#000000" stroke-width="1.0" stroke-linejoin="round" stroke-linecap="butt" d="m294.7953 209.75197l90.70865 0.31495667" fill-rule="evenodd"/><path fill="#000000" fill-opacity="0.0" d="m294.81104 300.09894l90.70865 0.31497192" fill-rule="evenodd"/><path stroke="#000000" stroke-width="1.0" stroke-linejoin="round" stroke-linecap="butt" d="m294.81104 300.09894l90.70865 0.31497192" fill-rule="evenodd"/><path fill="#93c47d" d="m294.81104 304.24014l90.70865 0l0 90.39371l-90.70865 0z" fill-rule="evenodd"/><path stroke="#000000" stroke-width="1.0" stroke-linejoin="round" stroke-linecap="butt" stroke-dasharray="4.0,3.0" d="m294.81104 304.24014l90.70865 0l0 90.39371l-90.70865 0z" fill-rule="evenodd"/><path fill="#000000" fill-opacity="0.0" d="m294.7953 304.24014l90.70865 0.31497192" fill-rule="evenodd"/><path stroke="#000000" stroke-width="1.0" stroke-linejoin="round" stroke-linecap="butt" d="m294.7953 304.24014l90.70865 0.31497192" fill-rule="evenodd"/><path fill="#000000" fill-opacity="0.0" d="m294.81104 394.58713l90.70865 0.31497192" fill-rule="evenodd"/><path stroke="#000000" stroke-width="1.0" stroke-linejoin="round" stroke-linecap="butt" d="m294.81104 394.58713l90.70865 0.31497192" fill-rule="evenodd"/><path fill="#ead1dc" d="m387.40945 18.885826l94.48819 0l0 94.48819l-94.48819 0z" fill-rule="evenodd"/><path stroke="#595959" stroke-width="1.0" stroke-linejoin="round" stroke-linecap="butt" d="m387.40945 18.885826l94.48819 0l0 94.48819l-94.48819 0z" fill-rule="evenodd"/><path fill="#000000" fill-opacity="0.0" d="m389.29922 20.77559l90.70865 0l0 90.3937l-90.70865 0z" fill-rule="evenodd"/><path stroke="#000000" stroke-width="1.0" stroke-linejoin="round" stroke-linecap="butt" stroke-dasharray="4.0,3.0" d="m389.29922 20.77559l90.70865 0l0 90.3937l-90.70865 0z" fill-rule="evenodd"/><path fill="#000000" fill-opacity="0.0" d="m389.28348 20.77559l90.70865 0.31496048" fill-rule="evenodd"/><path stroke="#000000" stroke-width="1.0" stroke-linejoin="round" stroke-linecap="butt" d="m389.28348 20.77559l90.70865 0.31496048" fill-rule="evenodd"/><path fill="#000000" fill-opacity="0.0" d="m389.29922 111.122574l90.70865 0.31495667" fill-rule="evenodd"/><path stroke="#000000" stroke-width="1.0" stroke-linejoin="round" stroke-linecap="butt" d="m389.29922 111.122574l90.70865 0.31495667" fill-rule="evenodd"/><path fill="#ead1dc" d="m387.40945 113.374016l94.48819 0l0 94.48818l-94.48819 0z" fill-rule="evenodd"/><path stroke="#595959" stroke-width="1.0" stroke-linejoin="round" stroke-linecap="butt" d="m387.40945 113.374016l94.48819 0l0 94.48818l-94.48819 0z" fill-rule="evenodd"/><path fill="#ead1dc" d="m389.29922 115.26378l90.70865 0l0 90.39371l-90.70865 0z" fill-rule="evenodd"/><path stroke="#000000" stroke-width="1.0" stroke-linejoin="round" stroke-linecap="butt" stroke-dasharray="4.0,3.0" d="m389.29922 115.26378l90.70865 0l0 90.39371l-90.70865 0z" fill-rule="evenodd"/><path fill="#000000" fill-opacity="0.0" d="m389.28348 115.26378l90.70865 0.3149643" fill-rule="evenodd"/><path stroke="#000000" stroke-width="1.0" stroke-linejoin="round" stroke-linecap="butt" d="m389.28348 115.26378l90.70865 0.3149643" fill-rule="evenodd"/><path fill="#000000" fill-opacity="0.0" d="m389.29922 205.61076l90.70865 0.31495667" fill-rule="evenodd"/><path stroke="#000000" stroke-width="1.0" stroke-linejoin="round" stroke-linecap="butt" d="m389.29922 205.61076l90.70865 0.31495667" fill-rule="evenodd"/><path fill="#d9ead3" d="m387.40945 207.8622l94.48819 0l0 94.488205l-94.48819 0z" fill-rule="evenodd"/><path stroke="#595959" stroke-width="1.0" stroke-linejoin="round" stroke-linecap="butt" d="m387.40945 207.8622l94.48819 0l0 94.488205l-94.48819 0z" fill-rule="evenodd"/><path fill="#000000" fill-opacity="0.0" d="m389.29922 209.75197l90.70865 0l0 90.39369l-90.70865 0z" fill-rule="evenodd"/><path stroke="#000000" stroke-width="1.0" stroke-linejoin="round" stroke-linecap="butt" stroke-dasharray="4.0,3.0" d="m389.29922 209.75197l90.70865 0l0 90.39369l-90.70865 0z" fill-rule="evenodd"/><path fill="#000000" fill-opacity="0.0" d="m389.28348 209.75197l90.70865 0.31495667" fill-rule="evenodd"/><path stroke="#000000" stroke-width="1.0" stroke-linejoin="round" stroke-linecap="butt" d="m389.28348 209.75197l90.70865 0.31495667" fill-rule="evenodd"/><path fill="#000000" fill-opacity="0.0" d="m389.29922 300.09894l90.70865 0.31497192" fill-rule="evenodd"/><path stroke="#000000" stroke-width="1.0" stroke-linejoin="round" stroke-linecap="butt" d="m389.29922 300.09894l90.70865 0.31497192" fill-rule="evenodd"/><path fill="#000000" fill-opacity="0.0" d="m389.29922 304.24014l90.70865 0l0 90.39371l-90.70865 0z" fill-rule="evenodd"/><path stroke="#000000" stroke-width="1.0" stroke-linejoin="round" stroke-linecap="butt" stroke-dasharray="4.0,3.0" d="m389.29922 304.24014l90.70865 0l0 90.39371l-90.70865 0z" fill-rule="evenodd"/><path fill="#000000" fill-opacity="0.0" d="m389.28348 304.24014l90.70865 0.31497192" fill-rule="evenodd"/><path stroke="#000000" stroke-width="1.0" stroke-linejoin="round" stroke-linecap="butt" d="m389.28348 304.24014l90.70865 0.31497192" fill-rule="evenodd"/><path fill="#000000" fill-opacity="0.0" d="m389.29922 394.58713l90.70865 0.31497192" fill-rule="evenodd"/><path stroke="#000000" stroke-width="1.0" stroke-linejoin="round" stroke-linecap="butt" d="m389.29922 394.58713l90.70865 0.31497192" fill-rule="evenodd"/><path fill="#000000" fill-opacity="0.0" d="m11.346457 398.74426l90.67716 0l0 90.36218l-90.67716 0z" fill-rule="evenodd"/><path stroke="#000000" stroke-width="1.0" stroke-linejoin="round" stroke-linecap="butt" stroke-dasharray="4.0,3.0" d="m11.346457 398.74426l90.67716 0l0 90.36218l-90.67716 0z" fill-rule="evenodd"/><path fill="#000000" fill-opacity="0.0" d="m11.346457 489.09875l90.67716 0.3779602" fill-rule="evenodd"/><path stroke="#000000" stroke-width="1.0" stroke-linejoin="round" stroke-linecap="butt" d="m11.346457 489.09875l90.67716 0.3779602" fill-rule="evenodd"/><path fill="#000000" fill-opacity="0.0" d="m105.83465 398.74426l90.67716 0l0 90.36218l-90.67716 0z" fill-rule="evenodd"/><path stroke="#000000" stroke-width="1.0" stroke-linejoin="round" stroke-linecap="butt" stroke-dasharray="4.0,3.0" d="m105.83465 398.74426l90.67716 0l0 90.36218l-90.67716 0z" fill-rule="evenodd"/><path fill="#000000" fill-opacity="0.0" d="m105.83465 489.09875l90.67716 0.3779602" fill-rule="evenodd"/><path stroke="#000000" stroke-width="1.0" stroke-linejoin="round" stroke-linecap="butt" d="m105.83465 489.09875l90.67716 0.3779602" fill-rule="evenodd"/><path fill="#6d9eeb" d="m11.346457 493.24033l90.67716 0l0 90.36221l-90.67716 0z" fill-rule="evenodd"/><path stroke="#000000" stroke-width="1.0" stroke-linejoin="round" stroke-linecap="butt" stroke-dasharray="4.0,3.0" d="m11.346457 493.24033l90.67716 0l0 90.36221l-90.67716 0z" fill-rule="evenodd"/><path fill="#000000" fill-opacity="0.0" d="m11.3307085 493.24033l90.70866 0.40942383" fill-rule="evenodd"/><path stroke="#000000" stroke-width="1.0" stroke-linejoin="round" stroke-linecap="butt" d="m11.3307085 493.24033l90.70866 0.40942383" fill-rule="evenodd"/><path fill="#000000" fill-opacity="0.0" d="m11.346457 583.59485l90.67716 0.3779297" fill-rule="evenodd"/><path stroke="#000000" stroke-width="1.0" stroke-linejoin="round" stroke-linecap="butt" d="m11.346457 583.59485l90.67716 0.3779297" fill-rule="evenodd"/><path fill="#c9daf8" d="m103.944885 491.3504l94.48819 0l0 94.48816l-94.48819 0z" fill-rule="evenodd"/><path stroke="#595959" stroke-width="1.0" stroke-linejoin="round" stroke-linecap="butt" d="m103.944885 491.3504l94.48819 0l0 94.48816l-94.48819 0z" fill-rule="evenodd"/><path fill="#000000" fill-opacity="0.0" d="m105.83465 493.24033l90.67716 0l0 90.36221l-90.67716 0z" fill-rule="evenodd"/><path stroke="#000000" stroke-width="1.0" stroke-linejoin="round" stroke-linecap="butt" stroke-dasharray="4.0,3.0" d="m105.83465 493.24033l90.67716 0l0 90.36221l-90.67716 0z" fill-rule="evenodd"/><path fill="#000000" fill-opacity="0.0" d="m105.8189 493.24033l90.70866 0.40942383" fill-rule="evenodd"/><path stroke="#000000" stroke-width="1.0" stroke-linejoin="round" stroke-linecap="butt" d="m105.8189 493.24033l90.70866 0.40942383" fill-rule="evenodd"/><path fill="#000000" fill-opacity="0.0" d="m105.83465 583.59485l90.67716 0.3779297" fill-rule="evenodd"/><path stroke="#000000" stroke-width="1.0" stroke-linejoin="round" stroke-linecap="butt" d="m105.83465 583.59485l90.67716 0.3779297" fill-rule="evenodd"/><path fill="#d0e0e3" d="m198.44882 396.8386l94.48819 0l0 94.48819l-94.48819 0z" fill-rule="evenodd"/><path stroke="#595959" stroke-width="1.0" stroke-linejoin="round" stroke-linecap="butt" d="m198.44882 396.8386l94.48819 0l0 94.48819l-94.48819 0z" fill-rule="evenodd"/><path fill="#000000" fill-opacity="0.0" d="m200.33858 398.72833l90.708664 0l0 90.39371l-90.708664 0z" fill-rule="evenodd"/><path stroke="#000000" stroke-width="1.0" stroke-linejoin="round" stroke-linecap="butt" stroke-dasharray="4.0,3.0" d="m200.33858 398.72833l90.708664 0l0 90.39371l-90.708664 0z" fill-rule="evenodd"/><path fill="#000000" fill-opacity="0.0" d="m200.33858 489.07532l90.708664 0.31497192" fill-rule="evenodd"/><path stroke="#000000" stroke-width="1.0" stroke-linejoin="round" stroke-linecap="butt" d="m200.33858 489.07532l90.708664 0.31497192" fill-rule="evenodd"/><path fill="#d0e0e3" d="m198.44882 491.32678l94.48819 0l0 94.48816l-94.48819 0z" fill-rule="evenodd"/><path stroke="#595959" stroke-width="1.0" stroke-linejoin="round" stroke-linecap="butt" d="m198.44882 491.32678l94.48819 0l0 94.48816l-94.48819 0z" fill-rule="evenodd"/><path fill="#76a5af" d="m200.33858 493.21652l90.708664 0l0 90.39371l-90.708664 0z" fill-rule="evenodd"/><path stroke="#000000" stroke-width="1.0" stroke-linejoin="round" stroke-linecap="butt" stroke-dasharray="4.0,3.0" d="m200.33858 493.21652l90.708664 0l0 90.39371l-90.708664 0z" fill-rule="evenodd"/><path fill="#000000" fill-opacity="0.0" d="m200.32283 493.21652l90.708664 0.31497192" fill-rule="evenodd"/><path stroke="#000000" stroke-width="1.0" stroke-linejoin="round" stroke-linecap="butt" d="m200.32283 493.21652l90.708664 0.31497192" fill-rule="evenodd"/><path fill="#000000" fill-opacity="0.0" d="m200.33858 583.56354l90.708664 0.3149414" fill-rule="evenodd"/><path stroke="#000000" stroke-width="1.0" stroke-linejoin="round" stroke-linecap="butt" d="m200.33858 583.56354l90.708664 0.3149414" fill-rule="evenodd"/><path fill="#000000" fill-opacity="0.0" d="m294.82678 398.72833l90.70865 0l0 90.39371l-90.70865 0z" fill-rule="evenodd"/><path stroke="#000000" stroke-width="1.0" stroke-linejoin="round" stroke-linecap="butt" stroke-dasharray="4.0,3.0" d="m294.82678 398.72833l90.70865 0l0 90.39371l-90.70865 0z" fill-rule="evenodd"/><path fill="#000000" fill-opacity="0.0" d="m294.82678 489.07532l90.70865 0.31497192" fill-rule="evenodd"/><path stroke="#000000" stroke-width="1.0" stroke-linejoin="round" stroke-linecap="butt" d="m294.82678 489.07532l90.70865 0.31497192" fill-rule="evenodd"/><path fill="#000000" fill-opacity="0.0" d="m294.82678 493.21652l90.70865 0l0 90.39371l-90.70865 0z" fill-rule="evenodd"/><path stroke="#000000" stroke-width="1.0" stroke-linejoin="round" stroke-linecap="butt" stroke-dasharray="4.0,3.0" d="m294.82678 493.21652l90.70865 0l0 90.39371l-90.70865 0z" fill-rule="evenodd"/><path fill="#000000" fill-opacity="0.0" d="m294.81104 493.21652l90.70865 0.31497192" fill-rule="evenodd"/><path stroke="#000000" stroke-width="1.0" stroke-linejoin="round" stroke-linecap="butt" d="m294.81104 493.21652l90.70865 0.31497192" fill-rule="evenodd"/><path fill="#000000" fill-opacity="0.0" d="m294.82678 583.56354l90.70865 0.3149414" fill-rule="evenodd"/><path stroke="#000000" stroke-width="1.0" stroke-linejoin="round" stroke-linecap="butt" d="m294.82678 583.56354l90.70865 0.3149414" fill-rule="evenodd"/><path fill="#000000" fill-opacity="0.0" d="m389.31497 398.72833l90.70865 0l0 90.39371l-90.70865 0z" fill-rule="evenodd"/><path stroke="#000000" stroke-width="1.0" stroke-linejoin="round" stroke-linecap="butt" stroke-dasharray="4.0,3.0" d="m389.31497 398.72833l90.70865 0l0 90.39371l-90.70865 0z" fill-rule="evenodd"/><path fill="#000000" fill-opacity="0.0" d="m389.31497 489.07532l90.70865 0.31497192" fill-rule="evenodd"/><path stroke="#000000" stroke-width="1.0" stroke-linejoin="round" stroke-linecap="butt" d="m389.31497 489.07532l90.70865 0.31497192" fill-rule="evenodd"/><path fill="#cc4125" d="m389.31497 493.21652l90.70865 0l0 90.39371l-90.70865 0z" fill-rule="evenodd"/><path stroke="#000000" stroke-width="1.0" stroke-linejoin="round" stroke-linecap="butt" stroke-dasharray="4.0,3.0" d="m389.31497 493.21652l90.70865 0l0 90.39371l-90.70865 0z" fill-rule="evenodd"/><path fill="#000000" fill-opacity="0.0" d="m389.29922 493.21652l90.70865 0.31497192" fill-rule="evenodd"/><path stroke="#000000" stroke-width="1.0" stroke-linejoin="round" stroke-linecap="butt" d="m389.29922 493.21652l90.70865 0.31497192" fill-rule="evenodd"/><path fill="#000000" fill-opacity="0.0" d="m389.31497 583.56354l90.70865 0.3149414" fill-rule="evenodd"/><path stroke="#000000" stroke-width="1.0" stroke-linejoin="round" stroke-linecap="butt" d="m389.31497 583.56354l90.70865 0.3149414" fill-rule="evenodd"/><path fill="#000000" fill-opacity="0.0" d="m11.346457 398.76395l90.70866 0.40945435" fill-rule="evenodd"/><path stroke="#000000" stroke-width="1.0" stroke-linejoin="round" stroke-linecap="butt" d="m11.346457 398.76395l90.70866 0.40945435" fill-rule="evenodd"/><path fill="#000000" fill-opacity="0.0" d="m105.83465 398.76395l90.70866 0.40945435" fill-rule="evenodd"/><path stroke="#000000" stroke-width="1.0" stroke-linejoin="round" stroke-linecap="butt" d="m105.83465 398.76395l90.70866 0.40945435" fill-rule="evenodd"/><path fill="#000000" fill-opacity="0.0" d="m200.33858 398.74014l90.708664 0.31497192" fill-rule="evenodd"/><path stroke="#000000" stroke-width="1.0" stroke-linejoin="round" stroke-linecap="butt" d="m200.33858 398.74014l90.708664 0.31497192" fill-rule="evenodd"/><path fill="#000000" fill-opacity="0.0" d="m294.82678 398.74014l90.70865 0.31497192" fill-rule="evenodd"/><path stroke="#000000" stroke-width="1.0" stroke-linejoin="round" stroke-linecap="butt" d="m294.82678 398.74014l90.70865 0.31497192" fill-rule="evenodd"/><path fill="#000000" fill-opacity="0.0" d="m389.31497 398.72702l90.70865 0.31497192" fill-rule="evenodd"/><path stroke="#000000" stroke-width="1.0" stroke-linejoin="round" stroke-linecap="butt" d="m389.31497 398.72702l90.70865 0.31497192" fill-rule="evenodd"/></g></svg>