<svg version="1.1" viewBox="0.0 0.0 1209.4488188976377 1209.4488188976377" fill="none" stroke="none" stroke-linecap="square" stroke-miterlimit="10" xmlns:xlink="http://www.w3.org/1999/xlink" xmlns="http://www.w3.org/2000/svg"><clipPath id="p.0"><path d="m0 0l1209.4489 0l0 1209.4489l-1209.4489 0l0 -1209.4489z" clip-rule="nonzero"/></clipPath><g clip-path="url(#p.0)"><path fill="#000000" fill-opacity="0.0" d="m0 0l1209.4489 0l0 1209.4489l-1209.4489 0z" fill-rule="evenodd"/><path fill="#d0e0e3" d="m132.34645 132.34645l188.9764 0l0 188.9764l-188.9764 0z" fill-rule="evenodd"/><path stroke="#595959" stroke-width="2.0" stroke-linejoin="round" stroke-linecap="butt" d="m132.34645 132.34645l188.9764 0l0 188.9764l-188.9764 0z" fill-rule="evenodd"/><path fill="#ead1dc" d="m321.32285 132.34645l188.97638 0l0 188.9764l-188.97638 0z" fill-rule="evenodd"/><path stroke="#595959" stroke-width="2.0" stroke-linejoin="round" stroke-linecap="butt" d="m321.32285 132.34645l188.97638 0l0 188.9764l-188.97638 0z" fill-rule="evenodd"/><path fill="#ead1dc" d="m132.34645 321.32285l188.9764 0l0 188.97638l-188.9764 0z" fill-rule="evenodd"/><path stroke="#595959" stroke-width="2.0" stroke-linejoin="round" stroke-linecap="butt" d="m132.34645 321.32285l188.9764 0l0 188.97638l-188.9764 0z" fill-rule="evenodd"/><path fill="#d0e0e3" d="m321.32285 321.32285l188.97638 0l0 188.97638l-188.97638 0z" fill-rule="evenodd"/><path stroke="#595959" stroke-width="2.0" stroke-linejoin="round" stroke-linecap="butt" d="m321.32285 321.32285l188.97638 0l0 188.97638l-188.97638 0z" fill-rule="evenodd"/><path fill="#ead1dc" d="m132.34645 132.34645l94.48819 -94.48818l94.488205 94.48818z" fill-rule="evenodd"/><path stroke="#595959" stroke-width="2.0" stroke-linejoin="round" stroke-linecap="butt" d="m132.34645 132.34645l94.48819 -94.48818l94.488205 94.48818z" fill-rule="evenodd"/><path fill="#d0e0e3" d="m132.34645 510.29922l-94.48818 -94.48819l94.48818 -94.48819z" fill-rule="evenodd"/><path stroke="#595959" stroke-width="2.0" stroke-linejoin="round" stroke-linecap="butt" d="m132.34645 510.29922l-94.48818 -94.48819l94.48818 -94.48819z" fill-rule="evenodd"/><path fill="#595959" d="m122.89764 132.28346l0 0c0 -5.183647 4.202179 -9.385826 9.385826 -9.385826l0 0c2.489273 0 4.876602 0.9888611 6.63678 2.7490463c1.7601929 1.7601852 2.749054 4.1475067 2.749054 6.63678l0 0c0 5.183655 -4.202179 9.385834 -9.385834 9.385834l0 0c-5.183647 0 -9.385826 -4.202179 -9.385826 -9.385834z" fill-rule="evenodd"/><path stroke="#595959" stroke-width="2.0" stroke-linejoin="round" stroke-linecap="butt" d="m122.89764 132.28346l0 0c0 -5.183647 4.202179 -9.385826 9.385826 -9.385826l0 0c2.489273 0 4.876602 0.9888611 6.63678 2.7490463c1.7601929 1.7601852 2.749054 4.1475067 2.749054 6.63678l0 0c0 5.183655 -4.202179 9.385834 -9.385834 9.385834l0 0c-5.183647 0 -9.385826 -4.202179 -9.385826 -9.385834z" fill-rule="evenodd"/><path fill="#595959" d="m122.89764 321.25986l0 0c0 -5.183655 4.202179 -9.385834 9.385826 -9.385834l0 0c2.489273 0 4.876602 0.9888611 6.63678 2.7490234c1.7601929 1.7601929 2.749054 4.147522 2.749054 6.6368103l0 0c0 5.1836243 -4.202179 9.385803 -9.385834 9.385803l0 0c-5.183647 0 -9.385826 -4.202179 -9.385826 -9.385803z" fill-rule="evenodd"/><path stroke="#595959" stroke-width="2.0" stroke-linejoin="round" stroke-linecap="butt" d="m122.89764 321.25986l0 0c0 -5.183655 4.202179 -9.385834 9.385826 -9.385834l0 0c2.489273 0 4.876602 0.9888611 6.63678 2.7490234c1.7601929 1.7601929 2.749054 4.147522 2.749054 6.6368103l0 0c0 5.1836243 -4.202179 9.385803 -9.385834 9.385803l0 0c-5.183647 0 -9.385826 -4.202179 -9.385826 -9.385803z" fill-rule="evenodd"/><path fill="#595959" d="m311.87402 132.28346l0 0c0 -5.183647 4.202179 -9.385826 9.385834 -9.385826l0 0c2.4892578 0 4.876587 0.9888611 6.63678 2.7490463c1.7601624 1.7601852 2.7490234 4.1475067 2.7490234 6.63678l0 0c0 5.183655 -4.202179 9.385834 -9.385803 9.385834l0 0c-5.183655 0 -9.385834 -4.202179 -9.385834 -9.385834z" fill-rule="evenodd"/><path stroke="#595959" stroke-width="2.0" stroke-linejoin="round" stroke-linecap="butt" d="m311.87402 132.28346l0 0c0 -5.183647 4.202179 -9.385826 9.385834 -9.385826l0 0c2.4892578 0 4.876587 0.9888611 6.63678 2.7490463c1.7601624 1.7601852 2.7490234 4.1475067 2.7490234 6.63678l0 0c0 5.183655 -4.202179 9.385834 -9.385803 9.385834l0 0c-5.183655 0 -9.385834 -4.202179 -9.385834 -9.385834z" fill-rule="evenodd"/><path fill="#595959" d="m311.87402 321.25986l0 0c0 -5.183655 4.202179 -9.385834 9.385834 -9.385834l0 0c2.4892578 0 4.876587 0.9888611 6.63678 2.7490234c1.7601624 1.7601929 2.7490234 4.147522 2.7490234 6.6368103l0 0c0 5.1836243 -4.202179 9.385803 -9.385803 9.385803l0 0c-5.183655 0 -9.385834 -4.202179 -9.385834 -9.385803z" fill-rule="evenodd"/><path stroke="#595959" stroke-width="2.0" stroke-linejoin="round" stroke-linecap="butt" d="m311.87402 321.25986l0 0c0 -5.183655 4.202179 -9.385834 9.385834 -9.385834l0 0c2.4892578 0 4.876587 0.9888611 6.63678 2.7490234c1.7601624 1.7601929 2.7490234 4.147522 2.7490234 6.6368103l0 0c0 5.1836243 -4.202179 9.385803 -9.385803 9.385803l0 0c-5.183655 0 -9.385834 -4.202179 -9.385834 -9.385803z" fill-rule="evenodd"/><path fill="#ffffff" d="m217.44882 37.795277l0 0c0 -5.183651 4.202179 -9.385828 9.3858185 -9.385828l0 0c2.4892883 0 4.876602 0.9888611 6.63678 2.7490444c1.7601929 1.7601852 2.749054 4.1475067 2.749054 6.6367836l0 0c0 5.183647 -4.202179 9.385826 -9.385834 9.385826l0 0c-5.1836395 0 -9.3858185 -4.202179 -9.3858185 -9.385826z" fill-rule="evenodd"/><path stroke="#595959" stroke-width="2.0" stroke-linejoin="round" stroke-linecap="butt" d="m217.44882 37.795277l0 0c0 -5.183651 4.202179 -9.385828 9.3858185 -9.385828l0 0c2.4892883 0 4.876602 0.9888611 6.63678 2.7490444c1.7601929 1.7601852 2.749054 4.1475067 2.749054 6.6367836l0 0c0 5.183647 -4.202179 9.385826 -9.385834 9.385826l0 0c-5.1836395 0 -9.3858185 -4.202179 -9.3858185 -9.385826z" fill-rule="evenodd"/><path fill="#ffffff" d="m28.409449 415.81104l0 0c0 -5.183655 4.202177 -9.385834 9.385828 -9.385834l0 0c2.489277 0 4.8765984 0.9888611 6.63678 2.749054c1.7601852 1.7601624 2.7490463 4.1474915 2.7490463 6.63678l0 0c0 5.1836243 -4.202179 9.385803 -9.385826 9.385803l0 0c-5.183651 0 -9.385828 -4.202179 -9.385828 -9.385803z" fill-rule="evenodd"/><path stroke="#595959" stroke-width="2.0" stroke-linejoin="round" stroke-linecap="butt" d="m28.409449 415.81104l0 0c0 -5.183655 4.202177 -9.385834 9.385828 -9.385834l0 0c2.489277 0 4.8765984 0.9888611 6.63678 2.749054c1.7601852 1.7601624 2.7490463 4.1474915 2.7490463 6.63678l0 0c0 5.1836243 -4.202179 9.385803 -9.385826 9.385803l0 0c-5.183651 0 -9.385828 -4.202179 -9.385828 -9.385803z" fill-rule="evenodd"/><path fill="#ffffff" d="m217.51181 226.83464l0 0c0 -5.1836395 4.202179 -9.3858185 9.385834 -9.3858185l0 0c2.489273 0 4.876587 0.9888611 6.63678 2.7490387c1.7601776 1.7601929 2.7490387 4.1475067 2.7490387 6.63678l0 0c0 5.183655 -4.202179 9.385834 -9.3858185 9.385834l0 0c-5.183655 0 -9.385834 -4.202179 -9.385834 -9.385834z" fill-rule="evenodd"/><path stroke="#595959" stroke-width="2.0" stroke-linejoin="round" stroke-linecap="butt" d="m217.51181 226.83464l0 0c0 -5.1836395 4.202179 -9.3858185 9.385834 -9.3858185l0 0c2.489273 0 4.876587 0.9888611 6.63678 2.7490387c1.7601776 1.7601929 2.7490387 4.1475067 2.7490387 6.63678l0 0c0 5.183655 -4.202179 9.385834 -9.3858185 9.385834l0 0c-5.183655 0 -9.385834 -4.202179 -9.385834 -9.385834z" fill-rule="evenodd"/><path fill="#ffffff" d="m217.44882 415.87402l0 0c0 -5.183655 4.202179 -9.385834 9.3858185 -9.385834l0 0c2.4892883 0 4.876602 0.9888611 6.63678 2.749054c1.7601929 1.7601624 2.749054 4.1474915 2.749054 6.63678l0 0c0 5.183655 -4.202179 9.385834 -9.385834 9.385834l0 0c-5.1836395 0 -9.3858185 -4.202179 -9.3858185 -9.385834z" fill-rule="evenodd"/><path stroke="#595959" stroke-width="2.0" stroke-linejoin="round" stroke-linecap="butt" d="m217.44882 415.87402l0 0c0 -5.183655 4.202179 -9.385834 9.3858185 -9.385834l0 0c2.4892883 0 4.876602 0.9888611 6.63678 2.749054c1.7601929 1.7601624 2.749054 4.1474915 2.749054 6.63678l0 0c0 5.183655 -4.202179 9.385834 -9.385834 9.385834l0 0c-5.1836395 0 -9.3858185 -4.202179 -9.3858185 -9.385834z" fill-rule="evenodd"/><path fill="#ffffff" d="m406.4882 415.81104l0 0c0 -5.183655 4.202179 -9.385834 9.385834 -9.385834l0 0c2.4892578 0 4.876587 0.9888611 6.63678 2.749054c1.7601929 1.7601624 2.749054 4.1474915 2.749054 6.63678l0 0c0 5.1836243 -4.202179 9.385803 -9.385834 9.385803l0 0c-5.183655 0 -9.385834 -4.202179 -9.385834 -9.385803z" fill-rule="evenodd"/><path stroke="#595959" stroke-width="2.0" stroke-linejoin="round" stroke-linecap="butt" d="m406.4882 415.81104l0 0c0 -5.183655 4.202179 -9.385834 9.385834 -9.385834l0 0c2.4892578 0 4.876587 0.9888611 6.63678 2.749054c1.7601929 1.7601624 2.749054 4.1474915 2.749054 6.63678l0 0c0 5.1836243 -4.202179 9.385803 -9.385834 9.385803l0 0c-5.183655 0 -9.385834 -4.202179 -9.385834 -9.385803z" fill-rule="evenodd"/><path fill="#d0e0e3" d="m510.29922 132.34645l188.97635 0l0 188.9764l-188.97635 0z" fill-rule="evenodd"/><path stroke="#595959" stroke-width="2.0" stroke-linejoin="round" stroke-linecap="butt" stroke-dasharray="16.0,6.0,2.0,6.0" d="m510.29922 132.34645l188.97635 0l0 188.9764l-188.97635 0z" fill-rule="evenodd"/><path fill="#ead1dc" d="m699.2756 132.34645l188.97638 0l0 188.9764l-188.97638 0z" fill-rule="evenodd"/><path stroke="#595959" stroke-width="2.0" stroke-linejoin="round" stroke-linecap="butt" d="m699.2756 132.34645l188.97638 0l0 188.9764l-188.97638 0z" fill-rule="evenodd"/><path fill="#ead1dc" d="m510.29922 321.32285l188.97635 0l0 188.97638l-188.97635 0z" fill-rule="evenodd"/><path stroke="#595959" stroke-width="2.0" stroke-linejoin="round" stroke-linecap="butt" d="m510.29922 321.32285l188.97635 0l0 188.97638l-188.97635 0z" fill-rule="evenodd"/><path fill="#d0e0e3" d="m699.2756 321.32285l188.97638 0l0 188.97638l-188.97638 0z" fill-rule="evenodd"/><path stroke="#595959" stroke-width="2.0" stroke-linejoin="round" stroke-linecap="butt" d="m699.2756 321.32285l188.97638 0l0 188.97638l-188.97638 0z" fill-rule="evenodd"/><path fill="#ffffff" d="m595.46454 226.83464l0 0c0 -5.1836395 4.2022095 -9.3858185 9.385864 -9.3858185l0 0c2.4892578 0 4.876587 0.9888611 6.63678 2.7490387c1.7601929 1.7601929 2.7490234 4.1475067 2.7490234 6.63678l0 0c0 5.183655 -4.2021484 9.385834 -9.385803 9.385834l0 0c-5.183655 0 -9.385864 -4.202179 -9.385864 -9.385834z" fill-rule="evenodd"/><path stroke="#595959" stroke-width="2.0" stroke-linejoin="round" stroke-linecap="butt" d="m595.46454 226.83464l0 0c0 -5.1836395 4.2022095 -9.3858185 9.385864 -9.3858185l0 0c2.4892578 0 4.876587 0.9888611 6.63678 2.7490387c1.7601929 1.7601929 2.7490234 4.1475067 2.7490234 6.63678l0 0c0 5.183655 -4.2021484 9.385834 -9.385803 9.385834l0 0c-5.183655 0 -9.385864 -4.202179 -9.385864 -9.385834z" fill-rule="evenodd"/><path fill="#ffffff" d="m784.4409 415.81104l0 0c0 -5.183655 4.2022095 -9.385834 9.385864 -9.385834l0 0c2.4892578 0 4.876587 0.9888611 6.63678 2.749054c1.7601929 1.7601624 2.7490234 4.1474915 2.7490234 6.63678l0 0c0 5.1836243 -4.2021484 9.385803 -9.385803 9.385803l0 0c-5.183655 0 -9.385864 -4.202179 -9.385864 -9.385803z" fill-rule="evenodd"/><path stroke="#595959" stroke-width="2.0" stroke-linejoin="round" stroke-linecap="butt" d="m784.4409 415.81104l0 0c0 -5.183655 4.2022095 -9.385834 9.385864 -9.385834l0 0c2.4892578 0 4.876587 0.9888611 6.63678 2.749054c1.7601929 1.7601624 2.7490234 4.1474915 2.7490234 6.63678l0 0c0 5.1836243 -4.2021484 9.385803 -9.385803 9.385803l0 0c-5.183655 0 -9.385864 -4.202179 -9.385864 -9.385803z" fill-rule="evenodd"/><path fill="#d0e0e3" d="m132.34645 510.29922l188.9764 0l0 188.97635l-188.9764 0z" fill-rule="evenodd"/><path stroke="#595959" stroke-width="2.0" stroke-linejoin="round" stroke-linecap="butt" d="m132.34645 510.29922l188.9764 0l0 188.97635l-188.9764 0z" fill-rule="evenodd"/><path fill="#ead1dc" d="m321.32285 510.29922l188.97638 0l0 188.97635l-188.97638 0z" fill-rule="evenodd"/><path stroke="#595959" stroke-width="2.0" stroke-linejoin="round" stroke-linecap="butt" d="m321.32285 510.29922l188.97638 0l0 188.97635l-188.97638 0z" fill-rule="evenodd"/><path fill="#ead1dc" d="m132.34645 699.2756l188.9764 0l0 188.97638l-188.9764 0z" fill-rule="evenodd"/><path stroke="#595959" stroke-width="2.0" stroke-linejoin="round" stroke-linecap="butt" d="m132.34645 699.2756l188.9764 0l0 188.97638l-188.9764 0z" fill-rule="evenodd"/><path fill="#595959" d="m122.89764 510.2362l0 0c0 -5.1836243 4.202179 -9.385803 9.385826 -9.385803l0 0c2.489273 0 4.876602 0.9888611 6.63678 2.7490234c1.7601929 1.7601929 2.749054 4.147522 2.749054 6.63678l0 0c0 5.183655 -4.202179 9.385864 -9.385834 9.385864l0 0c-5.183647 0 -9.385826 -4.2022095 -9.385826 -9.385864z" fill-rule="evenodd"/><path stroke="#595959" stroke-width="2.0" stroke-linejoin="round" stroke-linecap="butt" d="m122.89764 510.2362l0 0c0 -5.1836243 4.202179 -9.385803 9.385826 -9.385803l0 0c2.489273 0 4.876602 0.9888611 6.63678 2.7490234c1.7601929 1.7601929 2.749054 4.147522 2.749054 6.63678l0 0c0 5.183655 -4.202179 9.385864 -9.385834 9.385864l0 0c-5.183647 0 -9.385826 -4.2022095 -9.385826 -9.385864z" fill-rule="evenodd"/><path fill="#595959" d="m311.87402 510.2362l0 0c0 -5.1836243 4.202179 -9.385803 9.385834 -9.385803l0 0c2.4892578 0 4.876587 0.9888611 6.63678 2.7490234c1.7601624 1.7601929 2.7490234 4.147522 2.7490234 6.63678l0 0c0 5.183655 -4.202179 9.385864 -9.385803 9.385864l0 0c-5.183655 0 -9.385834 -4.2022095 -9.385834 -9.385864z" fill-rule="evenodd"/><path stroke="#595959" stroke-width="2.0" stroke-linejoin="round" stroke-linecap="butt" d="m311.87402 510.2362l0 0c0 -5.1836243 4.202179 -9.385803 9.385834 -9.385803l0 0c2.4892578 0 4.876587 0.9888611 6.63678 2.7490234c1.7601624 1.7601929 2.7490234 4.147522 2.7490234 6.63678l0 0c0 5.183655 -4.202179 9.385864 -9.385803 9.385864l0 0c-5.183655 0 -9.385834 -4.2022095 -9.385834 -9.385864z" fill-rule="evenodd"/><path fill="#ffffff" d="m217.51181 604.7874l0 0c0 -5.183655 4.202179 -9.385864 9.385834 -9.385864l0 0c2.489273 0 4.876587 0.9888916 6.63678 2.7490845c1.7601776 1.7601929 2.7490387 4.147461 2.7490387 6.63678l0 0c0 5.183655 -4.202179 9.385803 -9.3858185 9.385803l0 0c-5.183655 0 -9.385834 -4.2021484 -9.385834 -9.385803z" fill-rule="evenodd"/><path stroke="#595959" stroke-width="2.0" stroke-linejoin="round" stroke-linecap="butt" d="m217.51181 604.7874l0 0c0 -5.183655 4.202179 -9.385864 9.385834 -9.385864l0 0c2.489273 0 4.876587 0.9888916 6.63678 2.7490845c1.7601776 1.7601929 2.7490387 4.147461 2.7490387 6.63678l0 0c0 5.183655 -4.202179 9.385803 -9.3858185 9.385803l0 0c-5.183655 0 -9.385834 -4.2021484 -9.385834 -9.385803z" fill-rule="evenodd"/><path fill="#d0e0e3" d="m510.29922 510.29922l188.97635 0l0 188.97635l-188.97635 0z" fill-rule="evenodd"/><path stroke="#595959" stroke-width="2.0" stroke-linejoin="round" stroke-linecap="butt" d="m510.29922 510.29922l188.97635 0l0 188.97635l-188.97635 0z" fill-rule="evenodd"/><path fill="#ead1dc" d="m699.2756 510.29922l188.97638 0l0 188.97635l-188.97638 0z" fill-rule="evenodd"/><path stroke="#595959" stroke-width="2.0" stroke-linejoin="round" stroke-linecap="butt" d="m699.2756 510.29922l188.97638 0l0 188.97635l-188.97638 0z" fill-rule="evenodd"/><path fill="#ead1dc" d="m510.29922 699.2756l188.97635 0l0 188.97638l-188.97635 0z" fill-rule="evenodd"/><path stroke="#595959" stroke-width="2.0" stroke-linejoin="round" stroke-linecap="butt" d="m510.29922 699.2756l188.97635 0l0 188.97638l-188.97635 0z" fill-rule="evenodd"/><path fill="#d0e0e3" d="m699.2756 699.2756l188.97638 0l0 188.97638l-188.97638 0z" fill-rule="evenodd"/><path stroke="#595959" stroke-width="2.0" stroke-linejoin="round" stroke-linecap="butt" d="m699.2756 699.2756l188.97638 0l0 188.97638l-188.97638 0z" fill-rule="evenodd"/><path fill="#595959" d="m500.8504 510.2362l0 0c0 -5.1836243 4.202179 -9.385803 9.385803 -9.385803l0 0c2.4893188 0 4.876587 0.9888611 6.63678 2.7490234c1.7601929 1.7601929 2.7490845 4.147522 2.7490845 6.63678l0 0c0 5.183655 -4.2022095 9.385864 -9.385864 9.385864l0 0c-5.1836243 0 -9.385803 -4.2022095 -9.385803 -9.385864z" fill-rule="evenodd"/><path stroke="#595959" stroke-width="2.0" stroke-linejoin="round" stroke-linecap="butt" d="m500.8504 510.2362l0 0c0 -5.1836243 4.202179 -9.385803 9.385803 -9.385803l0 0c2.4893188 0 4.876587 0.9888611 6.63678 2.7490234c1.7601929 1.7601929 2.7490845 4.147522 2.7490845 6.63678l0 0c0 5.183655 -4.2022095 9.385864 -9.385864 9.385864l0 0c-5.1836243 0 -9.385803 -4.2022095 -9.385803 -9.385864z" fill-rule="evenodd"/><path fill="#595959" d="m689.8268 510.2362l0 0c0 -5.1836243 4.2021484 -9.385803 9.385803 -9.385803l0 0c2.4893188 0 4.876587 0.9888611 6.63678 2.7490234c1.7601929 1.7601929 2.7490845 4.147522 2.7490845 6.63678l0 0c0 5.183655 -4.2022095 9.385864 -9.385864 9.385864l0 0c-5.183655 0 -9.385803 -4.2022095 -9.385803 -9.385864z" fill-rule="evenodd"/><path stroke="#595959" stroke-width="2.0" stroke-linejoin="round" stroke-linecap="butt" d="m689.8268 510.2362l0 0c0 -5.1836243 4.2021484 -9.385803 9.385803 -9.385803l0 0c2.4893188 0 4.876587 0.9888611 6.63678 2.7490234c1.7601929 1.7601929 2.7490845 4.147522 2.7490845 6.63678l0 0c0 5.183655 -4.2022095 9.385864 -9.385864 9.385864l0 0c-5.183655 0 -9.385803 -4.2022095 -9.385803 -9.385864z" fill-rule="evenodd"/><path fill="#595959" d="m689.8268 699.2126l0 0c0 -5.183655 4.2021484 -9.385803 9.385803 -9.385803l0 0c2.4893188 0 4.876587 0.98883057 6.63678 2.7490234c1.7601929 1.7601929 2.7490845 4.147522 2.7490845 6.63678l0 0c0 5.183655 -4.2022095 9.385864 -9.385864 9.385864l0 0c-5.183655 0 -9.385803 -4.2022095 -9.385803 -9.385864z" fill-rule="evenodd"/><path stroke="#595959" stroke-width="2.0" stroke-linejoin="round" stroke-linecap="butt" d="m689.8268 699.2126l0 0c0 -5.183655 4.2021484 -9.385803 9.385803 -9.385803l0 0c2.4893188 0 4.876587 0.98883057 6.63678 2.7490234c1.7601929 1.7601929 2.7490845 4.147522 2.7490845 6.63678l0 0c0 5.183655 -4.2022095 9.385864 -9.385864 9.385864l0 0c-5.183655 0 -9.385803 -4.2022095 -9.385803 -9.385864z" fill-rule="evenodd"/><path fill="#ffffff" d="m595.46454 604.7874l0 0c0 -5.183655 4.2022095 -9.385864 9.385864 -9.385864l0 0c2.4892578 0 4.876587 0.9888916 6.63678 2.7490845c1.7601929 1.7601929 2.7490234 4.147461 2.7490234 6.63678l0 0c0 5.183655 -4.2021484 9.385803 -9.385803 9.385803l0 0c-5.183655 0 -9.385864 -4.2021484 -9.385864 -9.385803z" fill-rule="evenodd"/><path stroke="#595959" stroke-width="2.0" stroke-linejoin="round" stroke-linecap="butt" d="m595.46454 604.7874l0 0c0 -5.183655 4.2022095 -9.385864 9.385864 -9.385864l0 0c2.4892578 0 4.876587 0.9888916 6.63678 2.7490845c1.7601929 1.7601929 2.7490234 4.147461 2.7490234 6.63678l0 0c0 5.183655 -4.2021484 9.385803 -9.385803 9.385803l0 0c-5.183655 0 -9.385864 -4.2021484 -9.385864 -9.385803z" fill-rule="evenodd"/><path fill="#ffffff" d="m784.4409 793.7638l0 0c0 -5.183655 4.2022095 -9.385864 9.385864 -9.385864l0 0c2.4892578 0 4.876587 0.9888916 6.63678 2.7490845c1.7601929 1.7601929 2.7490234 4.147461 2.7490234 6.63678l0 0c0 5.183655 -4.2021484 9.385803 -9.385803 9.385803l0 0c-5.183655 0 -9.385864 -4.2021484 -9.385864 -9.385803z" fill-rule="evenodd"/><path stroke="#595959" stroke-width="2.0" stroke-linejoin="round" stroke-linecap="butt" d="m784.4409 793.7638l0 0c0 -5.183655 4.2022095 -9.385864 9.385864 -9.385864l0 0c2.4892578 0 4.876587 0.9888916 6.63678 2.7490845c1.7601929 1.7601929 2.7490234 4.147461 2.7490234 6.63678l0 0c0 5.183655 -4.2021484 9.385803 -9.385803 9.385803l0 0c-5.183655 0 -9.385864 -4.2021484 -9.385864 -9.385803z" fill-rule="evenodd"/><path fill="#d0e0e3" d="m888.25195 132.34645l188.97644 0l0 188.9764l-188.97644 0z" fill-rule="evenodd"/><path stroke="#595959" stroke-width="2.0" stroke-linejoin="round" stroke-linecap="butt" d="m888.25195 132.34645l188.97644 0l0 188.9764l-188.97644 0z" fill-rule="evenodd"/><path fill="#ead1dc" d="m888.25195 321.32285l188.97644 0l0 188.97638l-188.97644 0z" fill-rule="evenodd"/><path stroke="#595959" stroke-width="2.0" stroke-linejoin="round" stroke-linecap="butt" d="m888.25195 321.32285l188.97644 0l0 188.97638l-188.97644 0z" fill-rule="evenodd"/><path fill="#595959" d="m878.80316 132.28346l0 0c0 -5.183647 4.2021484 -9.385826 9.385803 -9.385826l0 0c2.4892578 0 4.876587 0.9888611 6.63678 2.7490463c1.7601929 1.7601852 2.7490845 4.1475067 2.7490845 6.63678l0 0c0 5.183655 -4.2022095 9.385834 -9.385864 9.385834l0 0c-5.183655 0 -9.385803 -4.202179 -9.385803 -9.385834z" fill-rule="evenodd"/><path stroke="#595959" stroke-width="2.0" stroke-linejoin="round" stroke-linecap="butt" d="m878.80316 132.28346l0 0c0 -5.183647 4.2021484 -9.385826 9.385803 -9.385826l0 0c2.4892578 0 4.876587 0.9888611 6.63678 2.7490463c1.7601929 1.7601852 2.7490845 4.1475067 2.7490845 6.63678l0 0c0 5.183655 -4.2022095 9.385834 -9.385864 9.385834l0 0c-5.183655 0 -9.385803 -4.202179 -9.385803 -9.385834z" fill-rule="evenodd"/><path fill="#595959" d="m878.80316 321.25986l0 0c0 -5.183655 4.2021484 -9.385834 9.385803 -9.385834l0 0c2.4892578 0 4.876587 0.9888611 6.63678 2.7490234c1.7601929 1.7601929 2.7490845 4.147522 2.7490845 6.6368103l0 0c0 5.1836243 -4.2022095 9.385803 -9.385864 9.385803l0 0c-5.183655 0 -9.385803 -4.202179 -9.385803 -9.385803z" fill-rule="evenodd"/><path stroke="#595959" stroke-width="2.0" stroke-linejoin="round" stroke-linecap="butt" d="m878.80316 321.25986l0 0c0 -5.183655 4.2021484 -9.385834 9.385803 -9.385834l0 0c2.4892578 0 4.876587 0.9888611 6.63678 2.7490234c1.7601929 1.7601929 2.7490845 4.147522 2.7490845 6.6368103l0 0c0 5.1836243 -4.2022095 9.385803 -9.385864 9.385803l0 0c-5.183655 0 -9.385803 -4.202179 -9.385803 -9.385803z" fill-rule="evenodd"/><path fill="#ffffff" d="m973.4173 226.83464l0 0c0 -5.1836395 4.2022095 -9.3858185 9.385864 -9.3858185l0 0c2.4892578 0 4.876587 0.9888611 6.63678 2.7490387c1.7601929 1.7601929 2.7490234 4.1475067 2.7490234 6.63678l0 0c0 5.183655 -4.2021484 9.385834 -9.385803 9.385834l0 0c-5.183655 0 -9.385864 -4.202179 -9.385864 -9.385834z" fill-rule="evenodd"/><path stroke="#595959" stroke-width="2.0" stroke-linejoin="round" stroke-linecap="butt" d="m973.4173 226.83464l0 0c0 -5.1836395 4.2022095 -9.3858185 9.385864 -9.3858185l0 0c2.4892578 0 4.876587 0.9888611 6.63678 2.7490387c1.7601929 1.7601929 2.7490234 4.1475067 2.7490234 6.63678l0 0c0 5.183655 -4.2021484 9.385834 -9.385803 9.385834l0 0c-5.183655 0 -9.385864 -4.202179 -9.385864 -9.385834z" fill-rule="evenodd"/><path fill="#ead1dc" d="m888.25195 699.2756l188.97644 0l0 188.97638l-188.97644 0z" fill-rule="evenodd"/><path stroke="#595959" stroke-width="2.0" stroke-linejoin="round" stroke-linecap="butt" d="m888.25195 699.2756l188.97644 0l0 188.97638l-188.97644 0z" fill-rule="evenodd"/><path fill="#d0e0e3" d="m132.40945 888.25195l188.97638 0l0 188.97644l-188.97638 0z" fill-rule="evenodd"/><path stroke="#595959" stroke-width="2.0" stroke-linejoin="round" stroke-linecap="butt" d="m132.40945 888.25195l188.97638 0l0 188.97644l-188.97638 0z" fill-rule="evenodd"/><path fill="#ead1dc" d="m321.38583 888.25195l188.97638 0l0 188.97644l-188.97638 0z" fill-rule="evenodd"/><path stroke="#595959" stroke-width="2.0" stroke-linejoin="round" stroke-linecap="butt" d="m321.38583 888.25195l188.97638 0l0 188.97644l-188.97638 0z" fill-rule="evenodd"/><path fill="#595959" d="m122.96063 1077.1654l0 0c0 -5.183716 4.202179 -9.385864 9.3858185 -9.385864l0 0c2.4892883 0 4.876602 0.9888916 6.636795 2.7490234c1.7601776 1.7601318 2.7490387 4.147461 2.7490387 6.636841l0 0c0 5.1835938 -4.202179 9.385742 -9.385834 9.385742l0 0c-5.1836395 0 -9.3858185 -4.2021484 -9.3858185 -9.385742z" fill-rule="evenodd"/><path stroke="#595959" stroke-width="2.0" stroke-linejoin="round" stroke-linecap="butt" d="m122.96063 1077.1654l0 0c0 -5.183716 4.202179 -9.385864 9.3858185 -9.385864l0 0c2.4892883 0 4.876602 0.9888916 6.636795 2.7490234c1.7601776 1.7601318 2.7490387 4.147461 2.7490387 6.636841l0 0c0 5.1835938 -4.202179 9.385742 -9.385834 9.385742l0 0c-5.1836395 0 -9.3858185 -4.2021484 -9.3858185 -9.385742z" fill-rule="evenodd"/><path fill="#ffffff" d="m217.5748 982.7402l0 0c0 -5.183655 4.202179 -9.385864 9.385834 -9.385864l0 0c2.489273 0 4.876602 0.9888916 6.63678 2.7490845c1.7601776 1.7601929 2.7490387 4.147461 2.7490387 6.63678l0 0c0 5.183655 -4.202179 9.385803 -9.3858185 9.385803l0 0c-5.183655 0 -9.385834 -4.2021484 -9.385834 -9.385803z" fill-rule="evenodd"/><path stroke="#595959" stroke-width="2.0" stroke-linejoin="round" stroke-linecap="butt" d="m217.5748 982.7402l0 0c0 -5.183655 4.202179 -9.385864 9.385834 -9.385864l0 0c2.489273 0 4.876602 0.9888916 6.63678 2.7490845c1.7601776 1.7601929 2.7490387 4.147461 2.7490387 6.63678l0 0c0 5.183655 -4.202179 9.385803 -9.3858185 9.385803l0 0c-5.183655 0 -9.385834 -4.2021484 -9.385834 -9.385803z" fill-rule="evenodd"/><path fill="#d0e0e3" d="m510.3622 888.25195l188.97635 0l0 188.97644l-188.97635 0z" fill-rule="evenodd"/><path stroke="#595959" stroke-width="2.0" stroke-linejoin="round" stroke-linecap="butt" d="m510.3622 888.25195l188.97635 0l0 188.97644l-188.97635 0z" fill-rule="evenodd"/><path fill="#ead1dc" d="m699.33856 888.25195l188.97638 0l0 188.97644l-188.97638 0z" fill-rule="evenodd"/><path stroke="#595959" stroke-width="2.0" stroke-linejoin="round" stroke-linecap="butt" d="m699.33856 888.25195l188.97638 0l0 188.97644l-188.97638 0z" fill-rule="evenodd"/><path fill="#595959" d="m689.8898 888.18896l0 0c0 -5.183655 4.2021484 -9.385803 9.385803 -9.385803l0 0c2.4893188 0 4.876587 0.98883057 6.63678 2.7490234c1.7601929 1.7601929 2.7490845 4.147522 2.7490845 6.63678l0 0c0 5.183655 -4.2022095 9.385864 -9.385864 9.385864l0 0c-5.183655 0 -9.385803 -4.2022095 -9.385803 -9.385864z" fill-rule="evenodd"/><path stroke="#595959" stroke-width="2.0" stroke-linejoin="round" stroke-linecap="butt" d="m689.8898 888.18896l0 0c0 -5.183655 4.2021484 -9.385803 9.385803 -9.385803l0 0c2.4893188 0 4.876587 0.98883057 6.63678 2.7490234c1.7601929 1.7601929 2.7490845 4.147522 2.7490845 6.63678l0 0c0 5.183655 -4.2022095 9.385864 -9.385864 9.385864l0 0c-5.183655 0 -9.385803 -4.2022095 -9.385803 -9.385864z" fill-rule="evenodd"/><path fill="#ffffff" d="m595.5276 982.7402l0 0c0 -5.183655 4.2021484 -9.385864 9.385803 -9.385864l0 0c2.4892578 0 4.876587 0.9888916 6.63678 2.7490845c1.7601929 1.7601929 2.7490234 4.147461 2.7490234 6.63678l0 0c0 5.183655 -4.2021484 9.385803 -9.385803 9.385803l0 0c-5.183655 0 -9.385803 -4.2021484 -9.385803 -9.385803z" fill-rule="evenodd"/><path stroke="#595959" stroke-width="2.0" stroke-linejoin="round" stroke-linecap="butt" d="m595.5276 982.7402l0 0c0 -5.183655 4.2021484 -9.385864 9.385803 -9.385864l0 0c2.4892578 0 4.876587 0.9888916 6.63678 2.7490845c1.7601929 1.7601929 2.7490234 4.147461 2.7490234 6.63678l0 0c0 5.183655 -4.2021484 9.385803 -9.385803 9.385803l0 0c-5.183655 0 -9.385803 -4.2021484 -9.385803 -9.385803z" fill-rule="evenodd"/><path fill="#ffffff" d="m784.4409 982.80316l0 0c0 -5.183655 4.2022095 -9.385864 9.385864 -9.385864l0 0c2.4892578 0 4.876587 0.9888916 6.63678 2.7490845c1.7601929 1.7601929 2.7490234 4.147522 2.7490234 6.63678l0 0c0 5.183655 -4.2021484 9.385803 -9.385803 9.385803l0 0c-5.183655 0 -9.385864 -4.2021484 -9.385864 -9.385803z" fill-rule="evenodd"/><path stroke="#595959" stroke-width="2.0" stroke-linejoin="round" stroke-linecap="butt" d="m784.4409 982.80316l0 0c0 -5.183655 4.2022095 -9.385864 9.385864 -9.385864l0 0c2.4892578 0 4.876587 0.9888916 6.63678 2.7490845c1.7601929 1.7601929 2.7490234 4.147522 2.7490234 6.63678l0 0c0 5.183655 -4.2021484 9.385803 -9.385803 9.385803l0 0c-5.183655 0 -9.385864 -4.2021484 -9.385864 -9.385803z" fill-rule="evenodd"/><path fill="#d0e0e3" d="m888.31494 888.25195l188.97644 0l0 188.97644l-188.97644 0z" fill-rule="evenodd"/><path stroke="#595959" stroke-width="2.0" stroke-linejoin="round" stroke-linecap="butt" d="m888.31494 888.25195l188.97644 0l0 188.97644l-188.97644 0z" fill-rule="evenodd"/><path fill="#595959" d="m878.86615 888.18896l0 0c0 -5.183655 4.2021484 -9.385803 9.385803 -9.385803l0 0c2.4893188 0 4.876587 0.98883057 6.63678 2.7490234c1.7601929 1.7601929 2.7490845 4.147522 2.7490845 6.63678l0 0c0 5.183655 -4.2022095 9.385864 -9.385864 9.385864l0 0c-5.183655 0 -9.385803 -4.2022095 -9.385803 -9.385864z" fill-rule="evenodd"/><path stroke="#595959" stroke-width="2.0" stroke-linejoin="round" stroke-linecap="butt" d="m878.86615 888.18896l0 0c0 -5.183655 4.2021484 -9.385803 9.385803 -9.385803l0 0c2.4893188 0 4.876587 0.98883057 6.63678 2.7490234c1.7601929 1.7601929 2.7490845 4.147522 2.7490845 6.63678l0 0c0 5.183655 -4.2022095 9.385864 -9.385864 9.385864l0 0c-5.183655 0 -9.385803 -4.2022095 -9.385803 -9.385864z" fill-rule="evenodd"/><path fill="#595959" d="m1067.8425 888.18896l0 0c0 -5.183655 4.2021484 -9.385803 9.385864 -9.385803l0 0c2.4892578 0 4.876587 0.98883057 6.6367188 2.7490234c1.7602539 1.7601929 2.7490234 4.147522 2.7490234 6.63678l0 0c0 5.183655 -4.2021484 9.385864 -9.385742 9.385864l0 0c-5.183716 0 -9.385864 -4.2022095 -9.385864 -9.385864z" fill-rule="evenodd"/><path stroke="#595959" stroke-width="2.0" stroke-linejoin="round" stroke-linecap="butt" d="m1067.8425 888.18896l0 0c0 -5.183655 4.2021484 -9.385803 9.385864 -9.385803l0 0c2.4892578 0 4.876587 0.98883057 6.6367188 2.7490234c1.7602539 1.7601929 2.7490234 4.147522 2.7490234 6.63678l0 0c0 5.183655 -4.2021484 9.385864 -9.385742 9.385864l0 0c-5.183716 0 -9.385864 -4.2022095 -9.385864 -9.385864z" fill-rule="evenodd"/><path fill="#595959" d="m1067.8425 1077.1654l0 0c0 -5.183716 4.2021484 -9.385864 9.385864 -9.385864l0 0c2.4892578 0 4.876587 0.9888916 6.6367188 2.7490234c1.7602539 1.7601318 2.7490234 4.147461 2.7490234 6.636841l0 0c0 5.1835938 -4.2021484 9.385742 -9.385742 9.385742l0 0c-5.183716 0 -9.385864 -4.2021484 -9.385864 -9.385742z" fill-rule="evenodd"/><path stroke="#595959" stroke-width="2.0" stroke-linejoin="round" stroke-linecap="butt" d="m1067.8425 1077.1654l0 0c0 -5.183716 4.2021484 -9.385864 9.385864 -9.385864l0 0c2.4892578 0 4.876587 0.9888916 6.6367188 2.7490234c1.7602539 1.7601318 2.7490234 4.147461 2.7490234 6.636841l0 0c0 5.1835938 -4.2021484 9.385742 -9.385742 9.385742l0 0c-5.183716 0 -9.385864 -4.2021484 -9.385864 -9.385742z" fill-rule="evenodd"/><path fill="#ffffff" d="m973.4803 982.7402l0 0c0 -5.183655 4.2022095 -9.385864 9.385864 -9.385864l0 0c2.4892578 0 4.876587 0.9888916 6.63678 2.7490845c1.7601929 1.7601929 2.7490234 4.147461 2.7490234 6.63678l0 0c0 5.183655 -4.2021484 9.385803 -9.385803 9.385803l0 0c-5.183655 0 -9.385864 -4.2021484 -9.385864 -9.385803z" fill-rule="evenodd"/><path stroke="#595959" stroke-width="2.0" stroke-linejoin="round" stroke-linecap="butt" d="m973.4803 982.7402l0 0c0 -5.183655 4.2022095 -9.385864 9.385864 -9.385864l0 0c2.4892578 0 4.876587 0.9888916 6.63678 2.7490845c1.7601929 1.7601929 2.7490234 4.147461 2.7490234 6.63678l0 0c0 5.183655 -4.2021484 9.385803 -9.385803 9.385803l0 0c-5.183655 0 -9.385864 -4.2021484 -9.385864 -9.385803z" fill-rule="evenodd"/><path fill="#ead1dc" d="m510.29922 132.34645l94.48819 -94.48818l94.48816 94.48818z" fill-rule="evenodd"/><path stroke="#595959" stroke-width="2.0" stroke-linejoin="round" stroke-linecap="butt" stroke-dasharray="16.0,6.0,2.0,6.0" d="m510.29922 132.34645l94.48819 -94.48818l94.48816 94.48818z" fill-rule="evenodd"/><path fill="#ffffff" d="m595.40155 37.795277l0 0c0 -5.183651 4.2022095 -9.385828 9.385864 -9.385828l0 0c2.4892578 0 4.876587 0.9888611 6.63678 2.7490444c1.7601929 1.7601852 2.7490234 4.1475067 2.7490234 6.6367836l0 0c0 5.183647 -4.2021484 9.385826 -9.385803 9.385826l0 0c-5.183655 0 -9.385864 -4.202179 -9.385864 -9.385826z" fill-rule="evenodd"/><path stroke="#595959" stroke-width="2.0" stroke-linejoin="round" stroke-linecap="butt" d="m595.40155 37.795277l0 0c0 -5.183651 4.2022095 -9.385828 9.385864 -9.385828l0 0c2.4892578 0 4.876587 0.9888611 6.63678 2.7490444c1.7601929 1.7601852 2.7490234 4.1475067 2.7490234 6.6367836l0 0c0 5.183647 -4.2021484 9.385826 -9.385803 9.385826l0 0c-5.183655 0 -9.385864 -4.202179 -9.385864 -9.385826z" fill-rule="evenodd"/><path fill="#d0e0e3" d="m132.34645 888.25195l-94.48818 -94.48816l94.48818 -94.48822z" fill-rule="evenodd"/><path stroke="#595959" stroke-width="2.0" stroke-linejoin="round" stroke-linecap="butt" d="m132.34645 888.25195l-94.48818 -94.48816l94.48818 -94.48822z" fill-rule="evenodd"/><path fill="#595959" d="m122.89764 699.2126l0 0c0 -5.183655 4.202179 -9.385803 9.385826 -9.385803l0 0c2.489273 0 4.876602 0.98883057 6.63678 2.7490234c1.7601929 1.7601929 2.749054 4.147522 2.749054 6.63678l0 0c0 5.183655 -4.202179 9.385864 -9.385834 9.385864l0 0c-5.183647 0 -9.385826 -4.2022095 -9.385826 -9.385864z" fill-rule="evenodd"/><path stroke="#595959" stroke-width="2.0" stroke-linejoin="round" stroke-linecap="butt" d="m122.89764 699.2126l0 0c0 -5.183655 4.202179 -9.385803 9.385826 -9.385803l0 0c2.489273 0 4.876602 0.98883057 6.63678 2.7490234c1.7601929 1.7601929 2.749054 4.147522 2.749054 6.63678l0 0c0 5.183655 -4.202179 9.385864 -9.385834 9.385864l0 0c-5.183647 0 -9.385826 -4.2022095 -9.385826 -9.385864z" fill-rule="evenodd"/><path fill="#ffffff" d="m28.409449 793.7638l0 0c0 -5.183655 4.202177 -9.385864 9.385828 -9.385864l0 0c2.489277 0 4.8765984 0.9888916 6.63678 2.7490845c1.7601852 1.7601929 2.7490463 4.147461 2.7490463 6.63678l0 0c0 5.183655 -4.202179 9.385803 -9.385826 9.385803l0 0c-5.183651 0 -9.385828 -4.2021484 -9.385828 -9.385803z" fill-rule="evenodd"/><path stroke="#595959" stroke-width="2.0" stroke-linejoin="round" stroke-linecap="butt" d="m28.409449 793.7638l0 0c0 -5.183655 4.202177 -9.385864 9.385828 -9.385864l0 0c2.489277 0 4.8765984 0.9888916 6.63678 2.7490845c1.7601852 1.7601929 2.7490463 4.147461 2.7490463 6.63678l0 0c0 5.183655 -4.202179 9.385803 -9.385826 9.385803l0 0c-5.183651 0 -9.385828 -4.2021484 -9.385828 -9.385803z" fill-rule="evenodd"/><path fill="#595959" d="m122.89764 888.18896l0 0c0 -5.183655 4.202179 -9.385803 9.385826 -9.385803l0 0c2.489273 0 4.876602 0.98883057 6.63678 2.7490234c1.7601929 1.7601929 2.749054 4.147522 2.749054 6.63678l0 0c0 5.183655 -4.202179 9.385864 -9.385834 9.385864l0 0c-5.183647 0 -9.385826 -4.2022095 -9.385826 -9.385864z" fill-rule="evenodd"/><path stroke="#595959" stroke-width="2.0" stroke-linejoin="round" stroke-linecap="butt" d="m122.89764 888.18896l0 0c0 -5.183655 4.202179 -9.385803 9.385826 -9.385803l0 0c2.489273 0 4.876602 0.98883057 6.63678 2.7490234c1.7601929 1.7601929 2.749054 4.147522 2.749054 6.63678l0 0c0 5.183655 -4.202179 9.385864 -9.385834 9.385864l0 0c-5.183647 0 -9.385826 -4.2022095 -9.385826 -9.385864z" fill-rule="evenodd"/><path fill="#ead1dc" d="m1077.1024 132.34645l94.48816 94.48819l-94.48816 94.488205z" fill-rule="evenodd"/><path stroke="#595959" stroke-width="2.0" stroke-linejoin="round" stroke-linecap="butt" d="m1077.1024 132.34645l94.48816 94.48819l-94.48816 94.488205z" fill-rule="evenodd"/><path fill="#595959" d="m1077.1654 122.89764l0 0c5.1835938 0 9.385742 4.202179 9.385742 9.385826l0 0c0 2.489273 -0.98876953 4.876602 -2.7490234 6.63678c-1.7601318 1.7601929 -4.147461 2.749054 -6.6367188 2.749054l0 0c-5.183716 0 -9.385864 -4.202179 -9.385864 -9.385834l0 0c0 -5.183647 4.2021484 -9.385826 9.385864 -9.385826z" fill-rule="evenodd"/><path stroke="#595959" stroke-width="2.0" stroke-linejoin="round" stroke-linecap="butt" d="m1077.1654 122.89764l0 0c5.1835938 0 9.385742 4.202179 9.385742 9.385826l0 0c0 2.489273 -0.98876953 4.876602 -2.7490234 6.63678c-1.7601318 1.7601929 -4.147461 2.749054 -6.6367188 2.749054l0 0c-5.183716 0 -9.385864 -4.202179 -9.385864 -9.385834l0 0c0 -5.183647 4.2021484 -9.385826 9.385864 -9.385826z" fill-rule="evenodd"/><path fill="#595959" d="m1077.1654 311.87402l0 0c5.1835938 0 9.385742 4.202179 9.385742 9.385834l0 0c0 2.4892578 -0.98876953 4.876587 -2.7490234 6.63678c-1.7601318 1.7601624 -4.147461 2.7490234 -6.6367188 2.7490234l0 0c-5.183716 0 -9.385864 -4.202179 -9.385864 -9.385803l0 0c0 -5.183655 4.2021484 -9.385834 9.385864 -9.385834z" fill-rule="evenodd"/><path stroke="#595959" stroke-width="2.0" stroke-linejoin="round" stroke-linecap="butt" d="m1077.1654 311.87402l0 0c5.1835938 0 9.385742 4.202179 9.385742 9.385834l0 0c0 2.4892578 -0.98876953 4.876587 -2.7490234 6.63678c-1.7601318 1.7601624 -4.147461 2.7490234 -6.6367188 2.7490234l0 0c-5.183716 0 -9.385864 -4.202179 -9.385864 -9.385803l0 0c0 -5.183655 4.2021484 -9.385834 9.385864 -9.385834z" fill-rule="evenodd"/><path fill="#ffffff" d="m1171.6536 217.44882l0 0c5.1835938 0 9.385864 4.202179 9.385864 9.3858185l0 0c0 2.4892883 -0.9888916 4.876602 -2.7491455 6.63678c-1.7601318 1.7601929 -4.147461 2.749054 -6.6367188 2.749054l0 0c-5.183716 0 -9.385864 -4.202179 -9.385864 -9.385834l0 0c0 -5.1836395 4.2021484 -9.3858185 9.385864 -9.3858185z" fill-rule="evenodd"/><path stroke="#595959" stroke-width="2.0" stroke-linejoin="round" stroke-linecap="butt" d="m1171.6536 217.44882l0 0c5.1835938 0 9.385864 4.202179 9.385864 9.3858185l0 0c0 2.4892883 -0.9888916 4.876602 -2.7491455 6.63678c-1.7601318 1.7601929 -4.147461 2.749054 -6.6367188 2.749054l0 0c-5.183716 0 -9.385864 -4.202179 -9.385864 -9.385834l0 0c0 -5.1836395 4.2021484 -9.3858185 9.385864 -9.3858185z" fill-rule="evenodd"/><path fill="#d0e0e3" d="m510.3622 1077.1024l-94.48819 94.48816l-94.48819 -94.48816z" fill-rule="evenodd"/><path stroke="#595959" stroke-width="2.0" stroke-linejoin="round" stroke-linecap="butt" d="m510.3622 1077.1024l-94.48819 94.48816l-94.48819 -94.48816z" fill-rule="evenodd"/><path fill="#595959" d="m321.32285 1086.5511l0 0c-5.183655 0 -9.385834 -4.2021484 -9.385834 -9.385742l0 0c0 -2.48938 0.9888611 -4.876709 2.749054 -6.636841c1.7601624 -1.7601318 4.1474915 -2.7490234 6.63678 -2.7490234l0 0c5.1836243 0 9.385803 4.2021484 9.385803 9.385864l0 0c0 5.1835938 -4.202179 9.385742 -9.385803 9.385742z" fill-rule="evenodd"/><path stroke="#595959" stroke-width="2.0" stroke-linejoin="round" stroke-linecap="butt" d="m321.32285 1086.5511l0 0c-5.183655 0 -9.385834 -4.2021484 -9.385834 -9.385742l0 0c0 -2.48938 0.9888611 -4.876709 2.749054 -6.636841c1.7601624 -1.7601318 4.1474915 -2.7490234 6.63678 -2.7490234l0 0c5.1836243 0 9.385803 4.2021484 9.385803 9.385864l0 0c0 5.1835938 -4.202179 9.385742 -9.385803 9.385742z" fill-rule="evenodd"/><path fill="#ffffff" d="m415.87402 1181.0394l0 0c-5.183655 0 -9.385834 -4.2022705 -9.385834 -9.385864l0 0c0 -2.4892578 0.9888611 -4.876587 2.749054 -6.636841c1.7601624 -1.7601318 4.1474915 -2.7490234 6.63678 -2.7490234l0 0c5.183655 0 9.385834 4.2021484 9.385834 9.385864l0 0c0 5.1835938 -4.202179 9.385864 -9.385834 9.385864z" fill-rule="evenodd"/><path stroke="#595959" stroke-width="2.0" stroke-linejoin="round" stroke-linecap="butt" d="m415.87402 1181.0394l0 0c-5.183655 0 -9.385834 -4.2022705 -9.385834 -9.385864l0 0c0 -2.4892578 0.9888611 -4.876587 2.749054 -6.636841c1.7601624 -1.7601318 4.1474915 -2.7490234 6.63678 -2.7490234l0 0c5.183655 0 9.385834 4.2021484 9.385834 9.385864l0 0c0 5.1835938 -4.202179 9.385864 -9.385834 9.385864z" fill-rule="evenodd"/><path fill="#595959" d="m510.29922 1086.5511l0 0c-5.183655 0 -9.385834 -4.2021484 -9.385834 -9.385742l0 0c0 -2.48938 0.9888611 -4.876709 2.749054 -6.636841c1.7601624 -1.7601318 4.1474915 -2.7490234 6.63678 -2.7490234l0 0c5.1836243 0 9.385834 4.2021484 9.385834 9.385864l0 0c0 5.1835938 -4.2022095 9.385742 -9.385834 9.385742z" fill-rule="evenodd"/><path stroke="#595959" stroke-width="2.0" stroke-linejoin="round" stroke-linecap="butt" d="m510.29922 1086.5511l0 0c-5.183655 0 -9.385834 -4.2021484 -9.385834 -9.385742l0 0c0 -2.48938 0.9888611 -4.876709 2.749054 -6.636841c1.7601624 -1.7601318 4.1474915 -2.7490234 6.63678 -2.7490234l0 0c5.1836243 0 9.385834 4.2021484 9.385834 9.385864l0 0c0 5.1835938 -4.2022095 9.385742 -9.385834 9.385742z" fill-rule="evenodd"/><path fill="#d0e0e3" d="m888.31494 1077.1024l-94.48816 94.48816l-94.48822 -94.48816z" fill-rule="evenodd"/><path stroke="#595959" stroke-width="2.0" stroke-linejoin="round" stroke-linecap="butt" d="m888.31494 1077.1024l-94.48816 94.48816l-94.48822 -94.48816z" fill-rule="evenodd"/><path fill="#595959" d="m699.2756 1086.5511l0 0c-5.183655 0 -9.385803 -4.2021484 -9.385803 -9.385742l0 0c0 -2.48938 0.98883057 -4.876709 2.7490234 -6.636841c1.7601929 -1.7601318 4.147522 -2.7490234 6.63678 -2.7490234l0 0c5.183655 0 9.385864 4.2021484 9.385864 9.385864l0 0c0 5.1835938 -4.2022095 9.385742 -9.385864 9.385742z" fill-rule="evenodd"/><path stroke="#595959" stroke-width="2.0" stroke-linejoin="round" stroke-linecap="butt" d="m699.2756 1086.5511l0 0c-5.183655 0 -9.385803 -4.2021484 -9.385803 -9.385742l0 0c0 -2.48938 0.98883057 -4.876709 2.7490234 -6.636841c1.7601929 -1.7601318 4.147522 -2.7490234 6.63678 -2.7490234l0 0c5.183655 0 9.385864 4.2021484 9.385864 9.385864l0 0c0 5.1835938 -4.2022095 9.385742 -9.385864 9.385742z" fill-rule="evenodd"/><path fill="#ffffff" d="m793.8268 1181.0394l0 0c-5.183655 0 -9.385864 -4.2022705 -9.385864 -9.385864l0 0c0 -2.4892578 0.9888916 -4.876587 2.7490845 -6.636841c1.7601929 -1.7601318 4.147522 -2.7490234 6.63678 -2.7490234l0 0c5.183655 0 9.385803 4.2021484 9.385803 9.385864l0 0c0 5.1835938 -4.2021484 9.385864 -9.385803 9.385864z" fill-rule="evenodd"/><path stroke="#595959" stroke-width="2.0" stroke-linejoin="round" stroke-linecap="butt" d="m793.8268 1181.0394l0 0c-5.183655 0 -9.385864 -4.2022705 -9.385864 -9.385864l0 0c0 -2.4892578 0.9888916 -4.876587 2.7490845 -6.636841c1.7601929 -1.7601318 4.147522 -2.7490234 6.63678 -2.7490234l0 0c5.183655 0 9.385803 4.2021484 9.385803 9.385864l0 0c0 5.1835938 -4.2021484 9.385864 -9.385803 9.385864z" fill-rule="evenodd"/><path fill="#595959" d="m888.25195 1086.5511l0 0c-5.183655 0 -9.385803 -4.2021484 -9.385803 -9.385742l0 0c0 -2.48938 0.98883057 -4.876709 2.7490234 -6.636841c1.7601929 -1.7601318 4.147522 -2.7490234 6.63678 -2.7490234l0 0c5.183655 0 9.385864 4.2021484 9.385864 9.385864l0 0c0 5.1835938 -4.2022095 9.385742 -9.385864 9.385742z" fill-rule="evenodd"/><path stroke="#595959" stroke-width="2.0" stroke-linejoin="round" stroke-linecap="butt" d="m888.25195 1086.5511l0 0c-5.183655 0 -9.385803 -4.2021484 -9.385803 -9.385742l0 0c0 -2.48938 0.98883057 -4.876709 2.7490234 -6.636841c1.7601929 -1.7601318 4.147522 -2.7490234 6.63678 -2.7490234l0 0c5.183655 0 9.385864 4.2021484 9.385864 9.385864l0 0c0 5.1835938 -4.2022095 9.385742 -9.385864 9.385742z" fill-rule="evenodd"/><path fill="#ead1dc" d="m510.3622 321.19684l-94.48819 -94.488174l94.48819 -94.48819z" fill-rule="evenodd"/><path stroke="#595959" stroke-width="2.0" stroke-linejoin="round" stroke-linecap="butt" stroke-dasharray="16.0,6.0,2.0,6.0" d="m510.3622 321.19684l-94.48819 -94.488174l94.48819 -94.48819z" fill-rule="evenodd"/><path fill="#595959" d="m510.29922 141.6693l0 0c-5.183655 0 -9.385834 -4.202179 -9.385834 -9.385834l0 0c0 -2.489273 0.9888611 -4.8765945 2.749054 -6.63678c1.7601624 -1.7601852 4.1474915 -2.7490463 6.63678 -2.7490463l0 0c5.1836243 0 9.385834 4.202179 9.385834 9.385826l0 0c0 5.183655 -4.2022095 9.385834 -9.385834 9.385834z" fill-rule="evenodd"/><path stroke="#595959" stroke-width="2.0" stroke-linejoin="round" stroke-linecap="butt" d="m510.29922 141.6693l0 0c-5.183655 0 -9.385834 -4.202179 -9.385834 -9.385834l0 0c0 -2.489273 0.9888611 -4.8765945 2.749054 -6.63678c1.7601624 -1.7601852 4.1474915 -2.7490463 6.63678 -2.7490463l0 0c5.1836243 0 9.385834 4.202179 9.385834 9.385826l0 0c0 5.183655 -4.2022095 9.385834 -9.385834 9.385834z" fill-rule="evenodd"/><path fill="#ffffff" d="m415.81104 236.09448l0 0c-5.183655 0 -9.385834 -4.202179 -9.385834 -9.3858185l0 0c0 -2.489273 0.9888611 -4.876602 2.749054 -6.63678c1.7601624 -1.7601929 4.1474915 -2.749054 6.63678 -2.749054l0 0c5.1836243 0 9.385803 4.202179 9.385803 9.385834l0 0c0 5.1836395 -4.202179 9.3858185 -9.385803 9.3858185z" fill-rule="evenodd"/><path stroke="#595959" stroke-width="2.0" stroke-linejoin="round" stroke-linecap="butt" d="m415.81104 236.09448l0 0c-5.183655 0 -9.385834 -4.202179 -9.385834 -9.3858185l0 0c0 -2.489273 0.9888611 -4.876602 2.749054 -6.63678c1.7601624 -1.7601929 4.1474915 -2.749054 6.63678 -2.749054l0 0c5.1836243 0 9.385803 4.202179 9.385803 9.385834l0 0c0 5.1836395 -4.202179 9.3858185 -9.385803 9.3858185z" fill-rule="evenodd"/><path fill="#ead1dc" d="m699.2126 132.34645l94.48822 94.48819l-94.48822 94.488205z" fill-rule="evenodd"/><path stroke="#595959" stroke-width="2.0" stroke-linejoin="round" stroke-linecap="butt" stroke-dasharray="16.0,6.0,2.0,6.0" d="m699.2126 132.34645l94.48822 94.48819l-94.48822 94.488205z" fill-rule="evenodd"/><path fill="#595959" d="m699.2756 122.89764l0 0c5.183655 0 9.385864 4.202179 9.385864 9.385826l0 0c0 2.489273 -0.9888916 4.876602 -2.7490845 6.63678c-1.7601929 1.7601929 -4.147461 2.749054 -6.63678 2.749054l0 0c-5.183655 0 -9.385803 -4.202179 -9.385803 -9.385834l0 0c0 -5.183647 4.2021484 -9.385826 9.385803 -9.385826z" fill-rule="evenodd"/><path stroke="#595959" stroke-width="2.0" stroke-linejoin="round" stroke-linecap="butt" d="m699.2756 122.89764l0 0c5.183655 0 9.385864 4.202179 9.385864 9.385826l0 0c0 2.489273 -0.9888916 4.876602 -2.7490845 6.63678c-1.7601929 1.7601929 -4.147461 2.749054 -6.63678 2.749054l0 0c-5.183655 0 -9.385803 -4.202179 -9.385803 -9.385834l0 0c0 -5.183647 4.2021484 -9.385826 9.385803 -9.385826z" fill-rule="evenodd"/><path fill="#ffffff" d="m793.7638 217.44882l0 0c5.183655 0 9.385803 4.202179 9.385803 9.3858185l0 0c0 2.4892883 -0.98883057 4.876602 -2.7490234 6.63678c-1.7601929 1.7601929 -4.147522 2.749054 -6.63678 2.749054l0 0c-5.183655 0 -9.385864 -4.202179 -9.385864 -9.385834l0 0c0 -5.1836395 4.2022095 -9.3858185 9.385864 -9.3858185z" fill-rule="evenodd"/><path stroke="#595959" stroke-width="2.0" stroke-linejoin="round" stroke-linecap="butt" d="m793.7638 217.44882l0 0c5.183655 0 9.385803 4.202179 9.385803 9.3858185l0 0c0 2.4892883 -0.98883057 4.876602 -2.7490234 6.63678c-1.7601929 1.7601929 -4.147522 2.749054 -6.63678 2.749054l0 0c-5.183655 0 -9.385864 -4.202179 -9.385864 -9.385834l0 0c0 -5.1836395 4.2022095 -9.3858185 9.385864 -9.3858185z" fill-rule="evenodd"/><path fill="#ead1dc" d="m699.2756 321.22833l-94.48816 94.48819l-94.48819 -94.48819z" fill-rule="evenodd"/><path stroke="#595959" stroke-width="2.0" stroke-linejoin="round" stroke-linecap="butt" stroke-dasharray="16.0,6.0,2.0,6.0" d="m699.2756 321.22833l-94.48816 94.48819l-94.48819 -94.48819z" fill-rule="evenodd"/><path fill="#595959" d="m708.7244 321.29135l0 0c0 5.1836243 -4.2022095 9.385803 -9.385864 9.385803l0 0c-2.4892578 0 -4.876587 -0.9888611 -6.63678 -2.7490234c-1.7601929 -1.7601929 -2.7490234 -4.147522 -2.7490234 -6.63678l0 0c0 -5.183655 4.2021484 -9.385834 9.385803 -9.385834l0 0c5.183655 0 9.385864 4.202179 9.385864 9.385834z" fill-rule="evenodd"/><path stroke="#595959" stroke-width="2.0" stroke-linejoin="round" stroke-linecap="butt" d="m708.7244 321.29135l0 0c0 5.1836243 -4.2022095 9.385803 -9.385864 9.385803l0 0c-2.4892578 0 -4.876587 -0.9888611 -6.63678 -2.7490234c-1.7601929 -1.7601929 -2.7490234 -4.147522 -2.7490234 -6.63678l0 0c0 -5.183655 4.2021484 -9.385834 9.385803 -9.385834l0 0c5.183655 0 9.385864 4.202179 9.385864 9.385834z" fill-rule="evenodd"/><path fill="#595959" d="m519.74805 321.29135l0 0c0 5.1836243 -4.2022095 9.385803 -9.385834 9.385803l0 0c-2.4892883 0 -4.8766174 -0.9888611 -6.63678 -2.7490234c-1.7601929 -1.7601929 -2.749054 -4.147522 -2.749054 -6.63678l0 0c0 -5.183655 4.202179 -9.385834 9.385834 -9.385834l0 0c5.1836243 0 9.385834 4.202179 9.385834 9.385834z" fill-rule="evenodd"/><path stroke="#595959" stroke-width="2.0" stroke-linejoin="round" stroke-linecap="butt" d="m519.74805 321.29135l0 0c0 5.1836243 -4.2022095 9.385803 -9.385834 9.385803l0 0c-2.4892883 0 -4.8766174 -0.9888611 -6.63678 -2.7490234c-1.7601929 -1.7601929 -2.749054 -4.147522 -2.749054 -6.63678l0 0c0 -5.183655 4.202179 -9.385834 9.385834 -9.385834l0 0c5.1836243 0 9.385834 4.202179 9.385834 9.385834z" fill-rule="evenodd"/><path fill="#ffffff" d="m614.1732 415.77954l0 0c0 5.1836243 -4.2021484 9.385803 -9.385803 9.385803l0 0c-2.4893188 0 -4.876587 -0.9888611 -6.63678 -2.7490234c-1.7601929 -1.7601929 -2.7490845 -4.147522 -2.7490845 -6.63678l0 0c0 -5.183655 4.2022095 -9.385834 9.385864 -9.385834l0 0c5.183655 0 9.385803 4.202179 9.385803 9.385834z" fill-rule="evenodd"/><path stroke="#595959" stroke-width="2.0" stroke-linejoin="round" stroke-linecap="butt" d="m614.1732 415.77954l0 0c0 5.1836243 -4.2021484 9.385803 -9.385803 9.385803l0 0c-2.4893188 0 -4.876587 -0.9888611 -6.63678 -2.7490234c-1.7601929 -1.7601929 -2.7490845 -4.147522 -2.7490845 -6.63678l0 0c0 -5.183655 4.2022095 -9.385834 9.385864 -9.385834l0 0c5.183655 0 9.385803 4.202179 9.385803 9.385834z" fill-rule="evenodd"/><path fill="#d0e0e3" d="m888.18896 505.62204l188.97644 0l0 188.97641l-188.97644 0z" fill-rule="evenodd"/><path stroke="#595959" stroke-width="2.0" stroke-linejoin="round" stroke-linecap="butt" stroke-dasharray="16.0,6.0,2.0,6.0" d="m888.18896 505.62204l188.97644 0l0 188.97641l-188.97644 0z" fill-rule="evenodd"/><path fill="#ffffff" d="m973.3543 600.1102l0 0c0 -5.183655 4.2022095 -9.385803 9.385864 -9.385803l0 0c2.4892578 0 4.876587 0.98883057 6.63678 2.7490234c1.7601929 1.7601929 2.7490234 4.147522 2.7490234 6.63678l0 0c0 5.183655 -4.2021484 9.385803 -9.385803 9.385803l0 0c-5.183655 0 -9.385864 -4.2021484 -9.385864 -9.385803z" fill-rule="evenodd"/><path stroke="#595959" stroke-width="2.0" stroke-linejoin="round" stroke-linecap="butt" d="m973.3543 600.1102l0 0c0 -5.183655 4.2022095 -9.385803 9.385864 -9.385803l0 0c2.4892578 0 4.876587 0.98883057 6.63678 2.7490234c1.7601929 1.7601929 2.7490234 4.147522 2.7490234 6.63678l0 0c0 5.183655 -4.2021484 9.385803 -9.385803 9.385803l0 0c-5.183655 0 -9.385864 -4.2021484 -9.385864 -9.385803z" fill-rule="evenodd"/><path fill="#ead1dc" d="m888.18896 505.62204l94.48822 -94.48819l94.48822 94.48819z" fill-rule="evenodd"/><path stroke="#595959" stroke-width="2.0" stroke-linejoin="round" stroke-linecap="butt" stroke-dasharray="16.0,6.0,2.0,6.0" d="m888.18896 505.62204l94.48822 -94.48819l94.48822 94.48819z" fill-rule="evenodd"/><path fill="#ffffff" d="m973.2913 411.07086l0 0c0 -5.183655 4.2022095 -9.385834 9.385864 -9.385834l0 0c2.4892578 0 4.876587 0.9888611 6.63678 2.749054c1.7601929 1.7601929 2.7490234 4.147522 2.7490234 6.63678l0 0c0 5.183655 -4.2021484 9.385834 -9.385803 9.385834l0 0c-5.183655 0 -9.385864 -4.202179 -9.385864 -9.385834z" fill-rule="evenodd"/><path stroke="#595959" stroke-width="2.0" stroke-linejoin="round" stroke-linecap="butt" d="m973.2913 411.07086l0 0c0 -5.183655 4.2022095 -9.385834 9.385864 -9.385834l0 0c2.4892578 0 4.876587 0.9888611 6.63678 2.749054c1.7601929 1.7601929 2.7490234 4.147522 2.7490234 6.63678l0 0c0 5.183655 -4.2021484 9.385834 -9.385803 9.385834l0 0c-5.183655 0 -9.385864 -4.202179 -9.385864 -9.385834z" fill-rule="evenodd"/><path fill="#ead1dc" d="m888.25195 694.4724l-94.48816 -94.48816l94.48816 -94.48819z" fill-rule="evenodd"/><path stroke="#595959" stroke-width="2.0" stroke-linejoin="round" stroke-linecap="butt" stroke-dasharray="16.0,6.0,2.0,6.0" d="m888.25195 694.4724l-94.48816 -94.48816l94.48816 -94.48819z" fill-rule="evenodd"/><path fill="#595959" d="m888.18896 514.9449l0 0c-5.183655 0 -9.385803 -4.202179 -9.385803 -9.385834l0 0c0 -2.4892578 0.98883057 -4.876587 2.7490234 -6.63678c1.7601929 -1.7601929 4.147522 -2.749054 6.63678 -2.749054l0 0c5.183655 0 9.385864 4.202179 9.385864 9.385834l0 0c0 5.183655 -4.2022095 9.385834 -9.385864 9.385834z" fill-rule="evenodd"/><path stroke="#595959" stroke-width="2.0" stroke-linejoin="round" stroke-linecap="butt" d="m888.18896 514.9449l0 0c-5.183655 0 -9.385803 -4.202179 -9.385803 -9.385834l0 0c0 -2.4892578 0.98883057 -4.876587 2.7490234 -6.63678c1.7601929 -1.7601929 4.147522 -2.749054 6.63678 -2.749054l0 0c5.183655 0 9.385864 4.202179 9.385864 9.385834l0 0c0 5.183655 -4.2022095 9.385834 -9.385864 9.385834z" fill-rule="evenodd"/><path fill="#ffffff" d="m793.7008 609.37006l0 0c-5.183655 0 -9.385864 -4.2021484 -9.385864 -9.385803l0 0c0 -2.4892578 0.9888916 -4.876587 2.7490845 -6.63678c1.7601929 -1.7601929 4.147461 -2.7490234 6.63678 -2.7490234l0 0c5.183655 0 9.385803 4.2021484 9.385803 9.385803l0 0c0 5.183655 -4.2021484 9.385803 -9.385803 9.385803z" fill-rule="evenodd"/><path stroke="#595959" stroke-width="2.0" stroke-linejoin="round" stroke-linecap="butt" d="m793.7008 609.37006l0 0c-5.183655 0 -9.385864 -4.2021484 -9.385864 -9.385803l0 0c0 -2.4892578 0.9888916 -4.876587 2.7490845 -6.63678c1.7601929 -1.7601929 4.147461 -2.7490234 6.63678 -2.7490234l0 0c5.183655 0 9.385803 4.2021484 9.385803 9.385803l0 0c0 5.183655 -4.2021484 9.385803 -9.385803 9.385803z" fill-rule="evenodd"/><path fill="#ead1dc" d="m1077.1024 505.62204l94.48816 94.48819l-94.48816 94.48822z" fill-rule="evenodd"/><path stroke="#595959" stroke-width="2.0" stroke-linejoin="round" stroke-linecap="butt" stroke-dasharray="16.0,6.0,2.0,6.0" d="m1077.1024 505.62204l94.48816 94.48819l-94.48816 94.48822z" fill-rule="evenodd"/><path fill="#595959" d="m1077.1654 496.17322l0 0c5.1835938 0 9.385742 4.202179 9.385742 9.385834l0 0c0 2.4892883 -0.98876953 4.876587 -2.7490234 6.6368103c-1.7601318 1.7601318 -4.147461 2.7490234 -6.6367188 2.7490234l0 0c-5.183716 0 -9.385864 -4.202179 -9.385864 -9.385834l0 0c0 -5.183655 4.2021484 -9.385834 9.385864 -9.385834z" fill-rule="evenodd"/><path stroke="#595959" stroke-width="2.0" stroke-linejoin="round" stroke-linecap="butt" d="m1077.1654 496.17322l0 0c5.1835938 0 9.385742 4.202179 9.385742 9.385834l0 0c0 2.4892883 -0.98876953 4.876587 -2.7490234 6.6368103c-1.7601318 1.7601318 -4.147461 2.7490234 -6.6367188 2.7490234l0 0c-5.183716 0 -9.385864 -4.202179 -9.385864 -9.385834l0 0c0 -5.183655 4.2021484 -9.385834 9.385864 -9.385834z" fill-rule="evenodd"/><path fill="#ffffff" d="m1171.6536 590.7244l0 0c5.1835938 0 9.385864 4.2021484 9.385864 9.385803l0 0c0 2.4892578 -0.9888916 4.876587 -2.7491455 6.63678c-1.7601318 1.7601929 -4.147461 2.7490234 -6.6367188 2.7490234l0 0c-5.183716 0 -9.385864 -4.2021484 -9.385864 -9.385803l0 0c0 -5.183655 4.2021484 -9.385803 9.385864 -9.385803z" fill-rule="evenodd"/><path stroke="#595959" stroke-width="2.0" stroke-linejoin="round" stroke-linecap="butt" d="m1171.6536 590.7244l0 0c5.1835938 0 9.385864 4.2021484 9.385864 9.385803l0 0c0 2.4892578 -0.9888916 4.876587 -2.7491455 6.63678c-1.7601318 1.7601929 -4.147461 2.7490234 -6.6367188 2.7490234l0 0c-5.183716 0 -9.385864 -4.2021484 -9.385864 -9.385803l0 0c0 -5.183655 4.2021484 -9.385803 9.385864 -9.385803z" fill-rule="evenodd"/><path fill="#ead1dc" d="m1077.1654 694.50397l-94.48822 94.48816l-94.48822 -94.48816z" fill-rule="evenodd"/><path stroke="#595959" stroke-width="2.0" stroke-linejoin="round" stroke-linecap="butt" stroke-dasharray="16.0,6.0,2.0,6.0" d="m1077.1654 694.50397l-94.48822 94.48816l-94.48822 -94.48816z" fill-rule="evenodd"/><path fill="#595959" d="m1086.6141 694.56696l0 0c0 5.1835938 -4.2021484 9.385803 -9.385742 9.385803l0 0c-2.48938 0 -4.876587 -0.9888916 -6.636841 -2.7490234c-1.7601318 -1.7601929 -2.7490234 -4.147522 -2.7490234 -6.63678l0 0c0 -5.183655 4.2021484 -9.385864 9.385864 -9.385864l0 0c5.1835938 0 9.385742 4.2022095 9.385742 9.385864z" fill-rule="evenodd"/><path stroke="#595959" stroke-width="2.0" stroke-linejoin="round" stroke-linecap="butt" d="m1086.6141 694.56696l0 0c0 5.1835938 -4.2021484 9.385803 -9.385742 9.385803l0 0c-2.48938 0 -4.876587 -0.9888916 -6.636841 -2.7490234c-1.7601318 -1.7601929 -2.7490234 -4.147522 -2.7490234 -6.63678l0 0c0 -5.183655 4.2021484 -9.385864 9.385864 -9.385864l0 0c5.1835938 0 9.385742 4.2022095 9.385742 9.385864z" fill-rule="evenodd"/><path fill="#595959" d="m897.6378 694.56696l0 0c0 5.1835938 -4.2022095 9.385803 -9.385864 9.385803l0 0c-2.4892578 0 -4.876587 -0.9888916 -6.63678 -2.7490234c-1.7601929 -1.7601929 -2.7490234 -4.147522 -2.7490234 -6.63678l0 0c0 -5.183655 4.2021484 -9.385864 9.385803 -9.385864l0 0c5.183655 0 9.385864 4.2022095 9.385864 9.385864z" fill-rule="evenodd"/><path stroke="#595959" stroke-width="2.0" stroke-linejoin="round" stroke-linecap="butt" d="m897.6378 694.56696l0 0c0 5.1835938 -4.2022095 9.385803 -9.385864 9.385803l0 0c-2.4892578 0 -4.876587 -0.9888916 -6.63678 -2.7490234c-1.7601929 -1.7601929 -2.7490234 -4.147522 -2.7490234 -6.63678l0 0c0 -5.183655 4.2021484 -9.385864 9.385803 -9.385864l0 0c5.183655 0 9.385864 4.2022095 9.385864 9.385864z" fill-rule="evenodd"/><path fill="#ffffff" d="m992.063 789.0551l0 0c0 5.183655 -4.2021484 9.385803 -9.385803 9.385803l0 0c-2.4893188 0 -4.876648 -0.98883057 -6.63678 -2.7490234c-1.7601929 -1.7601929 -2.7490845 -4.147522 -2.7490845 -6.63678l0 0c0 -5.183655 4.2022095 -9.385803 9.385864 -9.385803l0 0c5.183655 0 9.385803 4.2021484 9.385803 9.385803z" fill-rule="evenodd"/><path stroke="#595959" stroke-width="2.0" stroke-linejoin="round" stroke-linecap="butt" d="m992.063 789.0551l0 0c0 5.183655 -4.2021484 9.385803 -9.385803 9.385803l0 0c-2.4893188 0 -4.876648 -0.98883057 -6.63678 -2.7490234c-1.7601929 -1.7601929 -2.7490845 -4.147522 -2.7490845 -6.63678l0 0c0 -5.183655 4.2022095 -9.385803 9.385864 -9.385803l0 0c5.183655 0 9.385803 4.2021484 9.385803 9.385803z" fill-rule="evenodd"/><path fill="#d0e0e3" d="m321.25986 699.2598l188.97635 0l0 188.97638l-188.97635 0z" fill-rule="evenodd"/><path stroke="#595959" stroke-width="2.0" stroke-linejoin="round" stroke-linecap="butt" stroke-dasharray="16.0,6.0,2.0,6.0" d="m321.25986 699.2598l188.97635 0l0 188.97638l-188.97635 0z" fill-rule="evenodd"/><path fill="#ffffff" d="m406.4252 793.74805l0 0c0 -5.183655 4.202179 -9.385864 9.385834 -9.385864l0 0c2.4892578 0 4.876587 0.9888916 6.63678 2.7490845c1.7601624 1.7601929 2.7490234 4.147461 2.7490234 6.63678l0 0c0 5.183655 -4.202179 9.385803 -9.385803 9.385803l0 0c-5.183655 0 -9.385834 -4.2021484 -9.385834 -9.385803z" fill-rule="evenodd"/><path stroke="#595959" stroke-width="2.0" stroke-linejoin="round" stroke-linecap="butt" d="m406.4252 793.74805l0 0c0 -5.183655 4.202179 -9.385864 9.385834 -9.385864l0 0c2.4892578 0 4.876587 0.9888916 6.63678 2.7490845c1.7601624 1.7601929 2.7490234 4.147461 2.7490234 6.63678l0 0c0 5.183655 -4.202179 9.385803 -9.385803 9.385803l0 0c-5.183655 0 -9.385834 -4.2021484 -9.385834 -9.385803z" fill-rule="evenodd"/><path fill="#ead1dc" d="m321.25986 699.2598l94.48816 -94.48816l94.48819 94.48816z" fill-rule="evenodd"/><path stroke="#595959" stroke-width="2.0" stroke-linejoin="round" stroke-linecap="butt" stroke-dasharray="16.0,6.0,2.0,6.0" d="m321.25986 699.2598l94.48816 -94.48816l94.48819 94.48816z" fill-rule="evenodd"/><path fill="#ffffff" d="m406.3622 604.7087l0 0c0 -5.183655 4.202179 -9.385864 9.385803 -9.385864l0 0c2.4892883 0 4.8766174 0.9888916 6.6368103 2.7490845c1.7601624 1.7601929 2.7490234 4.147461 2.7490234 6.63678l0 0c0 5.183655 -4.202179 9.385803 -9.385834 9.385803l0 0c-5.1836243 0 -9.385803 -4.2021484 -9.385803 -9.385803z" fill-rule="evenodd"/><path stroke="#595959" stroke-width="2.0" stroke-linejoin="round" stroke-linecap="butt" d="m406.3622 604.7087l0 0c0 -5.183655 4.202179 -9.385864 9.385803 -9.385864l0 0c2.4892883 0 4.8766174 0.9888916 6.6368103 2.7490845c1.7601624 1.7601929 2.7490234 4.147461 2.7490234 6.63678l0 0c0 5.183655 -4.202179 9.385803 -9.385834 9.385803l0 0c-5.1836243 0 -9.385803 -4.2021484 -9.385803 -9.385803z" fill-rule="evenodd"/><path fill="#ead1dc" d="m321.32285 888.1102l-94.488205 -94.48816l94.488205 -94.48822z" fill-rule="evenodd"/><path stroke="#595959" stroke-width="2.0" stroke-linejoin="round" stroke-linecap="butt" stroke-dasharray="16.0,6.0,2.0,6.0" d="m321.32285 888.1102l-94.488205 -94.48816l94.488205 -94.48822z" fill-rule="evenodd"/><path fill="#595959" d="m321.25986 708.5827l0 0c-5.183655 0 -9.385834 -4.2022095 -9.385834 -9.385864l0 0c0 -2.4892578 0.9888611 -4.876587 2.7490234 -6.63678c1.7601929 -1.7601929 4.147522 -2.7490234 6.6368103 -2.7490234l0 0c5.1836243 0 9.385803 4.2021484 9.385803 9.385803l0 0c0 5.183655 -4.202179 9.385864 -9.385803 9.385864z" fill-rule="evenodd"/><path stroke="#595959" stroke-width="2.0" stroke-linejoin="round" stroke-linecap="butt" d="m321.25986 708.5827l0 0c-5.183655 0 -9.385834 -4.2022095 -9.385834 -9.385864l0 0c0 -2.4892578 0.9888611 -4.876587 2.7490234 -6.63678c1.7601929 -1.7601929 4.147522 -2.7490234 6.6368103 -2.7490234l0 0c5.1836243 0 9.385803 4.2021484 9.385803 9.385803l0 0c0 5.183655 -4.202179 9.385864 -9.385803 9.385864z" fill-rule="evenodd"/><path fill="#ffffff" d="m226.77165 803.0079l0 0c-5.183655 0 -9.3858185 -4.2021484 -9.3858185 -9.385803l0 0c0 -2.4893188 0.9888611 -4.876648 2.7490387 -6.63678c1.7601776 -1.7601929 4.1475067 -2.7490845 6.63678 -2.7490845l0 0c5.183655 0 9.385834 4.2022095 9.385834 9.385864l0 0c0 5.183655 -4.202179 9.385803 -9.385834 9.385803z" fill-rule="evenodd"/><path stroke="#595959" stroke-width="2.0" stroke-linejoin="round" stroke-linecap="butt" d="m226.77165 803.0079l0 0c-5.183655 0 -9.3858185 -4.2021484 -9.3858185 -9.385803l0 0c0 -2.4893188 0.9888611 -4.876648 2.7490387 -6.63678c1.7601776 -1.7601929 4.1475067 -2.7490845 6.63678 -2.7490845l0 0c5.183655 0 9.385834 4.2022095 9.385834 9.385864l0 0c0 5.183655 -4.202179 9.385803 -9.385834 9.385803z" fill-rule="evenodd"/><path fill="#ead1dc" d="m510.17322 699.2598l94.48822 94.48822l-94.48822 94.48816z" fill-rule="evenodd"/><path stroke="#595959" stroke-width="2.0" stroke-linejoin="round" stroke-linecap="butt" stroke-dasharray="16.0,6.0,2.0,6.0" d="m510.17322 699.2598l94.48822 94.48822l-94.48822 94.48816z" fill-rule="evenodd"/><path fill="#595959" d="m510.2362 689.81104l0 0c5.183655 0 9.385864 4.2021484 9.385864 9.385803l0 0c0 2.4892578 -0.9888916 4.876587 -2.7490845 6.63678c-1.7601929 1.7601929 -4.147461 2.7490845 -6.63678 2.7490845l0 0c-5.1836243 0 -9.385803 -4.2022095 -9.385803 -9.385864l0 0c0 -5.183655 4.202179 -9.385803 9.385803 -9.385803z" fill-rule="evenodd"/><path stroke="#595959" stroke-width="2.0" stroke-linejoin="round" stroke-linecap="butt" d="m510.2362 689.81104l0 0c5.183655 0 9.385864 4.2021484 9.385864 9.385803l0 0c0 2.4892578 -0.9888916 4.876587 -2.7490845 6.63678c-1.7601929 1.7601929 -4.147461 2.7490845 -6.63678 2.7490845l0 0c-5.1836243 0 -9.385803 -4.2022095 -9.385803 -9.385864l0 0c0 -5.183655 4.202179 -9.385803 9.385803 -9.385803z" fill-rule="evenodd"/><path fill="#ffffff" d="m604.7244 784.3622l0 0c5.183655 0 9.385803 4.2022095 9.385803 9.385864l0 0c0 2.4892578 -0.98883057 4.876587 -2.7490234 6.63678c-1.7601929 1.7601929 -4.147522 2.7490234 -6.63678 2.7490234l0 0c-5.183655 0 -9.385864 -4.2021484 -9.385864 -9.385803l0 0c0 -5.183655 4.2022095 -9.385864 9.385864 -9.385864z" fill-rule="evenodd"/><path stroke="#595959" stroke-width="2.0" stroke-linejoin="round" stroke-linecap="butt" d="m604.7244 784.3622l0 0c5.183655 0 9.385803 4.2022095 9.385803 9.385864l0 0c0 2.4892578 -0.98883057 4.876587 -2.7490234 6.63678c-1.7601929 1.7601929 -4.147522 2.7490234 -6.63678 2.7490234l0 0c-5.183655 0 -9.385864 -4.2021484 -9.385864 -9.385803l0 0c0 -5.183655 4.2022095 -9.385864 9.385864 -9.385864z" fill-rule="evenodd"/><path fill="#ead1dc" d="m510.2362 888.1417l-94.48819 94.48822l-94.48816 -94.48822z" fill-rule="evenodd"/><path stroke="#595959" stroke-width="2.0" stroke-linejoin="round" stroke-linecap="butt" stroke-dasharray="16.0,6.0,2.0,6.0" d="m510.2362 888.1417l-94.48819 94.48822l-94.48816 -94.48822z" fill-rule="evenodd"/><path fill="#595959" d="m519.68506 888.2047l0 0c0 5.183655 -4.2022095 9.385864 -9.385834 9.385864l0 0c-2.4892883 0 -4.8766174 -0.9888916 -6.63678 -2.7490845c-1.7601929 -1.7601929 -2.749054 -4.147461 -2.749054 -6.63678l0 0c0 -5.183655 4.202179 -9.385803 9.385834 -9.385803l0 0c5.1836243 0 9.385834 4.2021484 9.385834 9.385803z" fill-rule="evenodd"/><path stroke="#595959" stroke-width="2.0" stroke-linejoin="round" stroke-linecap="butt" d="m519.68506 888.2047l0 0c0 5.183655 -4.2022095 9.385864 -9.385834 9.385864l0 0c-2.4892883 0 -4.8766174 -0.9888916 -6.63678 -2.7490845c-1.7601929 -1.7601929 -2.749054 -4.147461 -2.749054 -6.63678l0 0c0 -5.183655 4.202179 -9.385803 9.385834 -9.385803l0 0c5.1836243 0 9.385834 4.2021484 9.385834 9.385803z" fill-rule="evenodd"/><path fill="#595959" d="m330.70865 888.2047l0 0c0 5.183655 -4.202179 9.385864 -9.385803 9.385864l0 0c-2.4892883 0 -4.8766174 -0.9888916 -6.63678 -2.7490845c-1.7601929 -1.7601929 -2.749054 -4.147461 -2.749054 -6.63678l0 0c0 -5.183655 4.202179 -9.385803 9.385834 -9.385803l0 0c5.1836243 0 9.385803 4.2021484 9.385803 9.385803z" fill-rule="evenodd"/><path stroke="#595959" stroke-width="2.0" stroke-linejoin="round" stroke-linecap="butt" d="m330.70865 888.2047l0 0c0 5.183655 -4.202179 9.385864 -9.385803 9.385864l0 0c-2.4892883 0 -4.8766174 -0.9888916 -6.63678 -2.7490845c-1.7601929 -1.7601929 -2.749054 -4.147461 -2.749054 -6.63678l0 0c0 -5.183655 4.202179 -9.385803 9.385834 -9.385803l0 0c5.1836243 0 9.385803 4.2021484 9.385803 9.385803z" fill-rule="evenodd"/><path fill="#ffffff" d="m425.13385 982.69293l0 0c0 5.183655 -4.202179 9.385803 -9.385834 9.385803l0 0c-2.4892578 0 -4.876587 -0.98883057 -6.63678 -2.7490234c-1.7601624 -1.7601929 -2.7490234 -4.147522 -2.7490234 -6.63678l0 0c0 -5.183655 4.202179 -9.385864 9.385803 -9.385864l0 0c5.183655 0 9.385834 4.2022095 9.385834 9.385864z" fill-rule="evenodd"/><path stroke="#595959" stroke-width="2.0" stroke-linejoin="round" stroke-linecap="butt" d="m425.13385 982.69293l0 0c0 5.183655 -4.202179 9.385803 -9.385834 9.385803l0 0c-2.4892578 0 -4.876587 -0.98883057 -6.63678 -2.7490234c-1.7601624 -1.7601929 -2.7490234 -4.147522 -2.7490234 -6.63678l0 0c0 -5.183655 4.202179 -9.385864 9.385803 -9.385864l0 0c5.183655 0 9.385834 4.2022095 9.385834 9.385864z" fill-rule="evenodd"/></g></svg>