<?xml version="1.0" encoding="utf-8" standalone="no"?>
<!DOCTYPE svg PUBLIC "-//W3C//DTD SVG 1.1//EN"
  "http://www.w3.org/Graphics/SVG/1.1/DTD/svg11.dtd">
<svg xmlns:xlink="http://www.w3.org/1999/xlink" width="1600.83pt" height="549.165728pt" viewBox="0 0 1600.83 549.165728" xmlns="http://www.w3.org/2000/svg" version="1.1">
 <metadata>
  <rdf:RDF xmlns:dc="http://purl.org/dc/elements/1.1/" xmlns:cc="http://creativecommons.org/ns#" xmlns:rdf="http://www.w3.org/1999/02/22-rdf-syntax-ns#">
   <cc:Work>
    <dc:type rdf:resource="http://purl.org/dc/dcmitype/StillImage"/>
    <dc:date>2023-11-30T10:32:40.149107</dc:date>
    <dc:format>image/svg+xml</dc:format>
    <dc:creator>
     <cc:Agent>
      <dc:title>Matplotlib v3.7.2, https://matplotlib.org/</dc:title>
     </cc:Agent>
    </dc:creator>
   </cc:Work>
  </rdf:RDF>
 </metadata>
 <defs>
  <style type="text/css">*{stroke-linejoin: round; stroke-linecap: butt}</style>
 </defs>
 <g id="figure_1">
  <g id="patch_1">
   <path d="M 0 549.165728 
L 1600.83 549.165728 
L 1600.83 0 
L 0 0 
z
" style="fill: #ffffff"/>
  </g>
  <g id="axes_1">
   <g id="patch_2">
    <path d="M 59.13 423 
L 1593.63 423 
L 1593.63 7.2 
L 59.13 7.2 
z
" style="fill: #ffffff"/>
   </g>
   <g id="patch_3">
    <path d="M 128.88 423 
L 140.13 423 
L 140.13 409.030801 
L 128.88 409.030801 
z
" clip-path="url(#p2f32ef1779)" style="fill: #6fa8dc"/>
   </g>
   <g id="patch_4">
    <path d="M 218.88 423 
L 230.13 423 
L 230.13 393.553466 
L 218.88 393.553466 
z
" clip-path="url(#p2f32ef1779)" style="fill: #6fa8dc"/>
   </g>
   <g id="patch_5">
    <path d="M 308.88 423 
L 320.13 423 
L 320.13 215.108816 
L 308.88 215.108816 
z
" clip-path="url(#p2f32ef1779)" style="fill: #6fa8dc"/>
   </g>
   <g id="patch_6">
    <path d="M 398.88 423 
L 410.13 423 
L 410.13 385.725572 
L 398.88 385.725572 
z
" clip-path="url(#p2f32ef1779)" style="fill: #6fa8dc"/>
   </g>
   <g id="patch_7">
    <path d="M 488.88 423 
L 500.13 423 
L 500.13 385.571674 
L 488.88 385.571674 
z
" clip-path="url(#p2f32ef1779)" style="fill: #6fa8dc"/>
   </g>
   <g id="patch_8">
    <path d="M 578.88 423 
L 590.13 423 
L 590.13 395.494739 
L 578.88 395.494739 
z
" clip-path="url(#p2f32ef1779)" style="fill: #6fa8dc"/>
   </g>
   <g id="patch_9">
    <path d="M 668.88 423 
L 680.13 423 
L 680.13 400.797609 
L 668.88 400.797609 
z
" clip-path="url(#p2f32ef1779)" style="fill: #6fa8dc"/>
   </g>
   <g id="patch_10">
    <path d="M 758.88 423 
L 770.13 423 
L 770.13 291.722365 
L 758.88 291.722365 
z
" clip-path="url(#p2f32ef1779)" style="fill: #6fa8dc"/>
   </g>
   <g id="patch_11">
    <path d="M 848.88 423 
L 860.13 423 
L 860.13 297.54509 
L 848.88 297.54509 
z
" clip-path="url(#p2f32ef1779)" style="fill: #6fa8dc"/>
   </g>
   <g id="patch_12">
    <path d="M 938.88 423 
L 950.13 423 
L 950.13 366.071134 
L 938.88 366.071134 
z
" clip-path="url(#p2f32ef1779)" style="fill: #6fa8dc"/>
   </g>
   <g id="patch_13">
    <path d="M 1028.88 423 
L 1040.13 423 
L 1040.13 325.074229 
L 1028.88 325.074229 
z
" clip-path="url(#p2f32ef1779)" style="fill: #6fa8dc"/>
   </g>
   <g id="patch_14">
    <path d="M 1118.88 423 
L 1130.13 423 
L 1130.13 347.052212 
L 1118.88 347.052212 
z
" clip-path="url(#p2f32ef1779)" style="fill: #6fa8dc"/>
   </g>
   <g id="patch_15">
    <path d="M 1208.88 423 
L 1220.13 423 
L 1220.13 357.767308 
L 1208.88 357.767308 
z
" clip-path="url(#p2f32ef1779)" style="fill: #6fa8dc"/>
   </g>
   <g id="patch_16">
    <path d="M 1298.88 423 
L 1310.13 423 
L 1310.13 363.651058 
L 1298.88 363.651058 
z
" clip-path="url(#p2f32ef1779)" style="fill: #6fa8dc"/>
   </g>
   <g id="patch_17">
    <path d="M 1388.88 423 
L 1400.13 423 
L 1400.13 359.928027 
L 1388.88 359.928027 
z
" clip-path="url(#p2f32ef1779)" style="fill: #6fa8dc"/>
   </g>
   <g id="patch_18">
    <path d="M 1478.88 423 
L 1490.13 423 
L 1490.13 275.98127 
L 1478.88 275.98127 
z
" clip-path="url(#p2f32ef1779)" style="fill: #6fa8dc"/>
   </g>
   <g id="patch_19">
    <path d="M 140.13 423 
L 151.38 423 
L 151.38 409.023561 
L 140.13 409.023561 
z
" clip-path="url(#p2f32ef1779)" style="fill: #f6b26b"/>
   </g>
   <g id="patch_20">
    <path d="M 230.13 423 
L 241.38 423 
L 241.38 393.311069 
L 230.13 393.311069 
z
" clip-path="url(#p2f32ef1779)" style="fill: #f6b26b"/>
   </g>
   <g id="patch_21">
    <path d="M 320.13 423 
L 331.38 423 
L 331.38 214.318939 
L 320.13 214.318939 
z
" clip-path="url(#p2f32ef1779)" style="fill: #f6b26b"/>
   </g>
   <g id="patch_22">
    <path d="M 410.13 423 
L 421.38 423 
L 421.38 385.845698 
L 410.13 385.845698 
z
" clip-path="url(#p2f32ef1779)" style="fill: #f6b26b"/>
   </g>
   <g id="patch_23">
    <path d="M 500.13 423 
L 511.38 423 
L 511.38 385.315675 
L 500.13 385.315675 
z
" clip-path="url(#p2f32ef1779)" style="fill: #f6b26b"/>
   </g>
   <g id="patch_24">
    <path d="M 590.13 423 
L 601.38 423 
L 601.38 395.860145 
L 590.13 395.860145 
z
" clip-path="url(#p2f32ef1779)" style="fill: #f6b26b"/>
   </g>
   <g id="patch_25">
    <path d="M 680.13 423 
L 691.38 423 
L 691.38 401.607861 
L 680.13 401.607861 
z
" clip-path="url(#p2f32ef1779)" style="fill: #f6b26b"/>
   </g>
   <g id="patch_26">
    <path d="M 770.13 423 
L 781.38 423 
L 781.38 291.416637 
L 770.13 291.416637 
z
" clip-path="url(#p2f32ef1779)" style="fill: #f6b26b"/>
   </g>
   <g id="patch_27">
    <path d="M 860.13 423 
L 871.38 423 
L 871.38 297.32585 
L 860.13 297.32585 
z
" clip-path="url(#p2f32ef1779)" style="fill: #f6b26b"/>
   </g>
   <g id="patch_28">
    <path d="M 950.13 423 
L 961.38 423 
L 961.38 365.458295 
L 950.13 365.458295 
z
" clip-path="url(#p2f32ef1779)" style="fill: #f6b26b"/>
   </g>
   <g id="patch_29">
    <path d="M 1040.13 423 
L 1051.38 423 
L 1051.38 324.233574 
L 1040.13 324.233574 
z
" clip-path="url(#p2f32ef1779)" style="fill: #f6b26b"/>
   </g>
   <g id="patch_30">
    <path d="M 1130.13 423 
L 1141.38 423 
L 1141.38 346.631652 
L 1130.13 346.631652 
z
" clip-path="url(#p2f32ef1779)" style="fill: #f6b26b"/>
   </g>
   <g id="patch_31">
    <path d="M 1220.13 423 
L 1231.38 423 
L 1231.38 357.199601 
L 1220.13 357.199601 
z
" clip-path="url(#p2f32ef1779)" style="fill: #f6b26b"/>
   </g>
   <g id="patch_32">
    <path d="M 1310.13 423 
L 1321.38 423 
L 1321.38 363.540792 
L 1310.13 363.540792 
z
" clip-path="url(#p2f32ef1779)" style="fill: #f6b26b"/>
   </g>
   <g id="patch_33">
    <path d="M 1400.13 423 
L 1411.38 423 
L 1411.38 360.096309 
L 1400.13 360.096309 
z
" clip-path="url(#p2f32ef1779)" style="fill: #f6b26b"/>
   </g>
   <g id="patch_34">
    <path d="M 1490.13 423 
L 1501.38 423 
L 1501.38 275.629845 
L 1490.13 275.629845 
z
" clip-path="url(#p2f32ef1779)" style="fill: #f6b26b"/>
   </g>
   <g id="patch_35">
    <path d="M 151.38 423 
L 162.63 423 
L 162.63 409.036086 
L 151.38 409.036086 
z
" clip-path="url(#p2f32ef1779)" style="fill: #76a5af"/>
   </g>
   <g id="patch_36">
    <path d="M 151.38 409.036086 
L 162.63 409.036086 
L 162.63 405.545108 
L 151.38 405.545108 
z
" clip-path="url(#p2f32ef1779)" style="fill: #ffd966"/>
   </g>
   <g id="patch_37">
    <path d="M 241.38 423 
L 252.63 423 
L 252.63 393.267517 
L 241.38 393.267517 
z
" clip-path="url(#p2f32ef1779)" style="fill: #76a5af"/>
   </g>
   <g id="patch_38">
    <path d="M 241.38 393.267517 
L 252.63 393.267517 
L 252.63 385.834396 
L 241.38 385.834396 
z
" clip-path="url(#p2f32ef1779)" style="fill: #ffd966"/>
   </g>
   <g id="patch_39">
    <path d="M 331.38 423 
L 342.63 423 
L 342.63 225.723683 
L 331.38 225.723683 
z
" clip-path="url(#p2f32ef1779)" style="fill: #76a5af"/>
   </g>
   <g id="patch_40">
    <path d="M 331.38 225.723683 
L 342.63 225.723683 
L 342.63 176.404604 
L 331.38 176.404604 
z
" clip-path="url(#p2f32ef1779)" style="fill: #ffd966"/>
   </g>
   <g id="patch_41">
    <path d="M 421.38 423 
L 432.63 423 
L 432.63 387.200682 
L 421.38 387.200682 
z
" clip-path="url(#p2f32ef1779)" style="fill: #76a5af"/>
   </g>
   <g id="patch_42">
    <path d="M 421.38 387.200682 
L 432.63 387.200682 
L 432.63 378.250852 
L 421.38 378.250852 
z
" clip-path="url(#p2f32ef1779)" style="fill: #ffd966"/>
   </g>
   <g id="patch_43">
    <path d="M 511.38 423 
L 522.63 423 
L 522.63 386.821123 
L 511.38 386.821123 
z
" clip-path="url(#p2f32ef1779)" style="fill: #76a5af"/>
   </g>
   <g id="patch_44">
    <path d="M 511.38 386.821123 
L 522.63 386.821123 
L 522.63 377.776404 
L 511.38 377.776404 
z
" clip-path="url(#p2f32ef1779)" style="fill: #ffd966"/>
   </g>
   <g id="patch_45">
    <path d="M 601.38 423 
L 612.63 423 
L 612.63 395.602259 
L 601.38 395.602259 
z
" clip-path="url(#p2f32ef1779)" style="fill: #76a5af"/>
   </g>
   <g id="patch_46">
    <path d="M 601.38 395.602259 
L 612.63 395.602259 
L 612.63 388.752824 
L 601.38 388.752824 
z
" clip-path="url(#p2f32ef1779)" style="fill: #ffd966"/>
   </g>
   <g id="patch_47">
    <path d="M 691.38 423 
L 702.63 423 
L 702.63 401.575011 
L 691.38 401.575011 
z
" clip-path="url(#p2f32ef1779)" style="fill: #76a5af"/>
   </g>
   <g id="patch_48">
    <path d="M 691.38 401.575011 
L 702.63 401.575011 
L 702.63 396.218763 
L 691.38 396.218763 
z
" clip-path="url(#p2f32ef1779)" style="fill: #ffd966"/>
   </g>
   <g id="patch_49">
    <path d="M 781.38 423 
L 792.63 423 
L 792.63 294.522604 
L 781.38 294.522604 
z
" clip-path="url(#p2f32ef1779)" style="fill: #76a5af"/>
   </g>
   <g id="patch_50">
    <path d="M 781.38 294.522604 
L 792.63 294.522604 
L 792.63 262.403255 
L 781.38 262.403255 
z
" clip-path="url(#p2f32ef1779)" style="fill: #ffd966"/>
   </g>
   <g id="patch_51">
    <path d="M 871.38 423 
L 882.63 423 
L 882.63 301.4075 
L 871.38 301.4075 
z
" clip-path="url(#p2f32ef1779)" style="fill: #76a5af"/>
   </g>
   <g id="patch_52">
    <path d="M 871.38 301.4075 
L 882.63 301.4075 
L 882.63 271.009375 
L 871.38 271.009375 
z
" clip-path="url(#p2f32ef1779)" style="fill: #ffd966"/>
   </g>
   <g id="patch_53">
    <path d="M 961.38 423 
L 972.63 423 
L 972.63 366.902698 
L 961.38 366.902698 
z
" clip-path="url(#p2f32ef1779)" style="fill: #76a5af"/>
   </g>
   <g id="patch_54">
    <path d="M 961.38 366.902698 
L 972.63 366.902698 
L 972.63 352.878373 
L 961.38 352.878373 
z
" clip-path="url(#p2f32ef1779)" style="fill: #ffd966"/>
   </g>
   <g id="patch_55">
    <path d="M 1051.38 423 
L 1062.63 423 
L 1062.63 323.199597 
L 1051.38 323.199597 
z
" clip-path="url(#p2f32ef1779)" style="fill: #76a5af"/>
   </g>
   <g id="patch_56">
    <path d="M 1051.38 323.199597 
L 1062.63 323.199597 
L 1062.63 298.249496 
L 1051.38 298.249496 
z
" clip-path="url(#p2f32ef1779)" style="fill: #ffd966"/>
   </g>
   <g id="patch_57">
    <path d="M 1141.38 423 
L 1152.63 423 
L 1152.63 346.142923 
L 1141.38 346.142923 
z
" clip-path="url(#p2f32ef1779)" style="fill: #76a5af"/>
   </g>
   <g id="patch_58">
    <path d="M 1141.38 346.142923 
L 1152.63 346.142923 
L 1152.63 326.928654 
L 1141.38 326.928654 
z
" clip-path="url(#p2f32ef1779)" style="fill: #ffd966"/>
   </g>
   <g id="patch_59">
    <path d="M 1231.38 423 
L 1242.63 423 
L 1242.63 357.138756 
L 1231.38 357.138756 
z
" clip-path="url(#p2f32ef1779)" style="fill: #76a5af"/>
   </g>
   <g id="patch_60">
    <path d="M 1231.38 357.138756 
L 1242.63 357.138756 
L 1242.63 340.673445 
L 1231.38 340.673445 
z
" clip-path="url(#p2f32ef1779)" style="fill: #ffd966"/>
   </g>
   <g id="patch_61">
    <path d="M 1321.38 423 
L 1332.63 423 
L 1332.63 365.391655 
L 1321.38 365.391655 
z
" clip-path="url(#p2f32ef1779)" style="fill: #76a5af"/>
   </g>
   <g id="patch_62">
    <path d="M 1321.38 365.391655 
L 1332.63 365.391655 
L 1332.63 350.989569 
L 1321.38 350.989569 
z
" clip-path="url(#p2f32ef1779)" style="fill: #ffd966"/>
   </g>
   <g id="patch_63">
    <path d="M 1411.38 423 
L 1422.63 423 
L 1422.63 361.600609 
L 1411.38 361.600609 
z
" clip-path="url(#p2f32ef1779)" style="fill: #76a5af"/>
   </g>
   <g id="patch_64">
    <path d="M 1411.38 361.600609 
L 1422.63 361.600609 
L 1422.63 346.250761 
L 1411.38 346.250761 
z
" clip-path="url(#p2f32ef1779)" style="fill: #ffd966"/>
   </g>
   <g id="patch_65">
    <path d="M 1501.38 423 
L 1512.63 423 
L 1512.63 280.957847 
L 1501.38 280.957847 
z
" clip-path="url(#p2f32ef1779)" style="fill: #76a5af"/>
   </g>
   <g id="patch_66">
    <path d="M 1501.38 280.957847 
L 1512.63 280.957847 
L 1512.63 245.447308 
L 1501.38 245.447308 
z
" clip-path="url(#p2f32ef1779)" style="fill: #ffd966"/>
   </g>
   <g id="patch_67">
    <path d="M 162.63 423 
L 173.88 423 
L 173.88 86.113541 
L 162.63 86.113541 
z
" clip-path="url(#p2f32ef1779)" style="fill: #e06666"/>
   </g>
   <g id="patch_68">
    <path d="M 252.63 423 
L 263.88 423 
L 263.88 86.113541 
L 252.63 86.113541 
z
" clip-path="url(#p2f32ef1779)" style="fill: #e06666"/>
   </g>
   <g id="patch_69">
    <path d="M 342.63 423 
L 353.88 423 
L 353.88 86.113541 
L 342.63 86.113541 
z
" clip-path="url(#p2f32ef1779)" style="fill: #e06666"/>
   </g>
   <g id="patch_70">
    <path d="M 432.63 423 
L 443.88 423 
L 443.88 86.113541 
L 432.63 86.113541 
z
" clip-path="url(#p2f32ef1779)" style="fill: #e06666"/>
   </g>
   <g id="patch_71">
    <path d="M 522.63 423 
L 533.88 423 
L 533.88 86.113541 
L 522.63 86.113541 
z
" clip-path="url(#p2f32ef1779)" style="fill: #e06666"/>
   </g>
   <g id="patch_72">
    <path d="M 612.63 423 
L 623.88 423 
L 623.88 86.113541 
L 612.63 86.113541 
z
" clip-path="url(#p2f32ef1779)" style="fill: #e06666"/>
   </g>
   <g id="patch_73">
    <path d="M 702.63 423 
L 713.88 423 
L 713.88 86.113541 
L 702.63 86.113541 
z
" clip-path="url(#p2f32ef1779)" style="fill: #e06666"/>
   </g>
   <g id="patch_74">
    <path d="M 792.63 423 
L 803.88 423 
L 803.88 86.113541 
L 792.63 86.113541 
z
" clip-path="url(#p2f32ef1779)" style="fill: #e06666"/>
   </g>
   <g id="patch_75">
    <path d="M 882.63 423 
L 893.88 423 
L 893.88 86.113541 
L 882.63 86.113541 
z
" clip-path="url(#p2f32ef1779)" style="fill: #e06666"/>
   </g>
   <g id="patch_76">
    <path d="M 972.63 423 
L 983.88 423 
L 983.88 86.113541 
L 972.63 86.113541 
z
" clip-path="url(#p2f32ef1779)" style="fill: #e06666"/>
   </g>
   <g id="patch_77">
    <path d="M 1062.63 423 
L 1073.88 423 
L 1073.88 86.113541 
L 1062.63 86.113541 
z
" clip-path="url(#p2f32ef1779)" style="fill: #e06666"/>
   </g>
   <g id="patch_78">
    <path d="M 1152.63 423 
L 1163.88 423 
L 1163.88 86.113541 
L 1152.63 86.113541 
z
" clip-path="url(#p2f32ef1779)" style="fill: #e06666"/>
   </g>
   <g id="patch_79">
    <path d="M 1242.63 423 
L 1253.88 423 
L 1253.88 86.113541 
L 1242.63 86.113541 
z
" clip-path="url(#p2f32ef1779)" style="fill: #e06666"/>
   </g>
   <g id="patch_80">
    <path d="M 1332.63 423 
L 1343.88 423 
L 1343.88 86.113541 
L 1332.63 86.113541 
z
" clip-path="url(#p2f32ef1779)" style="fill: #e06666"/>
   </g>
   <g id="patch_81">
    <path d="M 1422.63 423 
L 1433.88 423 
L 1433.88 86.113541 
L 1422.63 86.113541 
z
" clip-path="url(#p2f32ef1779)" style="fill: #e06666"/>
   </g>
   <g id="patch_82">
    <path d="M 1512.63 423 
L 1523.88 423 
L 1523.88 86.113541 
L 1512.63 86.113541 
z
" clip-path="url(#p2f32ef1779)" style="fill: #e06666"/>
   </g>
   <g id="matplotlib.axis_1">
    <g id="xtick_1">
     <g id="line2d_1">
      <defs>
       <path id="maea4e79212" d="M 0 0 
L 0 3.5 
" style="stroke: #000000; stroke-width: 0.8"/>
      </defs>
      <g>
       <use xlink:href="#maea4e79212" x="151.38" y="423" style="stroke: #000000; stroke-width: 0.8"/>
      </g>
     </g>
     <g id="text_1">
      <!-- QV_n100 -->
      <g transform="translate(128.71104 489.464145) rotate(-45) scale(0.16 -0.16)">
       <defs>
        <path id="DejaVuSans-51" d="M 2522 4238 
Q 1834 4238 1429 3725 
Q 1025 3213 1025 2328 
Q 1025 1447 1429 934 
Q 1834 422 2522 422 
Q 3209 422 3611 934 
Q 4013 1447 4013 2328 
Q 4013 3213 3611 3725 
Q 3209 4238 2522 4238 
z
M 3406 84 
L 4238 -825 
L 3475 -825 
L 2784 -78 
Q 2681 -84 2626 -87 
Q 2572 -91 2522 -91 
Q 1538 -91 948 567 
Q 359 1225 359 2328 
Q 359 3434 948 4092 
Q 1538 4750 2522 4750 
Q 3503 4750 4090 4092 
Q 4678 3434 4678 2328 
Q 4678 1516 4351 937 
Q 4025 359 3406 84 
z
" transform="scale(0.015625)"/>
        <path id="DejaVuSans-56" d="M 1831 0 
L 50 4666 
L 709 4666 
L 2188 738 
L 3669 4666 
L 4325 4666 
L 2547 0 
L 1831 0 
z
" transform="scale(0.015625)"/>
        <path id="DejaVuSans-5f" d="M 3263 -1063 
L 3263 -1509 
L -63 -1509 
L -63 -1063 
L 3263 -1063 
z
" transform="scale(0.015625)"/>
        <path id="DejaVuSans-6e" d="M 3513 2113 
L 3513 0 
L 2938 0 
L 2938 2094 
Q 2938 2591 2744 2837 
Q 2550 3084 2163 3084 
Q 1697 3084 1428 2787 
Q 1159 2491 1159 1978 
L 1159 0 
L 581 0 
L 581 3500 
L 1159 3500 
L 1159 2956 
Q 1366 3272 1645 3428 
Q 1925 3584 2291 3584 
Q 2894 3584 3203 3211 
Q 3513 2838 3513 2113 
z
" transform="scale(0.015625)"/>
        <path id="DejaVuSans-31" d="M 794 531 
L 1825 531 
L 1825 4091 
L 703 3866 
L 703 4441 
L 1819 4666 
L 2450 4666 
L 2450 531 
L 3481 531 
L 3481 0 
L 794 0 
L 794 531 
z
" transform="scale(0.015625)"/>
        <path id="DejaVuSans-30" d="M 2034 4250 
Q 1547 4250 1301 3770 
Q 1056 3291 1056 2328 
Q 1056 1369 1301 889 
Q 1547 409 2034 409 
Q 2525 409 2770 889 
Q 3016 1369 3016 2328 
Q 3016 3291 2770 3770 
Q 2525 4250 2034 4250 
z
M 2034 4750 
Q 2819 4750 3233 4129 
Q 3647 3509 3647 2328 
Q 3647 1150 3233 529 
Q 2819 -91 2034 -91 
Q 1250 -91 836 529 
Q 422 1150 422 2328 
Q 422 3509 836 4129 
Q 1250 4750 2034 4750 
z
" transform="scale(0.015625)"/>
       </defs>
       <use xlink:href="#DejaVuSans-51"/>
       <use xlink:href="#DejaVuSans-56" x="78.710938"/>
       <use xlink:href="#DejaVuSans-5f" x="147.119141"/>
       <use xlink:href="#DejaVuSans-6e" x="197.119141"/>
       <use xlink:href="#DejaVuSans-31" x="260.498047"/>
       <use xlink:href="#DejaVuSans-30" x="324.121094"/>
       <use xlink:href="#DejaVuSans-30" x="387.744141"/>
      </g>
     </g>
    </g>
    <g id="xtick_2">
     <g id="line2d_2">
      <g>
       <use xlink:href="#maea4e79212" x="241.38" y="423" style="stroke: #000000; stroke-width: 0.8"/>
      </g>
     </g>
     <g id="text_2">
      <!-- dnn_n16 -->
      <g transform="translate(219.971458 487.342824) rotate(-45) scale(0.16 -0.16)">
       <defs>
        <path id="DejaVuSans-64" d="M 2906 2969 
L 2906 4863 
L 3481 4863 
L 3481 0 
L 2906 0 
L 2906 525 
Q 2725 213 2448 61 
Q 2172 -91 1784 -91 
Q 1150 -91 751 415 
Q 353 922 353 1747 
Q 353 2572 751 3078 
Q 1150 3584 1784 3584 
Q 2172 3584 2448 3432 
Q 2725 3281 2906 2969 
z
M 947 1747 
Q 947 1113 1208 752 
Q 1469 391 1925 391 
Q 2381 391 2643 752 
Q 2906 1113 2906 1747 
Q 2906 2381 2643 2742 
Q 2381 3103 1925 3103 
Q 1469 3103 1208 2742 
Q 947 2381 947 1747 
z
" transform="scale(0.015625)"/>
        <path id="DejaVuSans-36" d="M 2113 2584 
Q 1688 2584 1439 2293 
Q 1191 2003 1191 1497 
Q 1191 994 1439 701 
Q 1688 409 2113 409 
Q 2538 409 2786 701 
Q 3034 994 3034 1497 
Q 3034 2003 2786 2293 
Q 2538 2584 2113 2584 
z
M 3366 4563 
L 3366 3988 
Q 3128 4100 2886 4159 
Q 2644 4219 2406 4219 
Q 1781 4219 1451 3797 
Q 1122 3375 1075 2522 
Q 1259 2794 1537 2939 
Q 1816 3084 2150 3084 
Q 2853 3084 3261 2657 
Q 3669 2231 3669 1497 
Q 3669 778 3244 343 
Q 2819 -91 2113 -91 
Q 1303 -91 875 529 
Q 447 1150 447 2328 
Q 447 3434 972 4092 
Q 1497 4750 2381 4750 
Q 2619 4750 2861 4703 
Q 3103 4656 3366 4563 
z
" transform="scale(0.015625)"/>
       </defs>
       <use xlink:href="#DejaVuSans-64"/>
       <use xlink:href="#DejaVuSans-6e" x="63.476562"/>
       <use xlink:href="#DejaVuSans-6e" x="126.855469"/>
       <use xlink:href="#DejaVuSans-5f" x="190.234375"/>
       <use xlink:href="#DejaVuSans-6e" x="240.234375"/>
       <use xlink:href="#DejaVuSans-31" x="303.613281"/>
       <use xlink:href="#DejaVuSans-36" x="367.236328"/>
      </g>
     </g>
    </g>
    <g id="xtick_3">
     <g id="line2d_3">
      <g>
       <use xlink:href="#maea4e79212" x="331.38" y="423" style="stroke: #000000; stroke-width: 0.8"/>
      </g>
     </g>
     <g id="text_3">
      <!-- gcm_n13 -->
      <g transform="translate(308.421127 490.043972) rotate(-45) scale(0.16 -0.16)">
       <defs>
        <path id="DejaVuSans-67" d="M 2906 1791 
Q 2906 2416 2648 2759 
Q 2391 3103 1925 3103 
Q 1463 3103 1205 2759 
Q 947 2416 947 1791 
Q 947 1169 1205 825 
Q 1463 481 1925 481 
Q 2391 481 2648 825 
Q 2906 1169 2906 1791 
z
M 3481 434 
Q 3481 -459 3084 -895 
Q 2688 -1331 1869 -1331 
Q 1566 -1331 1297 -1286 
Q 1028 -1241 775 -1147 
L 775 -588 
Q 1028 -725 1275 -790 
Q 1522 -856 1778 -856 
Q 2344 -856 2625 -561 
Q 2906 -266 2906 331 
L 2906 616 
Q 2728 306 2450 153 
Q 2172 0 1784 0 
Q 1141 0 747 490 
Q 353 981 353 1791 
Q 353 2603 747 3093 
Q 1141 3584 1784 3584 
Q 2172 3584 2450 3431 
Q 2728 3278 2906 2969 
L 2906 3500 
L 3481 3500 
L 3481 434 
z
" transform="scale(0.015625)"/>
        <path id="DejaVuSans-63" d="M 3122 3366 
L 3122 2828 
Q 2878 2963 2633 3030 
Q 2388 3097 2138 3097 
Q 1578 3097 1268 2742 
Q 959 2388 959 1747 
Q 959 1106 1268 751 
Q 1578 397 2138 397 
Q 2388 397 2633 464 
Q 2878 531 3122 666 
L 3122 134 
Q 2881 22 2623 -34 
Q 2366 -91 2075 -91 
Q 1284 -91 818 406 
Q 353 903 353 1747 
Q 353 2603 823 3093 
Q 1294 3584 2113 3584 
Q 2378 3584 2631 3529 
Q 2884 3475 3122 3366 
z
" transform="scale(0.015625)"/>
        <path id="DejaVuSans-6d" d="M 3328 2828 
Q 3544 3216 3844 3400 
Q 4144 3584 4550 3584 
Q 5097 3584 5394 3201 
Q 5691 2819 5691 2113 
L 5691 0 
L 5113 0 
L 5113 2094 
Q 5113 2597 4934 2840 
Q 4756 3084 4391 3084 
Q 3944 3084 3684 2787 
Q 3425 2491 3425 1978 
L 3425 0 
L 2847 0 
L 2847 2094 
Q 2847 2600 2669 2842 
Q 2491 3084 2119 3084 
Q 1678 3084 1418 2786 
Q 1159 2488 1159 1978 
L 1159 0 
L 581 0 
L 581 3500 
L 1159 3500 
L 1159 2956 
Q 1356 3278 1631 3431 
Q 1906 3584 2284 3584 
Q 2666 3584 2933 3390 
Q 3200 3197 3328 2828 
z
" transform="scale(0.015625)"/>
        <path id="DejaVuSans-33" d="M 2597 2516 
Q 3050 2419 3304 2112 
Q 3559 1806 3559 1356 
Q 3559 666 3084 287 
Q 2609 -91 1734 -91 
Q 1441 -91 1130 -33 
Q 819 25 488 141 
L 488 750 
Q 750 597 1062 519 
Q 1375 441 1716 441 
Q 2309 441 2620 675 
Q 2931 909 2931 1356 
Q 2931 1769 2642 2001 
Q 2353 2234 1838 2234 
L 1294 2234 
L 1294 2753 
L 1863 2753 
Q 2328 2753 2575 2939 
Q 2822 3125 2822 3475 
Q 2822 3834 2567 4026 
Q 2313 4219 1838 4219 
Q 1578 4219 1281 4162 
Q 984 4106 628 3988 
L 628 4550 
Q 988 4650 1302 4700 
Q 1616 4750 1894 4750 
Q 2613 4750 3031 4423 
Q 3450 4097 3450 3541 
Q 3450 3153 3228 2886 
Q 3006 2619 2597 2516 
z
" transform="scale(0.015625)"/>
       </defs>
       <use xlink:href="#DejaVuSans-67"/>
       <use xlink:href="#DejaVuSans-63" x="63.476562"/>
       <use xlink:href="#DejaVuSans-6d" x="118.457031"/>
       <use xlink:href="#DejaVuSans-5f" x="215.869141"/>
       <use xlink:href="#DejaVuSans-6e" x="265.869141"/>
       <use xlink:href="#DejaVuSans-31" x="329.248047"/>
       <use xlink:href="#DejaVuSans-33" x="392.871094"/>
      </g>
     </g>
    </g>
    <g id="xtick_4">
     <g id="line2d_4">
      <g>
       <use xlink:href="#maea4e79212" x="421.38" y="423" style="stroke: #000000; stroke-width: 0.8"/>
      </g>
     </g>
     <g id="text_4">
      <!-- ising_n34 -->
      <g transform="translate(397.466533 492.352676) rotate(-45) scale(0.16 -0.16)">
       <defs>
        <path id="DejaVuSans-69" d="M 603 3500 
L 1178 3500 
L 1178 0 
L 603 0 
L 603 3500 
z
M 603 4863 
L 1178 4863 
L 1178 4134 
L 603 4134 
L 603 4863 
z
" transform="scale(0.015625)"/>
        <path id="DejaVuSans-73" d="M 2834 3397 
L 2834 2853 
Q 2591 2978 2328 3040 
Q 2066 3103 1784 3103 
Q 1356 3103 1142 2972 
Q 928 2841 928 2578 
Q 928 2378 1081 2264 
Q 1234 2150 1697 2047 
L 1894 2003 
Q 2506 1872 2764 1633 
Q 3022 1394 3022 966 
Q 3022 478 2636 193 
Q 2250 -91 1575 -91 
Q 1294 -91 989 -36 
Q 684 19 347 128 
L 347 722 
Q 666 556 975 473 
Q 1284 391 1588 391 
Q 1994 391 2212 530 
Q 2431 669 2431 922 
Q 2431 1156 2273 1281 
Q 2116 1406 1581 1522 
L 1381 1569 
Q 847 1681 609 1914 
Q 372 2147 372 2553 
Q 372 3047 722 3315 
Q 1072 3584 1716 3584 
Q 2034 3584 2315 3537 
Q 2597 3491 2834 3397 
z
" transform="scale(0.015625)"/>
        <path id="DejaVuSans-34" d="M 2419 4116 
L 825 1625 
L 2419 1625 
L 2419 4116 
z
M 2253 4666 
L 3047 4666 
L 3047 1625 
L 3713 1625 
L 3713 1100 
L 3047 1100 
L 3047 0 
L 2419 0 
L 2419 1100 
L 313 1100 
L 313 1709 
L 2253 4666 
z
" transform="scale(0.015625)"/>
       </defs>
       <use xlink:href="#DejaVuSans-69"/>
       <use xlink:href="#DejaVuSans-73" x="27.783203"/>
       <use xlink:href="#DejaVuSans-69" x="79.882812"/>
       <use xlink:href="#DejaVuSans-6e" x="107.666016"/>
       <use xlink:href="#DejaVuSans-67" x="171.044922"/>
       <use xlink:href="#DejaVuSans-5f" x="234.521484"/>
       <use xlink:href="#DejaVuSans-6e" x="284.521484"/>
       <use xlink:href="#DejaVuSans-33" x="347.900391"/>
       <use xlink:href="#DejaVuSans-34" x="411.523438"/>
      </g>
     </g>
    </g>
    <g id="xtick_5">
     <g id="line2d_5">
      <g>
       <use xlink:href="#maea4e79212" x="511.38" y="423" style="stroke: #000000; stroke-width: 0.8"/>
      </g>
     </g>
     <g id="text_5">
      <!-- ising_n42 -->
      <g transform="translate(487.466533 492.352676) rotate(-45) scale(0.16 -0.16)">
       <defs>
        <path id="DejaVuSans-32" d="M 1228 531 
L 3431 531 
L 3431 0 
L 469 0 
L 469 531 
Q 828 903 1448 1529 
Q 2069 2156 2228 2338 
Q 2531 2678 2651 2914 
Q 2772 3150 2772 3378 
Q 2772 3750 2511 3984 
Q 2250 4219 1831 4219 
Q 1534 4219 1204 4116 
Q 875 4013 500 3803 
L 500 4441 
Q 881 4594 1212 4672 
Q 1544 4750 1819 4750 
Q 2544 4750 2975 4387 
Q 3406 4025 3406 3419 
Q 3406 3131 3298 2873 
Q 3191 2616 2906 2266 
Q 2828 2175 2409 1742 
Q 1991 1309 1228 531 
z
" transform="scale(0.015625)"/>
       </defs>
       <use xlink:href="#DejaVuSans-69"/>
       <use xlink:href="#DejaVuSans-73" x="27.783203"/>
       <use xlink:href="#DejaVuSans-69" x="79.882812"/>
       <use xlink:href="#DejaVuSans-6e" x="107.666016"/>
       <use xlink:href="#DejaVuSans-67" x="171.044922"/>
       <use xlink:href="#DejaVuSans-5f" x="234.521484"/>
       <use xlink:href="#DejaVuSans-6e" x="284.521484"/>
       <use xlink:href="#DejaVuSans-34" x="347.900391"/>
       <use xlink:href="#DejaVuSans-32" x="411.523438"/>
      </g>
     </g>
    </g>
    <g id="xtick_6">
     <g id="line2d_6">
      <g>
       <use xlink:href="#maea4e79212" x="601.38" y="423" style="stroke: #000000; stroke-width: 0.8"/>
      </g>
     </g>
     <g id="text_6">
      <!-- ising_n66 -->
      <g transform="translate(577.466533 492.352676) rotate(-45) scale(0.16 -0.16)">
       <use xlink:href="#DejaVuSans-69"/>
       <use xlink:href="#DejaVuSans-73" x="27.783203"/>
       <use xlink:href="#DejaVuSans-69" x="79.882812"/>
       <use xlink:href="#DejaVuSans-6e" x="107.666016"/>
       <use xlink:href="#DejaVuSans-67" x="171.044922"/>
       <use xlink:href="#DejaVuSans-5f" x="234.521484"/>
       <use xlink:href="#DejaVuSans-6e" x="284.521484"/>
       <use xlink:href="#DejaVuSans-36" x="347.900391"/>
       <use xlink:href="#DejaVuSans-36" x="411.523438"/>
      </g>
     </g>
    </g>
    <g id="xtick_7">
     <g id="line2d_7">
      <g>
       <use xlink:href="#maea4e79212" x="691.38" y="423" style="stroke: #000000; stroke-width: 0.8"/>
      </g>
     </g>
     <g id="text_7">
      <!-- ising_n98 -->
      <g transform="translate(667.466533 492.352676) rotate(-45) scale(0.16 -0.16)">
       <defs>
        <path id="DejaVuSans-39" d="M 703 97 
L 703 672 
Q 941 559 1184 500 
Q 1428 441 1663 441 
Q 2288 441 2617 861 
Q 2947 1281 2994 2138 
Q 2813 1869 2534 1725 
Q 2256 1581 1919 1581 
Q 1219 1581 811 2004 
Q 403 2428 403 3163 
Q 403 3881 828 4315 
Q 1253 4750 1959 4750 
Q 2769 4750 3195 4129 
Q 3622 3509 3622 2328 
Q 3622 1225 3098 567 
Q 2575 -91 1691 -91 
Q 1453 -91 1209 -44 
Q 966 3 703 97 
z
M 1959 2075 
Q 2384 2075 2632 2365 
Q 2881 2656 2881 3163 
Q 2881 3666 2632 3958 
Q 2384 4250 1959 4250 
Q 1534 4250 1286 3958 
Q 1038 3666 1038 3163 
Q 1038 2656 1286 2365 
Q 1534 2075 1959 2075 
z
" transform="scale(0.015625)"/>
        <path id="DejaVuSans-38" d="M 2034 2216 
Q 1584 2216 1326 1975 
Q 1069 1734 1069 1313 
Q 1069 891 1326 650 
Q 1584 409 2034 409 
Q 2484 409 2743 651 
Q 3003 894 3003 1313 
Q 3003 1734 2745 1975 
Q 2488 2216 2034 2216 
z
M 1403 2484 
Q 997 2584 770 2862 
Q 544 3141 544 3541 
Q 544 4100 942 4425 
Q 1341 4750 2034 4750 
Q 2731 4750 3128 4425 
Q 3525 4100 3525 3541 
Q 3525 3141 3298 2862 
Q 3072 2584 2669 2484 
Q 3125 2378 3379 2068 
Q 3634 1759 3634 1313 
Q 3634 634 3220 271 
Q 2806 -91 2034 -91 
Q 1263 -91 848 271 
Q 434 634 434 1313 
Q 434 1759 690 2068 
Q 947 2378 1403 2484 
z
M 1172 3481 
Q 1172 3119 1398 2916 
Q 1625 2713 2034 2713 
Q 2441 2713 2670 2916 
Q 2900 3119 2900 3481 
Q 2900 3844 2670 4047 
Q 2441 4250 2034 4250 
Q 1625 4250 1398 4047 
Q 1172 3844 1172 3481 
z
" transform="scale(0.015625)"/>
       </defs>
       <use xlink:href="#DejaVuSans-69"/>
       <use xlink:href="#DejaVuSans-73" x="27.783203"/>
       <use xlink:href="#DejaVuSans-69" x="79.882812"/>
       <use xlink:href="#DejaVuSans-6e" x="107.666016"/>
       <use xlink:href="#DejaVuSans-67" x="171.044922"/>
       <use xlink:href="#DejaVuSans-5f" x="234.521484"/>
       <use xlink:href="#DejaVuSans-6e" x="284.521484"/>
       <use xlink:href="#DejaVuSans-39" x="347.900391"/>
       <use xlink:href="#DejaVuSans-38" x="411.523438"/>
      </g>
     </g>
    </g>
    <g id="xtick_8">
     <g id="line2d_8">
      <g>
       <use xlink:href="#maea4e79212" x="781.38" y="423" style="stroke: #000000; stroke-width: 0.8"/>
      </g>
     </g>
     <g id="text_8">
      <!-- multiplier_n45 -->
      <g transform="translate(743.736287 519.813168) rotate(-45) scale(0.16 -0.16)">
       <defs>
        <path id="DejaVuSans-75" d="M 544 1381 
L 544 3500 
L 1119 3500 
L 1119 1403 
Q 1119 906 1312 657 
Q 1506 409 1894 409 
Q 2359 409 2629 706 
Q 2900 1003 2900 1516 
L 2900 3500 
L 3475 3500 
L 3475 0 
L 2900 0 
L 2900 538 
Q 2691 219 2414 64 
Q 2138 -91 1772 -91 
Q 1169 -91 856 284 
Q 544 659 544 1381 
z
M 1991 3584 
L 1991 3584 
z
" transform="scale(0.015625)"/>
        <path id="DejaVuSans-6c" d="M 603 4863 
L 1178 4863 
L 1178 0 
L 603 0 
L 603 4863 
z
" transform="scale(0.015625)"/>
        <path id="DejaVuSans-74" d="M 1172 4494 
L 1172 3500 
L 2356 3500 
L 2356 3053 
L 1172 3053 
L 1172 1153 
Q 1172 725 1289 603 
Q 1406 481 1766 481 
L 2356 481 
L 2356 0 
L 1766 0 
Q 1100 0 847 248 
Q 594 497 594 1153 
L 594 3053 
L 172 3053 
L 172 3500 
L 594 3500 
L 594 4494 
L 1172 4494 
z
" transform="scale(0.015625)"/>
        <path id="DejaVuSans-70" d="M 1159 525 
L 1159 -1331 
L 581 -1331 
L 581 3500 
L 1159 3500 
L 1159 2969 
Q 1341 3281 1617 3432 
Q 1894 3584 2278 3584 
Q 2916 3584 3314 3078 
Q 3713 2572 3713 1747 
Q 3713 922 3314 415 
Q 2916 -91 2278 -91 
Q 1894 -91 1617 61 
Q 1341 213 1159 525 
z
M 3116 1747 
Q 3116 2381 2855 2742 
Q 2594 3103 2138 3103 
Q 1681 3103 1420 2742 
Q 1159 2381 1159 1747 
Q 1159 1113 1420 752 
Q 1681 391 2138 391 
Q 2594 391 2855 752 
Q 3116 1113 3116 1747 
z
" transform="scale(0.015625)"/>
        <path id="DejaVuSans-65" d="M 3597 1894 
L 3597 1613 
L 953 1613 
Q 991 1019 1311 708 
Q 1631 397 2203 397 
Q 2534 397 2845 478 
Q 3156 559 3463 722 
L 3463 178 
Q 3153 47 2828 -22 
Q 2503 -91 2169 -91 
Q 1331 -91 842 396 
Q 353 884 353 1716 
Q 353 2575 817 3079 
Q 1281 3584 2069 3584 
Q 2775 3584 3186 3129 
Q 3597 2675 3597 1894 
z
M 3022 2063 
Q 3016 2534 2758 2815 
Q 2500 3097 2075 3097 
Q 1594 3097 1305 2825 
Q 1016 2553 972 2059 
L 3022 2063 
z
" transform="scale(0.015625)"/>
        <path id="DejaVuSans-72" d="M 2631 2963 
Q 2534 3019 2420 3045 
Q 2306 3072 2169 3072 
Q 1681 3072 1420 2755 
Q 1159 2438 1159 1844 
L 1159 0 
L 581 0 
L 581 3500 
L 1159 3500 
L 1159 2956 
Q 1341 3275 1631 3429 
Q 1922 3584 2338 3584 
Q 2397 3584 2469 3576 
Q 2541 3569 2628 3553 
L 2631 2963 
z
" transform="scale(0.015625)"/>
        <path id="DejaVuSans-35" d="M 691 4666 
L 3169 4666 
L 3169 4134 
L 1269 4134 
L 1269 2991 
Q 1406 3038 1543 3061 
Q 1681 3084 1819 3084 
Q 2600 3084 3056 2656 
Q 3513 2228 3513 1497 
Q 3513 744 3044 326 
Q 2575 -91 1722 -91 
Q 1428 -91 1123 -41 
Q 819 9 494 109 
L 494 744 
Q 775 591 1075 516 
Q 1375 441 1709 441 
Q 2250 441 2565 725 
Q 2881 1009 2881 1497 
Q 2881 1984 2565 2268 
Q 2250 2553 1709 2553 
Q 1456 2553 1204 2497 
Q 953 2441 691 2322 
L 691 4666 
z
" transform="scale(0.015625)"/>
       </defs>
       <use xlink:href="#DejaVuSans-6d"/>
       <use xlink:href="#DejaVuSans-75" x="97.412109"/>
       <use xlink:href="#DejaVuSans-6c" x="160.791016"/>
       <use xlink:href="#DejaVuSans-74" x="188.574219"/>
       <use xlink:href="#DejaVuSans-69" x="227.783203"/>
       <use xlink:href="#DejaVuSans-70" x="255.566406"/>
       <use xlink:href="#DejaVuSans-6c" x="319.042969"/>
       <use xlink:href="#DejaVuSans-69" x="346.826172"/>
       <use xlink:href="#DejaVuSans-65" x="374.609375"/>
       <use xlink:href="#DejaVuSans-72" x="436.132812"/>
       <use xlink:href="#DejaVuSans-5f" x="477.246094"/>
       <use xlink:href="#DejaVuSans-6e" x="527.246094"/>
       <use xlink:href="#DejaVuSans-34" x="590.625"/>
       <use xlink:href="#DejaVuSans-35" x="654.248047"/>
      </g>
     </g>
    </g>
    <g id="xtick_9">
     <g id="line2d_9">
      <g>
       <use xlink:href="#maea4e79212" x="871.38" y="423" style="stroke: #000000; stroke-width: 0.8"/>
      </g>
     </g>
     <g id="text_9">
      <!-- multiplier_n75 -->
      <g transform="translate(833.736287 519.813168) rotate(-45) scale(0.16 -0.16)">
       <defs>
        <path id="DejaVuSans-37" d="M 525 4666 
L 3525 4666 
L 3525 4397 
L 1831 0 
L 1172 0 
L 2766 4134 
L 525 4134 
L 525 4666 
z
" transform="scale(0.015625)"/>
       </defs>
       <use xlink:href="#DejaVuSans-6d"/>
       <use xlink:href="#DejaVuSans-75" x="97.412109"/>
       <use xlink:href="#DejaVuSans-6c" x="160.791016"/>
       <use xlink:href="#DejaVuSans-74" x="188.574219"/>
       <use xlink:href="#DejaVuSans-69" x="227.783203"/>
       <use xlink:href="#DejaVuSans-70" x="255.566406"/>
       <use xlink:href="#DejaVuSans-6c" x="319.042969"/>
       <use xlink:href="#DejaVuSans-69" x="346.826172"/>
       <use xlink:href="#DejaVuSans-65" x="374.609375"/>
       <use xlink:href="#DejaVuSans-72" x="436.132812"/>
       <use xlink:href="#DejaVuSans-5f" x="477.246094"/>
       <use xlink:href="#DejaVuSans-6e" x="527.246094"/>
       <use xlink:href="#DejaVuSans-37" x="590.625"/>
       <use xlink:href="#DejaVuSans-35" x="654.248047"/>
      </g>
     </g>
    </g>
    <g id="xtick_10">
     <g id="line2d_10">
      <g>
       <use xlink:href="#maea4e79212" x="961.38" y="423" style="stroke: #000000; stroke-width: 0.8"/>
      </g>
     </g>
     <g id="text_10">
      <!-- qft_n160 -->
      <g transform="translate(939.432289 488.421162) rotate(-45) scale(0.16 -0.16)">
       <defs>
        <path id="DejaVuSans-71" d="M 947 1747 
Q 947 1113 1208 752 
Q 1469 391 1925 391 
Q 2381 391 2643 752 
Q 2906 1113 2906 1747 
Q 2906 2381 2643 2742 
Q 2381 3103 1925 3103 
Q 1469 3103 1208 2742 
Q 947 2381 947 1747 
z
M 2906 525 
Q 2725 213 2448 61 
Q 2172 -91 1784 -91 
Q 1150 -91 751 415 
Q 353 922 353 1747 
Q 353 2572 751 3078 
Q 1150 3584 1784 3584 
Q 2172 3584 2448 3432 
Q 2725 3281 2906 2969 
L 2906 3500 
L 3481 3500 
L 3481 -1331 
L 2906 -1331 
L 2906 525 
z
" transform="scale(0.015625)"/>
        <path id="DejaVuSans-66" d="M 2375 4863 
L 2375 4384 
L 1825 4384 
Q 1516 4384 1395 4259 
Q 1275 4134 1275 3809 
L 1275 3500 
L 2222 3500 
L 2222 3053 
L 1275 3053 
L 1275 0 
L 697 0 
L 697 3053 
L 147 3053 
L 147 3500 
L 697 3500 
L 697 3744 
Q 697 4328 969 4595 
Q 1241 4863 1831 4863 
L 2375 4863 
z
" transform="scale(0.015625)"/>
       </defs>
       <use xlink:href="#DejaVuSans-71"/>
       <use xlink:href="#DejaVuSans-66" x="63.476562"/>
       <use xlink:href="#DejaVuSans-74" x="96.931641"/>
       <use xlink:href="#DejaVuSans-5f" x="136.140625"/>
       <use xlink:href="#DejaVuSans-6e" x="186.140625"/>
       <use xlink:href="#DejaVuSans-31" x="249.519531"/>
       <use xlink:href="#DejaVuSans-36" x="313.142578"/>
       <use xlink:href="#DejaVuSans-30" x="376.765625"/>
      </g>
     </g>
    </g>
    <g id="xtick_11">
     <g id="line2d_11">
      <g>
       <use xlink:href="#maea4e79212" x="1051.38" y="423" style="stroke: #000000; stroke-width: 0.8"/>
      </g>
     </g>
     <g id="text_11">
      <!-- qft_n18 -->
      <g transform="translate(1033.031463 481.222815) rotate(-45) scale(0.16 -0.16)">
       <use xlink:href="#DejaVuSans-71"/>
       <use xlink:href="#DejaVuSans-66" x="63.476562"/>
       <use xlink:href="#DejaVuSans-74" x="96.931641"/>
       <use xlink:href="#DejaVuSans-5f" x="136.140625"/>
       <use xlink:href="#DejaVuSans-6e" x="186.140625"/>
       <use xlink:href="#DejaVuSans-31" x="249.519531"/>
       <use xlink:href="#DejaVuSans-38" x="313.142578"/>
      </g>
     </g>
    </g>
    <g id="xtick_12">
     <g id="line2d_12">
      <g>
       <use xlink:href="#maea4e79212" x="1141.38" y="423" style="stroke: #000000; stroke-width: 0.8"/>
      </g>
     </g>
     <g id="text_12">
      <!-- qft_n29 -->
      <g transform="translate(1123.031463 481.222815) rotate(-45) scale(0.16 -0.16)">
       <use xlink:href="#DejaVuSans-71"/>
       <use xlink:href="#DejaVuSans-66" x="63.476562"/>
       <use xlink:href="#DejaVuSans-74" x="96.931641"/>
       <use xlink:href="#DejaVuSans-5f" x="136.140625"/>
       <use xlink:href="#DejaVuSans-6e" x="186.140625"/>
       <use xlink:href="#DejaVuSans-32" x="249.519531"/>
       <use xlink:href="#DejaVuSans-39" x="313.142578"/>
      </g>
     </g>
    </g>
    <g id="xtick_13">
     <g id="line2d_13">
      <g>
       <use xlink:href="#maea4e79212" x="1231.38" y="423" style="stroke: #000000; stroke-width: 0.8"/>
      </g>
     </g>
     <g id="text_13">
      <!-- qft_n63 -->
      <g transform="translate(1213.031463 481.222815) rotate(-45) scale(0.16 -0.16)">
       <use xlink:href="#DejaVuSans-71"/>
       <use xlink:href="#DejaVuSans-66" x="63.476562"/>
       <use xlink:href="#DejaVuSans-74" x="96.931641"/>
       <use xlink:href="#DejaVuSans-5f" x="136.140625"/>
       <use xlink:href="#DejaVuSans-6e" x="186.140625"/>
       <use xlink:href="#DejaVuSans-36" x="249.519531"/>
       <use xlink:href="#DejaVuSans-33" x="313.142578"/>
      </g>
     </g>
    </g>
    <g id="xtick_14">
     <g id="line2d_14">
      <g>
       <use xlink:href="#maea4e79212" x="1321.38" y="423" style="stroke: #000000; stroke-width: 0.8"/>
      </g>
     </g>
     <g id="text_14">
      <!-- qugan_n111 -->
      <g transform="translate(1289.157144 508.342128) rotate(-45) scale(0.16 -0.16)">
       <defs>
        <path id="DejaVuSans-61" d="M 2194 1759 
Q 1497 1759 1228 1600 
Q 959 1441 959 1056 
Q 959 750 1161 570 
Q 1363 391 1709 391 
Q 2188 391 2477 730 
Q 2766 1069 2766 1631 
L 2766 1759 
L 2194 1759 
z
M 3341 1997 
L 3341 0 
L 2766 0 
L 2766 531 
Q 2569 213 2275 61 
Q 1981 -91 1556 -91 
Q 1019 -91 701 211 
Q 384 513 384 1019 
Q 384 1609 779 1909 
Q 1175 2209 1959 2209 
L 2766 2209 
L 2766 2266 
Q 2766 2663 2505 2880 
Q 2244 3097 1772 3097 
Q 1472 3097 1187 3025 
Q 903 2953 641 2809 
L 641 3341 
Q 956 3463 1253 3523 
Q 1550 3584 1831 3584 
Q 2591 3584 2966 3190 
Q 3341 2797 3341 1997 
z
" transform="scale(0.015625)"/>
       </defs>
       <use xlink:href="#DejaVuSans-71"/>
       <use xlink:href="#DejaVuSans-75" x="63.476562"/>
       <use xlink:href="#DejaVuSans-67" x="126.855469"/>
       <use xlink:href="#DejaVuSans-61" x="190.332031"/>
       <use xlink:href="#DejaVuSans-6e" x="251.611328"/>
       <use xlink:href="#DejaVuSans-5f" x="314.990234"/>
       <use xlink:href="#DejaVuSans-6e" x="364.990234"/>
       <use xlink:href="#DejaVuSans-31" x="428.369141"/>
       <use xlink:href="#DejaVuSans-31" x="491.992188"/>
       <use xlink:href="#DejaVuSans-31" x="555.615234"/>
      </g>
     </g>
    </g>
    <g id="xtick_15">
     <g id="line2d_15">
      <g>
       <use xlink:href="#maea4e79212" x="1411.38" y="423" style="stroke: #000000; stroke-width: 0.8"/>
      </g>
     </g>
     <g id="text_15">
      <!-- qugan_n71 -->
      <g transform="translate(1382.756317 501.143781) rotate(-45) scale(0.16 -0.16)">
       <use xlink:href="#DejaVuSans-71"/>
       <use xlink:href="#DejaVuSans-75" x="63.476562"/>
       <use xlink:href="#DejaVuSans-67" x="126.855469"/>
       <use xlink:href="#DejaVuSans-61" x="190.332031"/>
       <use xlink:href="#DejaVuSans-6e" x="251.611328"/>
       <use xlink:href="#DejaVuSans-5f" x="314.990234"/>
       <use xlink:href="#DejaVuSans-6e" x="364.990234"/>
       <use xlink:href="#DejaVuSans-37" x="428.369141"/>
       <use xlink:href="#DejaVuSans-31" x="491.992188"/>
      </g>
     </g>
    </g>
    <g id="xtick_16">
     <g id="line2d_16">
      <g>
       <use xlink:href="#maea4e79212" x="1501.38" y="423" style="stroke: #000000; stroke-width: 0.8"/>
      </g>
     </g>
     <g id="text_16">
      <!-- wstate_n27 -->
      <g transform="translate(1471.677096 503.532034) rotate(-45) scale(0.16 -0.16)">
       <defs>
        <path id="DejaVuSans-77" d="M 269 3500 
L 844 3500 
L 1563 769 
L 2278 3500 
L 2956 3500 
L 3675 769 
L 4391 3500 
L 4966 3500 
L 4050 0 
L 3372 0 
L 2619 2869 
L 1863 0 
L 1184 0 
L 269 3500 
z
" transform="scale(0.015625)"/>
       </defs>
       <use xlink:href="#DejaVuSans-77"/>
       <use xlink:href="#DejaVuSans-73" x="81.787109"/>
       <use xlink:href="#DejaVuSans-74" x="133.886719"/>
       <use xlink:href="#DejaVuSans-61" x="173.095703"/>
       <use xlink:href="#DejaVuSans-74" x="234.375"/>
       <use xlink:href="#DejaVuSans-65" x="273.583984"/>
       <use xlink:href="#DejaVuSans-5f" x="335.107422"/>
       <use xlink:href="#DejaVuSans-6e" x="385.107422"/>
       <use xlink:href="#DejaVuSans-32" x="448.486328"/>
       <use xlink:href="#DejaVuSans-37" x="512.109375"/>
      </g>
     </g>
    </g>
    <g id="text_17">
     <!-- Benchmarks -->
     <g transform="translate(776.64625 538.638228) scale(0.16 -0.16)">
      <defs>
       <path id="DejaVuSans-42" d="M 1259 2228 
L 1259 519 
L 2272 519 
Q 2781 519 3026 730 
Q 3272 941 3272 1375 
Q 3272 1813 3026 2020 
Q 2781 2228 2272 2228 
L 1259 2228 
z
M 1259 4147 
L 1259 2741 
L 2194 2741 
Q 2656 2741 2882 2914 
Q 3109 3088 3109 3444 
Q 3109 3797 2882 3972 
Q 2656 4147 2194 4147 
L 1259 4147 
z
M 628 4666 
L 2241 4666 
Q 2963 4666 3353 4366 
Q 3744 4066 3744 3513 
Q 3744 3084 3544 2831 
Q 3344 2578 2956 2516 
Q 3422 2416 3680 2098 
Q 3938 1781 3938 1306 
Q 3938 681 3513 340 
Q 3088 0 2303 0 
L 628 0 
L 628 4666 
z
" transform="scale(0.015625)"/>
       <path id="DejaVuSans-68" d="M 3513 2113 
L 3513 0 
L 2938 0 
L 2938 2094 
Q 2938 2591 2744 2837 
Q 2550 3084 2163 3084 
Q 1697 3084 1428 2787 
Q 1159 2491 1159 1978 
L 1159 0 
L 581 0 
L 581 4863 
L 1159 4863 
L 1159 2956 
Q 1366 3272 1645 3428 
Q 1925 3584 2291 3584 
Q 2894 3584 3203 3211 
Q 3513 2838 3513 2113 
z
" transform="scale(0.015625)"/>
       <path id="DejaVuSans-6b" d="M 581 4863 
L 1159 4863 
L 1159 1991 
L 2875 3500 
L 3609 3500 
L 1753 1863 
L 3688 0 
L 2938 0 
L 1159 1709 
L 1159 0 
L 581 0 
L 581 4863 
z
" transform="scale(0.015625)"/>
      </defs>
      <use xlink:href="#DejaVuSans-42"/>
      <use xlink:href="#DejaVuSans-65" x="68.603516"/>
      <use xlink:href="#DejaVuSans-6e" x="130.126953"/>
      <use xlink:href="#DejaVuSans-63" x="193.505859"/>
      <use xlink:href="#DejaVuSans-68" x="248.486328"/>
      <use xlink:href="#DejaVuSans-6d" x="311.865234"/>
      <use xlink:href="#DejaVuSans-61" x="409.277344"/>
      <use xlink:href="#DejaVuSans-72" x="470.556641"/>
      <use xlink:href="#DejaVuSans-6b" x="511.669922"/>
      <use xlink:href="#DejaVuSans-73" x="569.580078"/>
     </g>
    </g>
   </g>
   <g id="matplotlib.axis_2">
    <g id="ytick_1">
     <g id="line2d_17">
      <defs>
       <path id="mb3be96cbb6" d="M 0 0 
L -3.5 0 
" style="stroke: #000000; stroke-width: 0.8"/>
      </defs>
      <g>
       <use xlink:href="#mb3be96cbb6" x="59.13" y="423" style="stroke: #000000; stroke-width: 0.8"/>
      </g>
     </g>
     <g id="text_18">
      <!-- 0.0 -->
      <g transform="translate(26.685 429.07875) scale(0.16 -0.16)">
       <defs>
        <path id="DejaVuSans-2e" d="M 684 794 
L 1344 794 
L 1344 0 
L 684 0 
L 684 794 
z
" transform="scale(0.015625)"/>
       </defs>
       <use xlink:href="#DejaVuSans-30"/>
       <use xlink:href="#DejaVuSans-2e" x="63.623047"/>
       <use xlink:href="#DejaVuSans-30" x="95.410156"/>
      </g>
     </g>
    </g>
    <g id="ytick_2">
     <g id="line2d_18">
      <g>
       <use xlink:href="#mb3be96cbb6" x="59.13" y="355.622708" style="stroke: #000000; stroke-width: 0.8"/>
      </g>
     </g>
     <g id="text_19">
      <!-- 0.2 -->
      <g transform="translate(26.685 361.701458) scale(0.16 -0.16)">
       <use xlink:href="#DejaVuSans-30"/>
       <use xlink:href="#DejaVuSans-2e" x="63.623047"/>
       <use xlink:href="#DejaVuSans-32" x="95.410156"/>
      </g>
     </g>
    </g>
    <g id="ytick_3">
     <g id="line2d_19">
      <g>
       <use xlink:href="#mb3be96cbb6" x="59.13" y="288.245416" style="stroke: #000000; stroke-width: 0.8"/>
      </g>
     </g>
     <g id="text_20">
      <!-- 0.4 -->
      <g transform="translate(26.685 294.324166) scale(0.16 -0.16)">
       <use xlink:href="#DejaVuSans-30"/>
       <use xlink:href="#DejaVuSans-2e" x="63.623047"/>
       <use xlink:href="#DejaVuSans-34" x="95.410156"/>
      </g>
     </g>
    </g>
    <g id="ytick_4">
     <g id="line2d_20">
      <g>
       <use xlink:href="#mb3be96cbb6" x="59.13" y="220.868124" style="stroke: #000000; stroke-width: 0.8"/>
      </g>
     </g>
     <g id="text_21">
      <!-- 0.6 -->
      <g transform="translate(26.685 226.946874) scale(0.16 -0.16)">
       <use xlink:href="#DejaVuSans-30"/>
       <use xlink:href="#DejaVuSans-2e" x="63.623047"/>
       <use xlink:href="#DejaVuSans-36" x="95.410156"/>
      </g>
     </g>
    </g>
    <g id="ytick_5">
     <g id="line2d_21">
      <g>
       <use xlink:href="#mb3be96cbb6" x="59.13" y="153.490833" style="stroke: #000000; stroke-width: 0.8"/>
      </g>
     </g>
     <g id="text_22">
      <!-- 0.8 -->
      <g transform="translate(26.685 159.569583) scale(0.16 -0.16)">
       <use xlink:href="#DejaVuSans-30"/>
       <use xlink:href="#DejaVuSans-2e" x="63.623047"/>
       <use xlink:href="#DejaVuSans-38" x="95.410156"/>
      </g>
     </g>
    </g>
    <g id="ytick_6">
     <g id="line2d_22">
      <g>
       <use xlink:href="#mb3be96cbb6" x="59.13" y="86.113541" style="stroke: #000000; stroke-width: 0.8"/>
      </g>
     </g>
     <g id="text_23">
      <!-- 1.0 -->
      <g transform="translate(26.685 92.192291) scale(0.16 -0.16)">
       <use xlink:href="#DejaVuSans-31"/>
       <use xlink:href="#DejaVuSans-2e" x="63.623047"/>
       <use xlink:href="#DejaVuSans-30" x="95.410156"/>
      </g>
     </g>
    </g>
    <g id="ytick_7">
     <g id="line2d_23">
      <g>
       <use xlink:href="#mb3be96cbb6" x="59.13" y="18.736249" style="stroke: #000000; stroke-width: 0.8"/>
      </g>
     </g>
     <g id="text_24">
      <!-- 1.2 -->
      <g transform="translate(26.685 24.814999) scale(0.16 -0.16)">
       <use xlink:href="#DejaVuSans-31"/>
       <use xlink:href="#DejaVuSans-2e" x="63.623047"/>
       <use xlink:href="#DejaVuSans-32" x="95.410156"/>
      </g>
     </g>
    </g>
    <g id="text_25">
     <!-- Normalized Execution Time -->
     <g transform="translate(19.3575 324.3825) rotate(-90) scale(0.16 -0.16)">
      <defs>
       <path id="DejaVuSans-4e" d="M 628 4666 
L 1478 4666 
L 3547 763 
L 3547 4666 
L 4159 4666 
L 4159 0 
L 3309 0 
L 1241 3903 
L 1241 0 
L 628 0 
L 628 4666 
z
" transform="scale(0.015625)"/>
       <path id="DejaVuSans-6f" d="M 1959 3097 
Q 1497 3097 1228 2736 
Q 959 2375 959 1747 
Q 959 1119 1226 758 
Q 1494 397 1959 397 
Q 2419 397 2687 759 
Q 2956 1122 2956 1747 
Q 2956 2369 2687 2733 
Q 2419 3097 1959 3097 
z
M 1959 3584 
Q 2709 3584 3137 3096 
Q 3566 2609 3566 1747 
Q 3566 888 3137 398 
Q 2709 -91 1959 -91 
Q 1206 -91 779 398 
Q 353 888 353 1747 
Q 353 2609 779 3096 
Q 1206 3584 1959 3584 
z
" transform="scale(0.015625)"/>
       <path id="DejaVuSans-7a" d="M 353 3500 
L 3084 3500 
L 3084 2975 
L 922 459 
L 3084 459 
L 3084 0 
L 275 0 
L 275 525 
L 2438 3041 
L 353 3041 
L 353 3500 
z
" transform="scale(0.015625)"/>
       <path id="DejaVuSans-20" transform="scale(0.015625)"/>
       <path id="DejaVuSans-45" d="M 628 4666 
L 3578 4666 
L 3578 4134 
L 1259 4134 
L 1259 2753 
L 3481 2753 
L 3481 2222 
L 1259 2222 
L 1259 531 
L 3634 531 
L 3634 0 
L 628 0 
L 628 4666 
z
" transform="scale(0.015625)"/>
       <path id="DejaVuSans-78" d="M 3513 3500 
L 2247 1797 
L 3578 0 
L 2900 0 
L 1881 1375 
L 863 0 
L 184 0 
L 1544 1831 
L 300 3500 
L 978 3500 
L 1906 2253 
L 2834 3500 
L 3513 3500 
z
" transform="scale(0.015625)"/>
       <path id="DejaVuSans-54" d="M -19 4666 
L 3928 4666 
L 3928 4134 
L 2272 4134 
L 2272 0 
L 1638 0 
L 1638 4134 
L -19 4134 
L -19 4666 
z
" transform="scale(0.015625)"/>
      </defs>
      <use xlink:href="#DejaVuSans-4e"/>
      <use xlink:href="#DejaVuSans-6f" x="74.804688"/>
      <use xlink:href="#DejaVuSans-72" x="135.986328"/>
      <use xlink:href="#DejaVuSans-6d" x="175.349609"/>
      <use xlink:href="#DejaVuSans-61" x="272.761719"/>
      <use xlink:href="#DejaVuSans-6c" x="334.041016"/>
      <use xlink:href="#DejaVuSans-69" x="361.824219"/>
      <use xlink:href="#DejaVuSans-7a" x="389.607422"/>
      <use xlink:href="#DejaVuSans-65" x="442.097656"/>
      <use xlink:href="#DejaVuSans-64" x="503.621094"/>
      <use xlink:href="#DejaVuSans-20" x="567.097656"/>
      <use xlink:href="#DejaVuSans-45" x="598.884766"/>
      <use xlink:href="#DejaVuSans-78" x="662.068359"/>
      <use xlink:href="#DejaVuSans-65" x="718.123047"/>
      <use xlink:href="#DejaVuSans-63" x="779.646484"/>
      <use xlink:href="#DejaVuSans-75" x="834.626953"/>
      <use xlink:href="#DejaVuSans-74" x="898.005859"/>
      <use xlink:href="#DejaVuSans-69" x="937.214844"/>
      <use xlink:href="#DejaVuSans-6f" x="964.998047"/>
      <use xlink:href="#DejaVuSans-6e" x="1026.179688"/>
      <use xlink:href="#DejaVuSans-20" x="1089.558594"/>
      <use xlink:href="#DejaVuSans-54" x="1121.345703"/>
      <use xlink:href="#DejaVuSans-69" x="1179.304688"/>
      <use xlink:href="#DejaVuSans-6d" x="1207.087891"/>
      <use xlink:href="#DejaVuSans-65" x="1304.5"/>
     </g>
    </g>
   </g>
   <g id="LineCollection_1">
    <path d="M 134.505 409.230391 
L 134.505 408.854986 
" clip-path="url(#p2f32ef1779)" style="fill: none; stroke: #000000"/>
   </g>
   <g id="LineCollection_2">
    <path d="M 224.505 396.113447 
L 224.505 390.852733 
" clip-path="url(#p2f32ef1779)" style="fill: none; stroke: #000000"/>
   </g>
   <g id="LineCollection_3">
    <path d="M 314.505 224.213044 
L 314.505 203.610889 
" clip-path="url(#p2f32ef1779)" style="fill: none; stroke: #000000"/>
   </g>
   <g id="LineCollection_4">
    <path d="M 404.505 395.260207 
L 404.505 366.413874 
" clip-path="url(#p2f32ef1779)" style="fill: none; stroke: #000000"/>
   </g>
   <g id="LineCollection_5">
    <path d="M 494.505 393.934028 
L 494.505 369.57457 
" clip-path="url(#p2f32ef1779)" style="fill: none; stroke: #000000"/>
   </g>
   <g id="LineCollection_6">
    <path d="M 584.505 403.972962 
L 584.505 387.619285 
" clip-path="url(#p2f32ef1779)" style="fill: none; stroke: #000000"/>
   </g>
   <g id="LineCollection_7">
    <path d="M 674.505 408.420465 
L 674.505 394.757022 
" clip-path="url(#p2f32ef1779)" style="fill: none; stroke: #000000"/>
   </g>
   <g id="LineCollection_8">
    <path d="M 764.505 295.475146 
L 764.505 286.960839 
" clip-path="url(#p2f32ef1779)" style="fill: none; stroke: #000000"/>
   </g>
   <g id="LineCollection_9">
    <path d="M 854.505 299.972179 
L 854.505 295.48536 
" clip-path="url(#p2f32ef1779)" style="fill: none; stroke: #000000"/>
   </g>
   <g id="LineCollection_10">
    <path d="M 944.505 368.214516 
L 944.505 364.439609 
" clip-path="url(#p2f32ef1779)" style="fill: none; stroke: #000000"/>
   </g>
   <g id="LineCollection_11">
    <path d="M 1034.505 334.065489 
L 1034.505 312.282265 
" clip-path="url(#p2f32ef1779)" style="fill: none; stroke: #000000"/>
   </g>
   <g id="LineCollection_12">
    <path d="M 1124.505 350.902382 
L 1124.505 341.526198 
" clip-path="url(#p2f32ef1779)" style="fill: none; stroke: #000000"/>
   </g>
   <g id="LineCollection_13">
    <path d="M 1214.505 360.457351 
L 1214.505 355.253553 
" clip-path="url(#p2f32ef1779)" style="fill: none; stroke: #000000"/>
   </g>
   <g id="LineCollection_14">
    <path d="M 1304.505 366.797001 
L 1304.505 358.796962 
" clip-path="url(#p2f32ef1779)" style="fill: none; stroke: #000000"/>
   </g>
   <g id="LineCollection_15">
    <path d="M 1394.505 364.144839 
L 1394.505 354.729066 
" clip-path="url(#p2f32ef1779)" style="fill: none; stroke: #000000"/>
   </g>
   <g id="LineCollection_16">
    <path d="M 1484.505 301.490897 
L 1484.505 246.141029 
" clip-path="url(#p2f32ef1779)" style="fill: none; stroke: #000000"/>
   </g>
   <g id="LineCollection_17">
    <path d="M 145.755 409.219303 
L 145.755 408.757835 
" clip-path="url(#p2f32ef1779)" style="fill: none; stroke: #000000"/>
   </g>
   <g id="LineCollection_18">
    <path d="M 235.755 395.506008 
L 235.755 390.983279 
" clip-path="url(#p2f32ef1779)" style="fill: none; stroke: #000000"/>
   </g>
   <g id="LineCollection_19">
    <path d="M 325.755 224.02179 
L 325.755 200.672559 
" clip-path="url(#p2f32ef1779)" style="fill: none; stroke: #000000"/>
   </g>
   <g id="LineCollection_20">
    <path d="M 415.755 395.813422 
L 415.755 375.818691 
" clip-path="url(#p2f32ef1779)" style="fill: none; stroke: #000000"/>
   </g>
   <g id="LineCollection_21">
    <path d="M 505.755 396.096467 
L 505.755 369.57457 
" clip-path="url(#p2f32ef1779)" style="fill: none; stroke: #000000"/>
   </g>
   <g id="LineCollection_22">
    <path d="M 595.755 404.601978 
L 595.755 386.596975 
" clip-path="url(#p2f32ef1779)" style="fill: none; stroke: #000000"/>
   </g>
   <g id="LineCollection_23">
    <path d="M 685.755 407.739909 
L 685.755 394.495375 
" clip-path="url(#p2f32ef1779)" style="fill: none; stroke: #000000"/>
   </g>
   <g id="LineCollection_24">
    <path d="M 775.755 296.731336 
L 775.755 285.93402 
" clip-path="url(#p2f32ef1779)" style="fill: none; stroke: #000000"/>
   </g>
   <g id="LineCollection_25">
    <path d="M 865.755 299.497694 
L 865.755 294.73917 
" clip-path="url(#p2f32ef1779)" style="fill: none; stroke: #000000"/>
   </g>
   <g id="LineCollection_26">
    <path d="M 955.755 367.428439 
L 955.755 363.235246 
" clip-path="url(#p2f32ef1779)" style="fill: none; stroke: #000000"/>
   </g>
   <g id="LineCollection_27">
    <path d="M 1045.755 333.344702 
L 1045.755 312.462497 
" clip-path="url(#p2f32ef1779)" style="fill: none; stroke: #000000"/>
   </g>
   <g id="LineCollection_28">
    <path d="M 1135.755 350.677587 
L 1135.755 341.867467 
" clip-path="url(#p2f32ef1779)" style="fill: none; stroke: #000000"/>
   </g>
   <g id="LineCollection_29">
    <path d="M 1225.755 359.983912 
L 1225.755 354.9683 
" clip-path="url(#p2f32ef1779)" style="fill: none; stroke: #000000"/>
   </g>
   <g id="LineCollection_30">
    <path d="M 1315.755 367.238346 
L 1315.755 358.630793 
" clip-path="url(#p2f32ef1779)" style="fill: none; stroke: #000000"/>
   </g>
   <g id="LineCollection_31">
    <path d="M 1405.755 364.114832 
L 1405.755 355.684541 
" clip-path="url(#p2f32ef1779)" style="fill: none; stroke: #000000"/>
   </g>
   <g id="LineCollection_32">
    <path d="M 1495.755 300.101552 
L 1495.755 246.575275 
" clip-path="url(#p2f32ef1779)" style="fill: none; stroke: #000000"/>
   </g>
   <g id="LineCollection_33">
    <path d="M 157.005 409.484651 
L 157.005 408.751206 
" clip-path="url(#p2f32ef1779)" style="fill: none; stroke: #000000"/>
   </g>
   <g id="LineCollection_34">
    <path d="M 247.005 396.116423 
L 247.005 390.713046 
" clip-path="url(#p2f32ef1779)" style="fill: none; stroke: #000000"/>
   </g>
   <g id="LineCollection_35">
    <path d="M 337.005 234.823302 
L 337.005 217.335515 
" clip-path="url(#p2f32ef1779)" style="fill: none; stroke: #000000"/>
   </g>
   <g id="LineCollection_36">
    <path d="M 427.005 398.579496 
L 427.005 371.946188 
" clip-path="url(#p2f32ef1779)" style="fill: none; stroke: #000000"/>
   </g>
   <g id="LineCollection_37">
    <path d="M 517.005 396.6053 
L 517.005 375.616541 
" clip-path="url(#p2f32ef1779)" style="fill: none; stroke: #000000"/>
   </g>
   <g id="LineCollection_38">
    <path d="M 607.005 403.147409 
L 607.005 381.565231 
" clip-path="url(#p2f32ef1779)" style="fill: none; stroke: #000000"/>
   </g>
   <g id="LineCollection_39">
    <path d="M 697.005 408.237239 
L 697.005 392.558312 
" clip-path="url(#p2f32ef1779)" style="fill: none; stroke: #000000"/>
   </g>
   <g id="LineCollection_40">
    <path d="M 787.005 299.640267 
L 787.005 290.796448 
" clip-path="url(#p2f32ef1779)" style="fill: none; stroke: #000000"/>
   </g>
   <g id="LineCollection_41">
    <path d="M 877.005 303.729897 
L 877.005 299.178712 
" clip-path="url(#p2f32ef1779)" style="fill: none; stroke: #000000"/>
   </g>
   <g id="LineCollection_42">
    <path d="M 967.005 368.113153 
L 967.005 365.507059 
" clip-path="url(#p2f32ef1779)" style="fill: none; stroke: #000000"/>
   </g>
   <g id="LineCollection_43">
    <path d="M 1057.005 332.744024 
L 1057.005 312.142116 
" clip-path="url(#p2f32ef1779)" style="fill: none; stroke: #000000"/>
   </g>
   <g id="LineCollection_44">
    <path d="M 1147.005 350.46968 
L 1147.005 341.950747 
" clip-path="url(#p2f32ef1779)" style="fill: none; stroke: #000000"/>
   </g>
   <g id="LineCollection_45">
    <path d="M 1237.005 359.286178 
L 1237.005 354.70726 
" clip-path="url(#p2f32ef1779)" style="fill: none; stroke: #000000"/>
   </g>
   <g id="LineCollection_46">
    <path d="M 1327.005 368.800334 
L 1327.005 360.525119 
" clip-path="url(#p2f32ef1779)" style="fill: none; stroke: #000000"/>
   </g>
   <g id="LineCollection_47">
    <path d="M 1417.005 365.430914 
L 1417.005 358.233528 
" clip-path="url(#p2f32ef1779)" style="fill: none; stroke: #000000"/>
   </g>
   <g id="LineCollection_48">
    <path d="M 1507.005 302.662968 
L 1507.005 251.523984 
" clip-path="url(#p2f32ef1779)" style="fill: none; stroke: #000000"/>
   </g>
   <g id="LineCollection_49">
    <path d="M 168.255 88.475202 
L 168.255 84.199608 
" clip-path="url(#p2f32ef1779)" style="fill: none; stroke: #000000"/>
   </g>
   <g id="LineCollection_50">
    <path d="M 258.255 100.583327 
L 258.255 71.908051 
" clip-path="url(#p2f32ef1779)" style="fill: none; stroke: #000000"/>
   </g>
   <g id="LineCollection_51">
    <path d="M 348.255 99.151415 
L 348.255 71.247773 
" clip-path="url(#p2f32ef1779)" style="fill: none; stroke: #000000"/>
   </g>
   <g id="LineCollection_52">
    <path d="M 438.255 122.288495 
L 438.255 27.60966 
" clip-path="url(#p2f32ef1779)" style="fill: none; stroke: #000000"/>
   </g>
   <g id="LineCollection_53">
    <path d="M 528.255 121.845746 
L 528.255 29.877875 
" clip-path="url(#p2f32ef1779)" style="fill: none; stroke: #000000"/>
   </g>
   <g id="LineCollection_54">
    <path d="M 618.255 125.250631 
L 618.255 34.203167 
" clip-path="url(#p2f32ef1779)" style="fill: none; stroke: #000000"/>
   </g>
   <g id="LineCollection_55">
    <path d="M 708.255 113.610369 
L 708.255 54.454079 
" clip-path="url(#p2f32ef1779)" style="fill: none; stroke: #000000"/>
   </g>
   <g id="LineCollection_56">
    <path d="M 798.255 94.894332 
L 798.255 76.670048 
" clip-path="url(#p2f32ef1779)" style="fill: none; stroke: #000000"/>
   </g>
   <g id="LineCollection_57">
    <path d="M 888.255 91.20037 
L 888.255 82.107114 
" clip-path="url(#p2f32ef1779)" style="fill: none; stroke: #000000"/>
   </g>
   <g id="LineCollection_58">
    <path d="M 978.255 92.903329 
L 978.255 80.504212 
" clip-path="url(#p2f32ef1779)" style="fill: none; stroke: #000000"/>
   </g>
   <g id="LineCollection_59">
    <path d="M 1068.255 116.955158 
L 1068.255 44.617236 
" clip-path="url(#p2f32ef1779)" style="fill: none; stroke: #000000"/>
   </g>
   <g id="LineCollection_60">
    <path d="M 1158.255 102.479499 
L 1158.255 68.252349 
" clip-path="url(#p2f32ef1779)" style="fill: none; stroke: #000000"/>
   </g>
   <g id="LineCollection_61">
    <path d="M 1248.255 96.881134 
L 1248.255 75.437237 
" clip-path="url(#p2f32ef1779)" style="fill: none; stroke: #000000"/>
   </g>
   <g id="LineCollection_62">
    <path d="M 1338.255 98.837569 
L 1338.255 72.735747 
" clip-path="url(#p2f32ef1779)" style="fill: none; stroke: #000000"/>
   </g>
   <g id="LineCollection_63">
    <path d="M 1428.255 101.537639 
L 1428.255 68.710883 
" clip-path="url(#p2f32ef1779)" style="fill: none; stroke: #000000"/>
   </g>
   <g id="LineCollection_64">
    <path d="M 1518.255 131.447378 
L 1518.255 27 
" clip-path="url(#p2f32ef1779)" style="fill: none; stroke: #000000"/>
   </g>
   <g id="patch_83">
    <path d="M 59.13 423 
L 59.13 7.2 
" style="fill: none; stroke: #000000; stroke-width: 0.8; stroke-linejoin: miter; stroke-linecap: square"/>
   </g>
   <g id="patch_84">
    <path d="M 1593.63 423 
L 1593.63 7.2 
" style="fill: none; stroke: #000000; stroke-width: 0.8; stroke-linejoin: miter; stroke-linecap: square"/>
   </g>
   <g id="patch_85">
    <path d="M 59.13 423 
L 1593.63 423 
" style="fill: none; stroke: #000000; stroke-width: 0.8; stroke-linejoin: miter; stroke-linecap: square"/>
   </g>
   <g id="patch_86">
    <path d="M 59.13 7.2 
L 1593.63 7.2 
" style="fill: none; stroke: #000000; stroke-width: 0.8; stroke-linejoin: miter; stroke-linecap: square"/>
   </g>
   <g id="legend_1">
    <g id="patch_87">
     <path d="M 69.93 27.118125 
L 93.93 27.118125 
L 93.93 18.718125 
L 69.93 18.718125 
z
" style="fill: #6fa8dc"/>
    </g>
    <g id="text_26">
     <!-- dynamic, k=25 -->
     <g transform="translate(103.53 27.118125) scale(0.12 -0.12)">
      <defs>
       <path id="DejaVuSans-79" d="M 2059 -325 
Q 1816 -950 1584 -1140 
Q 1353 -1331 966 -1331 
L 506 -1331 
L 506 -850 
L 844 -850 
Q 1081 -850 1212 -737 
Q 1344 -625 1503 -206 
L 1606 56 
L 191 3500 
L 800 3500 
L 1894 763 
L 2988 3500 
L 3597 3500 
L 2059 -325 
z
" transform="scale(0.015625)"/>
       <path id="DejaVuSans-2c" d="M 750 794 
L 1409 794 
L 1409 256 
L 897 -744 
L 494 -744 
L 750 256 
L 750 794 
z
" transform="scale(0.015625)"/>
       <path id="DejaVuSans-3d" d="M 678 2906 
L 4684 2906 
L 4684 2381 
L 678 2381 
L 678 2906 
z
M 678 1631 
L 4684 1631 
L 4684 1100 
L 678 1100 
L 678 1631 
z
" transform="scale(0.015625)"/>
      </defs>
      <use xlink:href="#DejaVuSans-64"/>
      <use xlink:href="#DejaVuSans-79" x="63.476562"/>
      <use xlink:href="#DejaVuSans-6e" x="122.65625"/>
      <use xlink:href="#DejaVuSans-61" x="186.035156"/>
      <use xlink:href="#DejaVuSans-6d" x="247.314453"/>
      <use xlink:href="#DejaVuSans-69" x="344.726562"/>
      <use xlink:href="#DejaVuSans-63" x="372.509766"/>
      <use xlink:href="#DejaVuSans-2c" x="427.490234"/>
      <use xlink:href="#DejaVuSans-20" x="459.277344"/>
      <use xlink:href="#DejaVuSans-6b" x="491.064453"/>
      <use xlink:href="#DejaVuSans-3d" x="548.974609"/>
      <use xlink:href="#DejaVuSans-32" x="632.763672"/>
      <use xlink:href="#DejaVuSans-35" x="696.386719"/>
     </g>
    </g>
    <g id="patch_88">
     <path d="M 69.93 44.731875 
L 93.93 44.731875 
L 93.93 36.331875 
L 69.93 36.331875 
z
" style="fill: #f6b26b"/>
    </g>
    <g id="text_27">
     <!-- dynamic, k=100 -->
     <g transform="translate(103.53 44.731875) scale(0.12 -0.12)">
      <use xlink:href="#DejaVuSans-64"/>
      <use xlink:href="#DejaVuSans-79" x="63.476562"/>
      <use xlink:href="#DejaVuSans-6e" x="122.65625"/>
      <use xlink:href="#DejaVuSans-61" x="186.035156"/>
      <use xlink:href="#DejaVuSans-6d" x="247.314453"/>
      <use xlink:href="#DejaVuSans-69" x="344.726562"/>
      <use xlink:href="#DejaVuSans-63" x="372.509766"/>
      <use xlink:href="#DejaVuSans-2c" x="427.490234"/>
      <use xlink:href="#DejaVuSans-20" x="459.277344"/>
      <use xlink:href="#DejaVuSans-6b" x="491.064453"/>
      <use xlink:href="#DejaVuSans-3d" x="548.974609"/>
      <use xlink:href="#DejaVuSans-31" x="632.763672"/>
      <use xlink:href="#DejaVuSans-30" x="696.386719"/>
      <use xlink:href="#DejaVuSans-30" x="760.009766"/>
     </g>
    </g>
    <g id="patch_89">
     <path d="M 69.93 62.345625 
L 93.93 62.345625 
L 93.93 53.945625 
L 69.93 53.945625 
z
" style="fill: #76a5af"/>
    </g>
    <g id="text_28">
     <!-- dynamic, k=0 (stalls) -->
     <g transform="translate(103.53 62.345625) scale(0.12 -0.12)">
      <defs>
       <path id="DejaVuSans-28" d="M 1984 4856 
Q 1566 4138 1362 3434 
Q 1159 2731 1159 2009 
Q 1159 1288 1364 580 
Q 1569 -128 1984 -844 
L 1484 -844 
Q 1016 -109 783 600 
Q 550 1309 550 2009 
Q 550 2706 781 3412 
Q 1013 4119 1484 4856 
L 1984 4856 
z
" transform="scale(0.015625)"/>
       <path id="DejaVuSans-29" d="M 513 4856 
L 1013 4856 
Q 1481 4119 1714 3412 
Q 1947 2706 1947 2009 
Q 1947 1309 1714 600 
Q 1481 -109 1013 -844 
L 513 -844 
Q 928 -128 1133 580 
Q 1338 1288 1338 2009 
Q 1338 2731 1133 3434 
Q 928 4138 513 4856 
z
" transform="scale(0.015625)"/>
      </defs>
      <use xlink:href="#DejaVuSans-64"/>
      <use xlink:href="#DejaVuSans-79" x="63.476562"/>
      <use xlink:href="#DejaVuSans-6e" x="122.65625"/>
      <use xlink:href="#DejaVuSans-61" x="186.035156"/>
      <use xlink:href="#DejaVuSans-6d" x="247.314453"/>
      <use xlink:href="#DejaVuSans-69" x="344.726562"/>
      <use xlink:href="#DejaVuSans-63" x="372.509766"/>
      <use xlink:href="#DejaVuSans-2c" x="427.490234"/>
      <use xlink:href="#DejaVuSans-20" x="459.277344"/>
      <use xlink:href="#DejaVuSans-6b" x="491.064453"/>
      <use xlink:href="#DejaVuSans-3d" x="548.974609"/>
      <use xlink:href="#DejaVuSans-30" x="632.763672"/>
      <use xlink:href="#DejaVuSans-20" x="696.386719"/>
      <use xlink:href="#DejaVuSans-28" x="728.173828"/>
      <use xlink:href="#DejaVuSans-73" x="767.1875"/>
      <use xlink:href="#DejaVuSans-74" x="819.287109"/>
      <use xlink:href="#DejaVuSans-61" x="858.496094"/>
      <use xlink:href="#DejaVuSans-6c" x="919.775391"/>
      <use xlink:href="#DejaVuSans-6c" x="947.558594"/>
      <use xlink:href="#DejaVuSans-73" x="975.341797"/>
      <use xlink:href="#DejaVuSans-29" x="1027.441406"/>
     </g>
    </g>
    <g id="patch_90">
     <path d="M 69.93 79.959375 
L 93.93 79.959375 
L 93.93 71.559375 
L 69.93 71.559375 
z
" style="fill: #e06666"/>
    </g>
    <g id="text_29">
     <!-- static -->
     <g transform="translate(103.53 79.959375) scale(0.12 -0.12)">
      <use xlink:href="#DejaVuSans-73"/>
      <use xlink:href="#DejaVuSans-74" x="52.099609"/>
      <use xlink:href="#DejaVuSans-61" x="91.308594"/>
      <use xlink:href="#DejaVuSans-74" x="152.587891"/>
      <use xlink:href="#DejaVuSans-69" x="191.796875"/>
      <use xlink:href="#DejaVuSans-63" x="219.580078"/>
     </g>
    </g>
   </g>
  </g>
 </g>
 <defs>
  <clipPath id="p2f32ef1779">
   <rect x="59.13" y="7.2" width="1534.5" height="415.8"/>
  </clipPath>
 </defs>
</svg>
