<svg version="1.1" viewBox="0.0 0.0 604.7244094488188 604.7244094488188" fill="none" stroke="none" stroke-linecap="square" stroke-miterlimit="10" xmlns:xlink="http://www.w3.org/1999/xlink" xmlns="http://www.w3.org/2000/svg"><clipPath id="p.0"><path d="m0 0l604.7244 0l0 604.7244l-604.7244 0l0 -604.7244z" clip-rule="nonzero"/></clipPath><g clip-path="url(#p.0)"><path fill="#000000" fill-opacity="0.0" d="m0 0l604.7244 0l0 604.7244l-604.7244 0z" fill-rule="evenodd"/><path fill="#d0e0e3" d="m113.44882 113.44882l188.97638 0l0 188.97638l-188.97638 0z" fill-rule="evenodd"/><path stroke="#595959" stroke-width="2.0" stroke-linejoin="round" stroke-linecap="butt" d="m113.44882 113.44882l188.97638 0l0 188.97638l-188.97638 0z" fill-rule="evenodd"/><path fill="#ead1dc" d="m302.4252 113.44882l188.97638 0l0 188.97638l-188.97638 0z" fill-rule="evenodd"/><path stroke="#595959" stroke-width="2.0" stroke-linejoin="round" stroke-linecap="butt" d="m302.4252 113.44882l188.97638 0l0 188.97638l-188.97638 0z" fill-rule="evenodd"/><path fill="#ead1dc" d="m113.44882 302.4252l188.97638 0l0 188.97638l-188.97638 0z" fill-rule="evenodd"/><path stroke="#595959" stroke-width="2.0" stroke-linejoin="round" stroke-linecap="butt" d="m113.44882 302.4252l188.97638 0l0 188.97638l-188.97638 0z" fill-rule="evenodd"/><path fill="#d0e0e3" d="m302.4252 302.4252l188.97638 0l0 188.97638l-188.97638 0z" fill-rule="evenodd"/><path stroke="#595959" stroke-width="2.0" stroke-linejoin="round" stroke-linecap="butt" d="m302.4252 302.4252l188.97638 0l0 188.97638l-188.97638 0z" fill-rule="evenodd"/><path fill="#ead1dc" d="m113.44882 113.44882l94.48819 -94.48819l94.48819 94.48819z" fill-rule="evenodd"/><path stroke="#595959" stroke-width="2.0" stroke-linejoin="round" stroke-linecap="butt" d="m113.44882 113.44882l94.48819 -94.48819l94.48819 94.48819z" fill-rule="evenodd"/><path fill="#ead1dc" d="m491.40158 491.40158l-94.48819 94.48819l-94.48819 -94.48819z" fill-rule="evenodd"/><path stroke="#595959" stroke-width="2.0" stroke-linejoin="round" stroke-linecap="butt" d="m491.40158 491.40158l-94.48819 94.48819l-94.48819 -94.48819z" fill-rule="evenodd"/><path fill="#d0e0e3" d="m491.40158 113.44882l94.48819 94.48819l-94.48819 94.48819z" fill-rule="evenodd"/><path stroke="#595959" stroke-width="2.0" stroke-linejoin="round" stroke-linecap="butt" d="m491.40158 113.44882l94.48819 94.48819l-94.48819 94.48819z" fill-rule="evenodd"/><path fill="#d0e0e3" d="m113.44882 491.40158l-94.48819 -94.48819l94.48819 -94.48819z" fill-rule="evenodd"/><path stroke="#595959" stroke-width="2.0" stroke-linejoin="round" stroke-linecap="butt" d="m113.44882 491.40158l-94.48819 -94.48819l94.48819 -94.48819z" fill-rule="evenodd"/><path fill="#595959" d="m104.0 113.385826l0 0c0 -5.183647 4.202179 -9.385826 9.385826 -9.385826l0 0c2.489273 0 4.876602 0.9888611 6.63678 2.7490463c1.7601852 1.7601852 2.7490463 4.1475067 2.7490463 6.63678l0 0c0 5.183647 -4.202179 9.385826 -9.385826 9.385826l0 0c-5.183647 0 -9.385826 -4.202179 -9.385826 -9.385826z" fill-rule="evenodd"/><path stroke="#595959" stroke-width="2.0" stroke-linejoin="round" stroke-linecap="butt" d="m104.0 113.385826l0 0c0 -5.183647 4.202179 -9.385826 9.385826 -9.385826l0 0c2.489273 0 4.876602 0.9888611 6.63678 2.7490463c1.7601852 1.7601852 2.7490463 4.1475067 2.7490463 6.63678l0 0c0 5.183647 -4.202179 9.385826 -9.385826 9.385826l0 0c-5.183647 0 -9.385826 -4.202179 -9.385826 -9.385826z" fill-rule="evenodd"/><path fill="#595959" d="m104.0 302.3622l0 0c0 -5.183655 4.202179 -9.385834 9.385826 -9.385834l0 0c2.489273 0 4.876602 0.9888611 6.63678 2.749054c1.7601852 1.7601624 2.7490463 4.1474915 2.7490463 6.63678l0 0c0 5.183655 -4.202179 9.385803 -9.385826 9.385803l0 0c-5.183647 0 -9.385826 -4.2021484 -9.385826 -9.385803z" fill-rule="evenodd"/><path stroke="#595959" stroke-width="2.0" stroke-linejoin="round" stroke-linecap="butt" d="m104.0 302.3622l0 0c0 -5.183655 4.202179 -9.385834 9.385826 -9.385834l0 0c2.489273 0 4.876602 0.9888611 6.63678 2.749054c1.7601852 1.7601624 2.7490463 4.1474915 2.7490463 6.63678l0 0c0 5.183655 -4.202179 9.385803 -9.385826 9.385803l0 0c-5.183647 0 -9.385826 -4.2021484 -9.385826 -9.385803z" fill-rule="evenodd"/><path fill="#595959" d="m104.0 491.3386l0 0c0 -5.183655 4.202179 -9.385834 9.385826 -9.385834l0 0c2.489273 0 4.876602 0.9888611 6.63678 2.749054c1.7601852 1.7601624 2.7490463 4.1474915 2.7490463 6.63678l0 0c0 5.1836243 -4.202179 9.385803 -9.385826 9.385803l0 0c-5.183647 0 -9.385826 -4.202179 -9.385826 -9.385803z" fill-rule="evenodd"/><path stroke="#595959" stroke-width="2.0" stroke-linejoin="round" stroke-linecap="butt" d="m104.0 491.3386l0 0c0 -5.183655 4.202179 -9.385834 9.385826 -9.385834l0 0c2.489273 0 4.876602 0.9888611 6.63678 2.749054c1.7601852 1.7601624 2.7490463 4.1474915 2.7490463 6.63678l0 0c0 5.1836243 -4.202179 9.385803 -9.385826 9.385803l0 0c-5.183647 0 -9.385826 -4.202179 -9.385826 -9.385803z" fill-rule="evenodd"/><path fill="#595959" d="m292.97638 113.385826l0 0c0 -5.183647 4.202179 -9.385826 9.385834 -9.385826l0 0c2.4892578 0 4.876587 0.9888611 6.63678 2.7490463c1.7601624 1.7601852 2.7490234 4.1475067 2.7490234 6.63678l0 0c0 5.183647 -4.2021484 9.385826 -9.385803 9.385826l0 0c-5.183655 0 -9.385834 -4.202179 -9.385834 -9.385826z" fill-rule="evenodd"/><path stroke="#595959" stroke-width="2.0" stroke-linejoin="round" stroke-linecap="butt" d="m292.97638 113.385826l0 0c0 -5.183647 4.202179 -9.385826 9.385834 -9.385826l0 0c2.4892578 0 4.876587 0.9888611 6.63678 2.7490463c1.7601624 1.7601852 2.7490234 4.1475067 2.7490234 6.63678l0 0c0 5.183647 -4.2021484 9.385826 -9.385803 9.385826l0 0c-5.183655 0 -9.385834 -4.202179 -9.385834 -9.385826z" fill-rule="evenodd"/><path fill="#595959" d="m292.97638 302.3622l0 0c0 -5.183655 4.202179 -9.385834 9.385834 -9.385834l0 0c2.4892578 0 4.876587 0.9888611 6.63678 2.749054c1.7601624 1.7601624 2.7490234 4.1474915 2.7490234 6.63678l0 0c0 5.183655 -4.2021484 9.385803 -9.385803 9.385803l0 0c-5.183655 0 -9.385834 -4.2021484 -9.385834 -9.385803z" fill-rule="evenodd"/><path stroke="#595959" stroke-width="2.0" stroke-linejoin="round" stroke-linecap="butt" d="m292.97638 302.3622l0 0c0 -5.183655 4.202179 -9.385834 9.385834 -9.385834l0 0c2.4892578 0 4.876587 0.9888611 6.63678 2.749054c1.7601624 1.7601624 2.7490234 4.1474915 2.7490234 6.63678l0 0c0 5.183655 -4.2021484 9.385803 -9.385803 9.385803l0 0c-5.183655 0 -9.385834 -4.2021484 -9.385834 -9.385803z" fill-rule="evenodd"/><path fill="#595959" d="m292.97638 491.3386l0 0c0 -5.183655 4.202179 -9.385834 9.385834 -9.385834l0 0c2.4892578 0 4.876587 0.9888611 6.63678 2.749054c1.7601624 1.7601624 2.7490234 4.1474915 2.7490234 6.63678l0 0c0 5.1836243 -4.2021484 9.385803 -9.385803 9.385803l0 0c-5.183655 0 -9.385834 -4.202179 -9.385834 -9.385803z" fill-rule="evenodd"/><path stroke="#595959" stroke-width="2.0" stroke-linejoin="round" stroke-linecap="butt" d="m292.97638 491.3386l0 0c0 -5.183655 4.202179 -9.385834 9.385834 -9.385834l0 0c2.4892578 0 4.876587 0.9888611 6.63678 2.749054c1.7601624 1.7601624 2.7490234 4.1474915 2.7490234 6.63678l0 0c0 5.1836243 -4.2021484 9.385803 -9.385803 9.385803l0 0c-5.183655 0 -9.385834 -4.202179 -9.385834 -9.385803z" fill-rule="evenodd"/><path fill="#595959" d="m481.95276 113.385826l0 0c0 -5.183647 4.202179 -9.385826 9.385834 -9.385826l0 0c2.4892578 0 4.876587 0.9888611 6.63678 2.7490463c1.7601624 1.7601852 2.7490234 4.1475067 2.7490234 6.63678l0 0c0 5.183647 -4.202179 9.385826 -9.385803 9.385826l0 0c-5.183655 0 -9.385834 -4.202179 -9.385834 -9.385826z" fill-rule="evenodd"/><path stroke="#595959" stroke-width="2.0" stroke-linejoin="round" stroke-linecap="butt" d="m481.95276 113.385826l0 0c0 -5.183647 4.202179 -9.385826 9.385834 -9.385826l0 0c2.4892578 0 4.876587 0.9888611 6.63678 2.7490463c1.7601624 1.7601852 2.7490234 4.1475067 2.7490234 6.63678l0 0c0 5.183647 -4.202179 9.385826 -9.385803 9.385826l0 0c-5.183655 0 -9.385834 -4.202179 -9.385834 -9.385826z" fill-rule="evenodd"/><path fill="#595959" d="m481.95276 302.3622l0 0c0 -5.183655 4.202179 -9.385834 9.385834 -9.385834l0 0c2.4892578 0 4.876587 0.9888611 6.63678 2.749054c1.7601624 1.7601624 2.7490234 4.1474915 2.7490234 6.63678l0 0c0 5.183655 -4.202179 9.385803 -9.385803 9.385803l0 0c-5.183655 0 -9.385834 -4.2021484 -9.385834 -9.385803z" fill-rule="evenodd"/><path stroke="#595959" stroke-width="2.0" stroke-linejoin="round" stroke-linecap="butt" d="m481.95276 302.3622l0 0c0 -5.183655 4.202179 -9.385834 9.385834 -9.385834l0 0c2.4892578 0 4.876587 0.9888611 6.63678 2.749054c1.7601624 1.7601624 2.7490234 4.1474915 2.7490234 6.63678l0 0c0 5.183655 -4.202179 9.385803 -9.385803 9.385803l0 0c-5.183655 0 -9.385834 -4.2021484 -9.385834 -9.385803z" fill-rule="evenodd"/><path fill="#595959" d="m481.95276 491.3386l0 0c0 -5.183655 4.202179 -9.385834 9.385834 -9.385834l0 0c2.4892578 0 4.876587 0.9888611 6.63678 2.749054c1.7601624 1.7601624 2.7490234 4.1474915 2.7490234 6.63678l0 0c0 5.1836243 -4.202179 9.385803 -9.385803 9.385803l0 0c-5.183655 0 -9.385834 -4.202179 -9.385834 -9.385803z" fill-rule="evenodd"/><path stroke="#595959" stroke-width="2.0" stroke-linejoin="round" stroke-linecap="butt" d="m481.95276 491.3386l0 0c0 -5.183655 4.202179 -9.385834 9.385834 -9.385834l0 0c2.4892578 0 4.876587 0.9888611 6.63678 2.749054c1.7601624 1.7601624 2.7490234 4.1474915 2.7490234 6.63678l0 0c0 5.1836243 -4.202179 9.385803 -9.385803 9.385803l0 0c-5.183655 0 -9.385834 -4.202179 -9.385834 -9.385803z" fill-rule="evenodd"/><path fill="#ffffff" d="m198.55118 18.897638l0 0c0 -5.183649 4.202179 -9.385827 9.385834 -9.385827l0 0c2.489273 0 4.876587 0.9888611 6.63678 2.7490444c1.7601776 1.7601843 2.7490387 4.1475058 2.7490387 6.6367826l0 0c0 5.183649 -4.202179 9.385826 -9.3858185 9.385826l0 0c-5.183655 0 -9.385834 -4.202177 -9.385834 -9.385826z" fill-rule="evenodd"/><path stroke="#595959" stroke-width="2.0" stroke-linejoin="round" stroke-linecap="butt" d="m198.55118 18.897638l0 0c0 -5.183649 4.202179 -9.385827 9.385834 -9.385827l0 0c2.489273 0 4.876587 0.9888611 6.63678 2.7490444c1.7601776 1.7601843 2.7490387 4.1475058 2.7490387 6.6367826l0 0c0 5.183649 -4.202179 9.385826 -9.3858185 9.385826l0 0c-5.183655 0 -9.385834 -4.202177 -9.385834 -9.385826z" fill-rule="evenodd"/><path fill="#ffffff" d="m9.511811 396.9134l0 0c0 -5.183655 4.202178 -9.385834 9.385827 -9.385834l0 0c2.489275 0 4.8765965 0.9888611 6.6367817 2.749054c1.7601833 1.7601624 2.7490444 4.1474915 2.7490444 6.63678l0 0c0 5.183655 -4.202177 9.385834 -9.385826 9.385834l0 0c-5.183649 0 -9.385827 -4.202179 -9.385827 -9.385834z" fill-rule="evenodd"/><path stroke="#595959" stroke-width="2.0" stroke-linejoin="round" stroke-linecap="butt" d="m9.511811 396.9134l0 0c0 -5.183655 4.202178 -9.385834 9.385827 -9.385834l0 0c2.489275 0 4.8765965 0.9888611 6.6367817 2.749054c1.7601833 1.7601624 2.7490444 4.1474915 2.7490444 6.63678l0 0c0 5.183655 -4.202177 9.385834 -9.385826 9.385834l0 0c-5.183649 0 -9.385827 -4.202179 -9.385827 -9.385834z" fill-rule="evenodd"/><path fill="#ffffff" d="m576.4409 207.93701l0 0c0 -5.183655 4.2022095 -9.385834 9.385864 -9.385834l0 0c2.4892578 0 4.876587 0.9888611 6.63678 2.749054c1.7601929 1.7601776 2.7490234 4.1475067 2.7490234 6.63678l0 0c0 5.1836395 -4.2021484 9.3858185 -9.385803 9.3858185l0 0c-5.183655 0 -9.385864 -4.202179 -9.385864 -9.3858185z" fill-rule="evenodd"/><path stroke="#595959" stroke-width="2.0" stroke-linejoin="round" stroke-linecap="butt" d="m576.4409 207.93701l0 0c0 -5.183655 4.2022095 -9.385834 9.385864 -9.385834l0 0c2.4892578 0 4.876587 0.9888611 6.63678 2.749054c1.7601929 1.7601776 2.7490234 4.1475067 2.7490234 6.63678l0 0c0 5.1836395 -4.2021484 9.3858185 -9.385803 9.3858185l0 0c-5.183655 0 -9.385864 -4.202179 -9.385864 -9.3858185z" fill-rule="evenodd"/><path fill="#ffffff" d="m387.52756 585.8268l0 0c0 -5.183655 4.202179 -9.385864 9.385834 -9.385864l0 0c2.4892578 0 4.876587 0.9888916 6.63678 2.7490845c1.7601929 1.7601929 2.749054 4.147522 2.749054 6.63678l0 0c0 5.183655 -4.202179 9.385803 -9.385834 9.385803l0 0c-5.183655 0 -9.385834 -4.2021484 -9.385834 -9.385803z" fill-rule="evenodd"/><path stroke="#595959" stroke-width="2.0" stroke-linejoin="round" stroke-linecap="butt" d="m387.52756 585.8268l0 0c0 -5.183655 4.202179 -9.385864 9.385834 -9.385864l0 0c2.4892578 0 4.876587 0.9888916 6.63678 2.7490845c1.7601929 1.7601929 2.749054 4.147522 2.749054 6.63678l0 0c0 5.183655 -4.202179 9.385803 -9.385834 9.385803l0 0c-5.183655 0 -9.385834 -4.2021484 -9.385834 -9.385803z" fill-rule="evenodd"/><path fill="#ffffff" d="m198.61417 207.93701l0 0c0 -5.183655 4.202179 -9.385834 9.385834 -9.385834l0 0c2.489273 0 4.876602 0.9888611 6.63678 2.749054c1.7601929 1.7601776 2.749054 4.1475067 2.749054 6.63678l0 0c0 5.1836395 -4.202179 9.3858185 -9.385834 9.3858185l0 0c-5.183655 0 -9.385834 -4.202179 -9.385834 -9.3858185z" fill-rule="evenodd"/><path stroke="#595959" stroke-width="2.0" stroke-linejoin="round" stroke-linecap="butt" d="m198.61417 207.93701l0 0c0 -5.183655 4.202179 -9.385834 9.385834 -9.385834l0 0c2.489273 0 4.876602 0.9888611 6.63678 2.749054c1.7601929 1.7601776 2.749054 4.1475067 2.749054 6.63678l0 0c0 5.1836395 -4.202179 9.3858185 -9.385834 9.3858185l0 0c-5.183655 0 -9.385834 -4.202179 -9.385834 -9.3858185z" fill-rule="evenodd"/><path fill="#ffffff" d="m198.55118 396.97638l0 0c0 -5.183655 4.202179 -9.385834 9.385834 -9.385834l0 0c2.489273 0 4.876587 0.9888611 6.63678 2.749054c1.7601776 1.7601929 2.7490387 4.1474915 2.7490387 6.63678l0 0c0 5.183655 -4.202179 9.385834 -9.3858185 9.385834l0 0c-5.183655 0 -9.385834 -4.202179 -9.385834 -9.385834z" fill-rule="evenodd"/><path stroke="#595959" stroke-width="2.0" stroke-linejoin="round" stroke-linecap="butt" d="m198.55118 396.97638l0 0c0 -5.183655 4.202179 -9.385834 9.385834 -9.385834l0 0c2.489273 0 4.876587 0.9888611 6.63678 2.749054c1.7601776 1.7601929 2.7490387 4.1474915 2.7490387 6.63678l0 0c0 5.183655 -4.202179 9.385834 -9.3858185 9.385834l0 0c-5.183655 0 -9.385834 -4.202179 -9.385834 -9.385834z" fill-rule="evenodd"/><path fill="#ffffff" d="m387.52756 208.0l0 0c0 -5.183655 4.202179 -9.385834 9.385834 -9.385834l0 0c2.4892578 0 4.876587 0.9888611 6.63678 2.749054c1.7601929 1.7601776 2.749054 4.1475067 2.749054 6.63678l0 0c0 5.183655 -4.202179 9.385834 -9.385834 9.385834l0 0c-5.183655 0 -9.385834 -4.202179 -9.385834 -9.385834z" fill-rule="evenodd"/><path stroke="#595959" stroke-width="2.0" stroke-linejoin="round" stroke-linecap="butt" d="m387.52756 208.0l0 0c0 -5.183655 4.202179 -9.385834 9.385834 -9.385834l0 0c2.4892578 0 4.876587 0.9888611 6.63678 2.749054c1.7601929 1.7601776 2.749054 4.1475067 2.749054 6.63678l0 0c0 5.183655 -4.202179 9.385834 -9.385834 9.385834l0 0c-5.183655 0 -9.385834 -4.202179 -9.385834 -9.385834z" fill-rule="evenodd"/><path fill="#ffffff" d="m387.59055 396.9134l0 0c0 -5.183655 4.202179 -9.385834 9.385834 -9.385834l0 0c2.4892883 0 4.876587 0.9888611 6.63678 2.749054c1.7601929 1.7601624 2.749054 4.1474915 2.749054 6.63678l0 0c0 5.183655 -4.202179 9.385834 -9.385834 9.385834l0 0c-5.183655 0 -9.385834 -4.202179 -9.385834 -9.385834z" fill-rule="evenodd"/><path stroke="#595959" stroke-width="2.0" stroke-linejoin="round" stroke-linecap="butt" d="m387.59055 396.9134l0 0c0 -5.183655 4.202179 -9.385834 9.385834 -9.385834l0 0c2.4892883 0 4.876587 0.9888611 6.63678 2.749054c1.7601929 1.7601624 2.749054 4.1474915 2.749054 6.63678l0 0c0 5.183655 -4.202179 9.385834 -9.385834 9.385834l0 0c-5.183655 0 -9.385834 -4.202179 -9.385834 -9.385834z" fill-rule="evenodd"/></g></svg>